<svg width="158" height="169" viewBox="0 0 158 169" fill="none" xmlns="http://www.w3.org/2000/svg">
<g opacity="0.15">
<path d="M107.103 71.3166C111.206 71.3166 114.619 68.159 114.937 64.0678L115.018 63.0234C115.372 58.4577 111.763 54.5573 107.184 54.5573H80.4818C76.1422 54.5573 72.6244 51.0394 72.6244 46.6999V7.85739C72.6244 3.51787 69.1065 0 64.767 0H45.4577C40.8308 0 37.2056 3.97793 37.634 8.5849L42.8042 64.1867C43.1799 68.2269 46.5702 71.3166 50.6279 71.3166H107.103Z" fill="url(#paint0_radial_4473_28148)"/>
<path d="M148.484 81.9441C148.484 78.8429 145.97 76.3289 142.869 76.3289H14.9584C11.8572 76.3289 9.34319 78.8429 9.34319 81.9441C9.34319 85.0453 11.8572 87.5593 14.9584 87.5593H142.869C145.97 87.5593 148.484 85.0453 148.484 81.9441Z" fill="url(#paint1_radial_4473_28148)"/>
<path d="M114.071 147.865C111.018 145.204 106.506 145.556 103.229 147.935C100.699 149.772 97.958 151.321 95.0579 152.546C89.9523 154.705 84.4584 155.817 78.9069 155.817C73.3555 155.817 67.8614 154.705 62.7559 152.546C59.8634 151.324 57.1294 149.78 54.6046 147.949C51.3181 145.566 46.7938 145.224 43.7253 147.882C43.6169 147.976 43.5085 148.07 43.4002 148.164C41.1365 150.226 40.8733 153.727 43.195 155.724C47.3827 159.325 52.1102 162.278 57.2184 164.474C64.063 167.416 71.4451 168.934 78.9069 168.934C86.3687 168.934 93.7509 167.416 100.595 164.474C105.704 162.278 110.431 159.325 114.619 155.724C116.941 153.727 116.726 150.17 114.414 148.164C114.299 148.064 114.185 147.964 114.071 147.865Z" fill="url(#paint2_radial_4473_28148)"/>
<path d="M152.924 146.436C155.368 144.292 153.127 140.9 149.956 140.182C144.712 138.995 139.812 135.686 135.08 131.565C132.933 129.695 132.162 126.752 132.631 123.944C134.103 115.127 133.348 106.081 130.431 97.6175C129.642 95.3295 127.424 93.8981 125.004 93.8981C120.273 93.8981 117.232 99.21 118.547 103.755C119.597 107.387 120.136 111.163 120.132 114.977C120.132 115.74 119.215 116.135 118.65 115.621C108.649 106.511 98.4419 101.034 86.1831 112.852C82.2368 116.657 75.6844 116.657 71.7381 112.852C59.4799 101.035 49.275 106.51 39.2835 115.62C38.7194 116.134 37.8023 115.74 37.8023 114.977C37.7955 111.206 38.3204 107.472 39.3477 103.878C40.6629 99.2766 37.586 93.8981 32.8002 93.8981C30.3466 93.8981 28.0988 95.3531 27.3081 97.6759C24.4322 106.125 23.7048 115.144 25.1864 123.932C25.6609 126.746 24.8881 129.698 22.735 131.571C18.0061 135.685 13.1162 138.989 7.88297 140.179C4.71051 140.9 2.47919 144.29 4.92975 146.43C7.59593 148.759 10.9057 150.757 14.3638 152.23C18.6251 153.974 23.1292 154.861 26.9402 154.438C27.889 154.332 28.7775 153.952 29.5654 153.413C46.2793 141.98 60.6556 118.748 75.743 143.573C76.4165 144.681 77.6164 145.412 78.9131 145.412C80.2103 145.412 81.4106 144.68 82.084 143.572C97.0987 118.852 111.477 141.787 128.044 153.269C128.961 153.904 130.018 154.315 131.13 154.404C135.113 154.726 139.125 154.07 142.806 152.482C146.516 151.025 150.086 148.926 152.924 146.436Z" fill="url(#paint3_radial_4473_28148)"/>
<path d="M120.205 8.58594C120.634 3.97861 117.009 0 112.382 0H88.6034C84.2639 0 80.746 3.51788 80.746 7.8574V40.1477C80.746 44.4873 84.2639 48.0051 88.6034 48.0051H109.375C113.432 48.0051 116.822 44.916 117.198 40.8763L120.205 8.58594Z" fill="url(#paint4_radial_4473_28148)"/>
</g>
<defs>
<radialGradient id="paint0_radial_4473_28148" cx="0" cy="0" r="1" gradientUnits="userSpaceOnUse" gradientTransform="translate(16.5 158) rotate(-51.9469) scale(200.65 178.322)">
<stop stop-color="#6BDBF2"/>
<stop offset="0.5" stop-color="#9B7EF4"/>
<stop offset="1" stop-color="#726BED"/>
</radialGradient>
<radialGradient id="paint1_radial_4473_28148" cx="0" cy="0" r="1" gradientUnits="userSpaceOnUse" gradientTransform="translate(16.5 158) rotate(-51.9469) scale(200.65 178.322)">
<stop stop-color="#6BDBF2"/>
<stop offset="0.5" stop-color="#9B7EF4"/>
<stop offset="1" stop-color="#726BED"/>
</radialGradient>
<radialGradient id="paint2_radial_4473_28148" cx="0" cy="0" r="1" gradientUnits="userSpaceOnUse" gradientTransform="translate(16.5 158) rotate(-51.9469) scale(200.65 178.322)">
<stop stop-color="#6BDBF2"/>
<stop offset="0.5" stop-color="#9B7EF4"/>
<stop offset="1" stop-color="#726BED"/>
</radialGradient>
<radialGradient id="paint3_radial_4473_28148" cx="0" cy="0" r="1" gradientUnits="userSpaceOnUse" gradientTransform="translate(16.5 158) rotate(-51.9469) scale(200.65 178.322)">
<stop stop-color="#6BDBF2"/>
<stop offset="0.5" stop-color="#9B7EF4"/>
<stop offset="1" stop-color="#726BED"/>
</radialGradient>
<radialGradient id="paint4_radial_4473_28148" cx="0" cy="0" r="1" gradientUnits="userSpaceOnUse" gradientTransform="translate(16.5 158) rotate(-51.9469) scale(200.65 178.322)">
<stop stop-color="#6BDBF2"/>
<stop offset="0.5" stop-color="#9B7EF4"/>
<stop offset="1" stop-color="#726BED"/>
</radialGradient>
</defs>
</svg>
