<svg width="20" height="20" viewBox="0 0 20 20" fill="none" xmlns="http://www.w3.org/2000/svg">
<path fill-rule="evenodd" clip-rule="evenodd" d="M10.0263 1.38135C14.9547 1.38135 18.9511 5.37774 18.9511 10.3062C18.9511 15.2346 14.9547 19.231 10.0263 19.231C5.09687 19.231 1.10144 15.2346 1.10144 10.3062C1.10144 5.37774 5.09687 1.38135 10.0263 1.38135Z" stroke="black" stroke-width="1.28914" stroke-linecap="round" stroke-linejoin="round"/>
<path d="M5.70422 11.4612C5.06646 11.4612 4.54834 10.9431 4.54834 10.3063C4.54834 9.66948 5.06646 9.15039 5.70422 9.15039C6.34199 9.15039 6.86011 9.66948 6.86011 10.3063C6.86011 10.9431 6.34199 11.4612 5.70422 11.4612" fill="black"/>
<path d="M10.0262 11.4612C9.38848 11.4612 8.87036 10.9431 8.87036 10.3063C8.87036 9.66948 9.38848 9.15039 10.0262 9.15039C10.664 9.15039 11.1821 9.66948 11.1821 10.3063C11.1821 10.9431 10.664 11.4612 10.0262 11.4612" fill="black"/>
<path d="M14.3478 11.4612C13.7101 11.4612 13.192 10.9431 13.192 10.3063C13.192 9.66948 13.7101 9.15039 14.3478 9.15039C14.9856 9.15039 15.5037 9.66948 15.5037 10.3063C15.5037 10.9431 14.9856 11.4612 14.3478 11.4612" fill="black"/>
</svg>
