<svg width="32" height="33" viewBox="0 0 32 33" fill="none" xmlns="http://www.w3.org/2000/svg">
<path d="M12.0101 29.1262V24.6407C12.0101 23.4998 12.9402 22.5727 14.0926 22.5651H18.3139C19.4718 22.5651 20.4105 23.4944 20.4105 24.6407V24.6407V29.1401C20.4102 30.1088 21.1912 30.9005 22.1693 30.9232H24.9835C27.7889 30.9232 30.0632 28.6717 30.0632 25.8944V25.8944V13.1343C30.0482 12.0417 29.53 11.0157 28.6561 10.3483L19.0315 2.67276C17.3454 1.33629 14.9485 1.33629 13.2624 2.67276L3.68011 10.3622C2.80286 11.0269 2.28381 12.0547 2.27301 13.1483V25.8944C2.27301 28.6717 4.54723 30.9232 7.35263 30.9232H10.1668C11.1693 30.9232 11.982 30.1187 11.982 29.1262V29.1262" stroke="black" stroke-width="2.58113" stroke-linecap="round" stroke-linejoin="round"/>
</svg>
