<svg width="16" height="16" viewBox="0 0 16 16" fill="none" xmlns="http://www.w3.org/2000/svg">
<path d="M3.66481 6.66498L3.35205 7.0012H3.81125L14.8837 7.0012C15.3764 7.0012 15.8 7.43505 15.8 8.0012C15.8 8.56735 15.3764 9.00121 14.8837 9.00121L3.81125 9.00121H3.35205L3.66481 9.33743L8.08473 14.0889L8.22685 13.9567L8.08473 14.0889C8.44925 14.4808 8.44925 15.1217 8.08473 15.5135L8.22935 15.6481L8.08473 15.5135C7.72791 15.8971 7.15577 15.8971 6.79895 15.5135L0.473396 8.71351L0.326959 8.84973L0.473393 8.71351C0.108869 8.32166 0.108869 7.68075 0.473393 7.2889L0.326959 7.15267L0.473396 7.28889L6.79895 0.488923L6.65251 0.352702L6.79895 0.48892C7.15577 0.105321 7.72791 0.105321 8.08473 0.48892C8.44925 0.88079 8.44925 1.52158 8.08473 1.91345L3.66481 6.66498Z" fill="black" stroke="#E9ECFF" stroke-width="0.4"/>
</svg>
