<svg width="98" height="88" viewBox="0 0 98 88" fill="none" xmlns="http://www.w3.org/2000/svg">
<path fill-rule="evenodd" clip-rule="evenodd" d="M77.2063 19.3555V19.3555C75.3479 19.3555 73.6639 18.2838 72.8718 16.6091C71.4419 13.5786 69.6233 9.70581 68.5472 7.59744C66.9578 4.4623 64.382 2.63803 60.8147 2.61311C60.755 2.60813 37.478 2.60813 37.4182 2.61311C33.8509 2.63803 31.28 4.4623 29.6857 7.59744C28.6145 9.70581 26.796 13.5786 25.3661 16.6091C24.574 18.2838 22.885 19.3555 21.0316 19.3555V19.3555C11.087 19.3555 3.03076 27.4151 3.03076 37.3588V66.9458C3.03076 76.8845 11.087 84.9492 21.0316 84.9492H77.2063C87.1459 84.9492 95.2022 76.8845 95.2022 66.9458V37.3588C95.2022 27.4151 87.1459 19.3555 77.2063 19.3555Z" stroke="black" stroke-width="4.91581" stroke-linecap="round" stroke-linejoin="round"/>
<path fill-rule="evenodd" clip-rule="evenodd" d="M33.281 50.3816C33.276 59.1191 40.4056 66.2667 49.1245 66.2617C57.8285 66.2517 64.9382 59.1341 64.9531 50.4165C64.9681 41.664 57.8634 34.5315 49.1345 34.5215C40.3558 34.5115 33.2113 41.7637 33.281 50.3816Z" stroke="black" stroke-width="4.91581" stroke-linecap="round" stroke-linejoin="round"/>
<path d="M73.5433 38.7205C73.0619 38.6711 72.5865 38.5455 72.054 38.331C71.4617 38.0678 70.9489 37.7329 70.4531 37.2291C69.5625 36.2813 69.0468 35.0418 69.0468 33.7631C69.0468 33.0839 69.1856 32.4107 69.4566 31.8009C69.7282 31.1831 70.0502 30.6619 70.632 30.095C71.0746 29.7094 71.528 29.3991 72.1477 29.1259C73.9857 28.3973 76.1719 28.8327 77.5382 30.199C77.9476 30.6026 78.2925 31.0896 78.4839 31.5004L78.5972 31.7916C78.8724 32.4107 79.0112 33.0839 79.0112 33.7631C79.0112 35.0677 78.5021 36.2742 77.5571 37.2785C76.7403 38.1011 75.6676 38.6069 74.5233 38.7206L74.029 38.745L73.5433 38.7205Z" fill="black"/>
</svg>
