<svg width="34" height="33" viewBox="0 0 34 33" fill="none" xmlns="http://www.w3.org/2000/svg">
<rect width="34" height="33" fill="#D1D1D1"/>
<g clip-path="url(#clip0_1082_55887)">
<rect width="1920" height="1080" transform="translate(-833 -524)" fill="#EDF0FF"/>
<g opacity="0.1">
<path d="M249.579 -41.2368C267.491 -41.2368 282.387 -55.0204 283.775 -72.8789L284.129 -77.4382C285.678 -97.3681 269.923 -114.394 249.933 -114.394H133.374C114.431 -114.394 99.0745 -129.75 99.0745 -148.693V-318.248C99.0745 -337.191 83.7183 -352.547 64.7755 -352.547H-19.5132C-39.7103 -352.547 -55.5349 -335.182 -53.6649 -315.072L-31.0959 -72.3601C-29.4559 -54.7238 -14.6567 -41.2368 3.05579 -41.2368H249.579Z" fill="#726CED"/>
<path d="M249.579 -41.2368C267.491 -41.2368 282.387 -55.0204 283.775 -72.8789L284.129 -77.4382C285.678 -97.3681 269.923 -114.394 249.933 -114.394H133.374C114.431 -114.394 99.0745 -129.75 99.0745 -148.693V-318.248C99.0745 -337.191 83.7183 -352.547 64.7755 -352.547H-19.5132C-39.7103 -352.547 -55.5349 -335.182 -53.6649 -315.072L-31.0959 -72.3601C-29.4559 -54.7238 -14.6567 -41.2368 3.05579 -41.2368H249.579Z" fill="url(#paint0_radial_1082_55887)"/>
<path d="M430.216 5.15424C430.216 -8.38306 419.242 -19.3572 405.704 -19.3572H-152.648C-166.185 -19.3572 -177.16 -8.38306 -177.16 5.15424C-177.16 18.6915 -166.185 29.6657 -152.648 29.6657H405.704C419.242 29.6657 430.216 18.6915 430.216 5.15424Z" fill="#726CED"/>
<path d="M430.216 5.15424C430.216 -8.38306 419.242 -19.3572 405.704 -19.3572H-152.648C-166.185 -19.3572 -177.16 -8.38306 -177.16 5.15424C-177.16 18.6915 -166.185 29.6657 -152.648 29.6657H405.704C419.242 29.6657 430.216 18.6915 430.216 5.15424Z" fill="url(#paint1_radial_1082_55887)"/>
<path d="M279.996 292.91C266.671 281.297 246.973 282.831 232.669 293.216C221.624 301.234 209.66 307.995 197.001 313.346C174.714 322.767 150.732 327.624 126.499 327.624C102.266 327.624 78.2834 322.767 55.9966 313.346C43.3703 308.009 31.4362 301.269 20.4149 293.278C6.06848 282.876 -13.6809 281.383 -27.0754 292.985C-27.5486 293.395 -28.0217 293.805 -28.4947 294.215C-38.3761 303.215 -39.5249 318.502 -29.3904 327.216C-11.11 342.935 9.5262 355.828 31.8245 365.413C61.7023 378.255 93.9269 384.882 126.499 384.882C159.071 384.882 191.296 378.255 221.173 365.413C243.472 355.828 264.109 342.934 282.389 327.215C292.523 318.501 291.588 302.973 281.492 294.215C280.994 293.78 280.495 293.345 279.996 292.91Z" fill="#726CED"/>
<path d="M279.996 292.91C266.671 281.297 246.973 282.831 232.669 293.216C221.624 301.234 209.66 307.995 197.001 313.346C174.714 322.767 150.732 327.624 126.499 327.624C102.266 327.624 78.2834 322.767 55.9966 313.346C43.3703 308.009 31.4362 301.269 20.4149 293.278C6.06848 282.876 -13.6809 281.383 -27.0754 292.985C-27.5486 293.395 -28.0217 293.805 -28.4947 294.215C-38.3761 303.215 -39.5249 318.502 -29.3904 327.216C-11.11 342.935 9.5262 355.828 31.8245 365.413C61.7023 378.255 93.9269 384.882 126.499 384.882C159.071 384.882 191.296 378.255 221.173 365.413C243.472 355.828 264.109 342.934 282.389 327.215C292.523 318.501 291.588 302.973 281.492 294.215C280.994 293.78 280.495 293.345 279.996 292.91Z" fill="url(#paint2_radial_1082_55887)"/>
<path d="M449.598 286.674C460.265 277.313 450.484 262.509 436.643 259.374C413.752 254.19 392.361 239.746 371.706 221.757C362.335 213.595 358.966 200.747 361.013 188.49C367.439 150.004 364.146 110.516 351.41 73.5716C347.967 63.5838 338.284 57.3357 327.72 57.3357C307.068 57.3357 293.794 80.523 299.533 100.361C304.12 116.216 306.471 132.701 306.455 149.348C306.455 152.681 302.451 154.405 299.986 152.16C256.327 112.391 211.773 88.4864 158.261 140.075C141.034 156.682 112.432 156.682 95.2057 140.075C41.6964 88.4879 -2.84975 112.39 -46.4646 152.156C-48.9269 154.401 -52.9304 152.68 -52.9304 149.348C-52.96 132.89 -50.6687 116.589 -46.1844 100.9C-40.4433 80.8136 -53.8743 57.3357 -74.7652 57.3357C-85.4759 57.3357 -95.2879 63.687 -98.7393 73.8263C-111.293 110.707 -114.469 150.079 -108.001 188.441C-105.93 200.725 -109.303 213.609 -118.702 221.786C-139.344 239.745 -160.69 254.166 -183.534 259.36C-197.382 262.509 -207.122 277.307 -196.425 286.649C-184.787 296.812 -170.339 305.537 -155.244 311.965C-136.642 319.578 -116.981 323.451 -100.345 321.602C-96.2036 321.142 -92.3254 319.482 -88.8858 317.129C-15.9265 267.222 46.8287 165.808 112.688 274.175C115.628 279.012 120.866 282.203 126.526 282.203C132.189 282.203 137.428 279.01 140.367 274.17C205.909 166.264 268.672 266.379 340.992 316.5C344.994 319.275 349.607 321.065 354.461 321.457C371.851 322.859 389.363 319.995 405.428 313.067C421.625 306.706 437.211 297.544 449.598 286.674Z" fill="#726CED"/>
<path d="M449.598 286.674C460.265 277.313 450.484 262.509 436.643 259.374C413.752 254.19 392.361 239.746 371.706 221.757C362.335 213.595 358.966 200.747 361.013 188.49C367.439 150.004 364.146 110.516 351.41 73.5716C347.967 63.5838 338.284 57.3357 327.72 57.3357C307.068 57.3357 293.794 80.523 299.533 100.361C304.12 116.216 306.471 132.701 306.455 149.348C306.455 152.681 302.451 154.405 299.986 152.16C256.327 112.391 211.773 88.4864 158.261 140.075C141.034 156.682 112.432 156.682 95.2057 140.075C41.6964 88.4879 -2.84975 112.39 -46.4646 152.156C-48.9269 154.401 -52.9304 152.68 -52.9304 149.348C-52.96 132.89 -50.6687 116.589 -46.1844 100.9C-40.4433 80.8136 -53.8743 57.3357 -74.7652 57.3357C-85.4759 57.3357 -95.2879 63.687 -98.7393 73.8263C-111.293 110.707 -114.469 150.079 -108.001 188.441C-105.93 200.725 -109.303 213.609 -118.702 221.786C-139.344 239.745 -160.69 254.166 -183.534 259.36C-197.382 262.509 -207.122 277.307 -196.425 286.649C-184.787 296.812 -170.339 305.537 -155.244 311.965C-136.642 319.578 -116.981 323.451 -100.345 321.602C-96.2036 321.142 -92.3254 319.482 -88.8858 317.129C-15.9265 267.222 46.8287 165.808 112.688 274.175C115.628 279.012 120.866 282.203 126.526 282.203C132.189 282.203 137.428 279.01 140.367 274.17C205.909 166.264 268.672 266.379 340.992 316.5C344.994 319.275 349.607 321.065 354.461 321.457C371.851 322.859 389.363 319.995 405.428 313.067C421.625 306.706 437.211 297.544 449.598 286.674Z" fill="url(#paint3_radial_1082_55887)"/>
<path d="M306.774 -315.068C308.647 -335.18 292.822 -352.547 272.623 -352.547H168.826C149.883 -352.547 134.527 -337.191 134.527 -318.248V-177.295C134.527 -158.352 149.883 -142.996 168.826 -142.996H259.497C277.208 -142.996 292.007 -156.48 293.649 -174.114L306.774 -315.068Z" fill="#726CED"/>
<path d="M306.774 -315.068C308.647 -335.18 292.822 -352.547 272.623 -352.547H168.826C149.883 -352.547 134.527 -337.191 134.527 -318.248V-177.295C134.527 -158.352 149.883 -142.996 168.826 -142.996H259.497C277.208 -142.996 292.007 -156.48 293.649 -174.114L306.774 -315.068Z" fill="url(#paint4_radial_1082_55887)"/>
</g>
<rect x="-2454.6" y="-51" width="3337.5" height="135" rx="65.625" fill="#F8F9FF"/>
<rect x="-3.97708" y="-28.5" width="410.625" height="90" rx="45" fill="#D6DBF5"/>
<rect x="-32.1021" y="-28.5" width="330" height="90" rx="45" fill="#E9ECFF"/>
<path fill-rule="evenodd" clip-rule="evenodd" d="M17.0054 18.5864C16.0382 18.5864 15.2525 17.8006 15.2525 16.8335C15.2525 15.8692 16.0382 15.0835 17.0054 15.0835C17.9725 15.0835 18.7582 15.8692 18.7582 16.8335C18.7582 17.8006 17.9725 18.5864 17.0054 18.5864ZM10.1911 18.5864C9.22396 18.5864 8.43825 17.8007 8.43825 16.8336C8.43825 15.8693 9.22396 15.0836 10.1911 15.0836C11.1582 15.0836 11.944 15.8693 11.944 16.8336C11.944 17.8007 11.1582 18.5864 10.1911 18.5864ZM22.0669 16.8335C22.0669 17.8006 22.8526 18.5864 23.8197 18.5864C24.7869 18.5864 25.5726 17.8006 25.5726 16.8335C25.5726 15.8692 24.7869 15.0835 23.8197 15.0835C22.8526 15.0835 22.0669 15.8692 22.0669 16.8335Z" fill="black"/>
<path fill-rule="evenodd" clip-rule="evenodd" d="M16.678 1.5C7.96303 1.5 1.64803 8.61918 1.64803 16.5225C1.64803 19.0463 2.38303 21.6437 3.67303 24.0173C3.91303 24.4094 3.94303 24.9036 3.77803 25.3708L2.77303 28.7359C2.54803 29.5471 3.23803 30.1465 4.00303 29.9061L7.03303 29.0063C7.85803 28.7359 8.50303 29.0799 9.26803 29.5471C11.458 30.8375 14.188 31.5 16.648 31.5C24.088 31.5 31.648 25.7464 31.648 16.4775C31.648 8.48398 25.198 1.5 16.678 1.5Z" stroke="black" stroke-width="2.8125" stroke-linecap="round" stroke-linejoin="round"/>
</g>
<defs>
<radialGradient id="paint0_radial_1082_55887" cx="0" cy="0" r="1" gradientUnits="userSpaceOnUse" gradientTransform="translate(-378.131 725.415) rotate(-56.6115) scale(1291.04 1147.37)">
<stop stop-color="#6BDBF2"/>
<stop offset="0.5" stop-color="#9B7EF4"/>
<stop offset="1" stop-color="#726BED"/>
</radialGradient>
<radialGradient id="paint1_radial_1082_55887" cx="0" cy="0" r="1" gradientUnits="userSpaceOnUse" gradientTransform="translate(-378.131 725.415) rotate(-56.6115) scale(1291.04 1147.37)">
<stop stop-color="#6BDBF2"/>
<stop offset="0.5" stop-color="#9B7EF4"/>
<stop offset="1" stop-color="#726BED"/>
</radialGradient>
<radialGradient id="paint2_radial_1082_55887" cx="0" cy="0" r="1" gradientUnits="userSpaceOnUse" gradientTransform="translate(-378.131 725.415) rotate(-56.6115) scale(1291.04 1147.37)">
<stop stop-color="#6BDBF2"/>
<stop offset="0.5" stop-color="#9B7EF4"/>
<stop offset="1" stop-color="#726BED"/>
</radialGradient>
<radialGradient id="paint3_radial_1082_55887" cx="0" cy="0" r="1" gradientUnits="userSpaceOnUse" gradientTransform="translate(-378.131 725.415) rotate(-56.6115) scale(1291.04 1147.37)">
<stop stop-color="#6BDBF2"/>
<stop offset="0.5" stop-color="#9B7EF4"/>
<stop offset="1" stop-color="#726BED"/>
</radialGradient>
<radialGradient id="paint4_radial_1082_55887" cx="0" cy="0" r="1" gradientUnits="userSpaceOnUse" gradientTransform="translate(-378.131 725.415) rotate(-56.6115) scale(1291.04 1147.37)">
<stop stop-color="#6BDBF2"/>
<stop offset="0.5" stop-color="#9B7EF4"/>
<stop offset="1" stop-color="#726BED"/>
</radialGradient>
<clipPath id="clip0_1082_55887">
<rect width="1920" height="1080" fill="white" transform="translate(-833 -524)"/>
</clipPath>
</defs>
</svg>
