<svg width="11" height="8" viewBox="0 0 11 8" fill="none" xmlns="http://www.w3.org/2000/svg">
<path fill-rule="evenodd" clip-rule="evenodd" d="M10.1443 0.996924C10.2584 1.11078 10.3226 1.26512 10.3226 1.42604C10.3226 1.58696 10.2584 1.74129 10.1443 1.85515L4.25045 7.72511C4.13613 7.83879 3.98116 7.90267 3.81959 7.90267C3.65802 7.90267 3.50304 7.83879 3.38873 7.72511L0.746651 5.09375C0.638952 4.97864 0.580322 4.82639 0.583102 4.66907C0.585891 4.51175 0.649878 4.36166 0.761593 4.2504C0.8733 4.13914 1.02401 4.07541 1.18197 4.07264C1.33992 4.06986 1.49279 4.12826 1.60837 4.23552L3.81959 6.43777L9.28259 0.996924C9.39689 0.883209 9.55184 0.819336 9.71345 0.819336C9.87498 0.819336 10.03 0.883209 10.1443 0.996924Z" fill="#E9ECFF"/>
</svg>
