<svg width="51" height="51" viewBox="0 0 51 51" fill="none" xmlns="http://www.w3.org/2000/svg">
<g filter="url(#filter0_i_46_31827)">
<path d="M17.988 7.46069C27.842 7.46069 35.8302 15.4417 35.8302 25.2867V26.1586C35.8302 36.0036 27.842 43.9846 17.988 43.9846H17.5444C10.004 43.9846 3.89123 37.8774 3.89123 30.3438V21.1014C3.89123 13.5679 10.004 7.46069 17.5444 7.46069H17.988Z" fill="url(#paint0_radial_46_31827)"/>
<path d="M17.988 7.46069C27.842 7.46069 35.8302 15.4417 35.8302 25.2867V26.1586C35.8302 36.0036 27.842 43.9846 17.988 43.9846H17.5444C10.004 43.9846 3.89123 37.8774 3.89123 30.3438V21.1014C3.89123 13.5679 10.004 7.46069 17.5444 7.46069H17.988Z" fill="url(#paint1_radial_46_31827)"/>
</g>
<path d="M17.988 7.46069C27.842 7.46069 35.8302 15.4417 35.8302 25.2867V26.1586C35.8302 36.0036 27.842 43.9846 17.988 43.9846H17.5444C10.004 43.9846 3.89123 37.8774 3.89123 30.3438V21.1014C3.89123 13.5679 10.004 7.46069 17.5444 7.46069H17.988Z" fill="url(#paint2_radial_46_31827)"/>
<path d="M17.988 7.46069C27.842 7.46069 35.8302 15.4417 35.8302 25.2867V26.1586C35.8302 36.0036 27.842 43.9846 17.988 43.9846H17.5444C10.004 43.9846 3.89123 37.8774 3.89123 30.3438V21.1014C3.89123 13.5679 10.004 7.46069 17.5444 7.46069H17.988Z" fill="url(#paint3_radial_46_31827)"/>
<g filter="url(#filter1_ii_46_31827)">
<path d="M43.103 19.4258C41.86 20.155 40.2656 21.216 38.9575 22.5802V28.8653C40.2656 30.2294 41.86 31.2904 43.103 32.0196C43.744 32.3956 44.562 32.1355 44.8991 31.4737C45.1523 30.9766 45.0321 30.3938 44.7511 29.9118C44.1168 28.8243 44.8645 28.1962 46.3331 27.2365C47.0716 26.7539 47.1109 26.0178 47.1149 25.7227C47.1109 25.4276 47.0716 24.6916 46.3331 24.209C44.8645 23.2492 44.1168 22.6211 44.7511 21.5336C45.0321 21.0516 45.1523 20.4688 44.8991 19.9717C44.562 19.3099 43.744 19.0498 43.103 19.4258Z" fill="url(#paint4_linear_46_31827)"/>
</g>
<g filter="url(#filter2_f_46_31827)">
<path d="M28.2666 26.6165C28.9521 26.6165 29.5078 26.0613 29.5078 25.3764C29.5078 24.6915 28.9521 24.1363 28.2666 24.1363H27.0953C26.8177 24.1363 26.5773 23.9507 26.4781 23.6916C26.3138 23.2621 26.0859 22.8333 25.7906 22.4392C25.0503 21.4511 23.8528 20.6465 22.1819 20.6465C20.5372 20.6465 19.3454 21.387 18.5816 22.3928C17.854 23.351 17.539 24.5076 17.4549 25.4315C17.4208 25.806 17.3213 26.365 17.0289 26.8282C16.7763 27.2283 16.3429 27.6274 15.415 27.7117C14.5271 27.7924 14.0001 27.4319 13.6412 26.9616C13.2271 26.4187 13.0959 25.7885 13.0959 25.6285C13.0959 25.2551 13.1455 24.6148 13.4395 24.0736C13.6871 23.6178 14.1561 23.1265 15.2982 23.0248C15.981 22.964 16.4852 22.3617 16.4243 21.6795C16.3635 20.9974 15.7606 20.4937 15.0778 20.5545C13.0927 20.7313 11.895 21.7175 11.2578 22.8905C11.1171 23.1495 11.0069 23.4115 10.9206 23.6672C10.829 23.9387 10.5834 24.1363 10.2967 24.1363H9.2366C8.5511 24.1363 7.9954 24.6915 7.9954 25.3764C7.9954 26.0613 8.5511 26.6165 9.2366 26.6165H10.2856C10.566 26.6165 10.8083 26.8057 10.9053 27.0686C11.0771 27.5347 11.3282 28.021 11.667 28.465C12.4531 29.4955 13.7625 30.3522 15.6398 30.1817C17.3785 30.0237 18.4246 29.1525 19.0668 28.1353C19.6692 27.1811 19.868 26.1361 19.9153 25.6164C19.9883 24.2083 20.7662 23.1266 22.1819 23.1266C22.9595 23.1266 23.5303 23.4347 23.8728 23.8918C24.6728 24.8353 24.564 26.4402 23.5585 27.1981C23.1137 27.5334 22.6231 27.6836 22.1819 27.7175C21.4984 27.77 20.9536 28.3607 21.0061 29.0436C21.0587 29.7264 21.5936 30.2356 22.2771 30.1831C22.9914 30.1282 24.0369 29.8922 24.994 29.1707C25.619 28.6996 26.2183 27.8093 26.5201 27.0771C26.6289 26.813 26.8758 26.6165 27.1616 26.6165H28.2666Z" fill="url(#paint5_linear_46_31827)"/>
</g>
<g filter="url(#filter3_ii_46_31827)">
<path d="M28.4242 26.9263C29.1097 26.9263 29.6654 26.3711 29.6654 25.6862C29.6654 25.0014 29.1097 24.4462 28.4242 24.4462H27.2529C26.9753 24.4462 26.7349 24.2605 26.6358 24.0014C26.4714 23.572 26.2435 23.1431 25.9482 22.749C25.2079 21.7609 24.0104 20.9563 22.3395 20.9563C20.6948 20.9563 19.503 21.6968 18.7392 22.7026C18.0116 23.6608 17.6966 24.8174 17.6125 25.7413C17.5784 26.1158 17.4789 26.6748 17.1865 27.138C16.9339 27.5381 16.5005 27.9372 15.5727 28.0215C14.6847 28.1022 14.1577 27.7418 13.7988 27.2714C13.3847 26.7285 13.2535 26.0983 13.2535 25.9383C13.2535 25.5649 13.3031 24.9246 13.5972 24.3834C13.8448 23.9276 14.3137 23.4364 15.4559 23.3346C16.1386 23.2738 16.6428 22.6715 16.5819 21.9893C16.5211 21.3072 15.9182 20.8035 15.2354 20.8643C13.2504 21.0411 12.0526 22.0273 11.4154 23.2003C11.2747 23.4593 11.1645 23.7213 11.0782 23.977C10.9866 24.2485 10.741 24.4462 10.4543 24.4462H9.3942C8.70871 24.4462 8.15301 25.0014 8.15301 25.6862C8.15301 26.3711 8.70871 26.9263 9.3942 26.9263H10.4432C10.7236 26.9263 10.9659 27.1155 11.0629 27.3784C11.2347 27.8445 11.4858 28.3308 11.8246 28.7748C12.6107 29.8053 13.9201 30.662 15.7974 30.4915C17.5361 30.3335 18.5822 29.4624 19.2244 28.4451C19.8268 27.4909 20.0256 26.4459 20.0729 25.9262C20.1459 24.5182 20.9238 23.4364 22.3395 23.4364C23.1171 23.4364 23.6879 23.7446 24.0304 24.2016C24.8304 25.1451 24.7216 26.75 23.7161 27.5079C23.2713 27.8432 22.7807 27.9934 22.3395 28.0273C21.656 28.0798 21.1112 28.6705 21.1638 29.3534C21.2163 30.0362 21.7512 30.5454 22.4347 30.4929C23.149 30.438 24.1945 30.202 25.1516 29.4805C25.7766 29.0094 26.376 28.1191 26.6777 27.3869C26.7865 27.1228 27.0334 26.9263 27.3192 26.9263H28.4242Z" fill="url(#paint6_linear_46_31827)"/>
</g>
<g filter="url(#filter4_i_46_31827)">
<rect x="38.9575" y="21.2419" width="8.88877" height="3.27268" rx="1.63055" transform="rotate(90 38.9575 21.2419)" fill="url(#paint7_linear_46_31827)"/>
<rect x="38.9575" y="21.2419" width="8.88877" height="3.27268" rx="1.63055" transform="rotate(90 38.9575 21.2419)" fill="url(#paint8_radial_46_31827)"/>
</g>
<rect x="38.9575" y="21.2419" width="8.88877" height="3.27268" rx="1.63055" transform="rotate(90 38.9575 21.2419)" fill="url(#paint9_radial_46_31827)"/>
<defs>
<filter id="filter0_i_46_31827" x="3.89124" y="5.13307" width="33.4907" height="38.8515" filterUnits="userSpaceOnUse" color-interpolation-filters="sRGB">
<feFlood flood-opacity="0" result="BackgroundImageFix"/>
<feBlend mode="normal" in="SourceGraphic" in2="BackgroundImageFix" result="shape"/>
<feColorMatrix in="SourceAlpha" type="matrix" values="0 0 0 0 0 0 0 0 0 0 0 0 0 0 0 0 0 0 127 0" result="hardAlpha"/>
<feOffset dx="1.55175" dy="-2.32763"/>
<feGaussianBlur stdDeviation="2.71556"/>
<feComposite in2="hardAlpha" operator="arithmetic" k2="-1" k3="1"/>
<feColorMatrix type="matrix" values="0 0 0 0 0.713726 0 0 0 0 0.321569 0 0 0 0 0.211765 0 0 0 1 0"/>
<feBlend mode="normal" in2="shape" result="effect1_innerShadow_46_31827"/>
</filter>
<filter id="filter1_ii_46_31827" x="38.6471" y="18.8646" width="8.62298" height="13.6387" filterUnits="userSpaceOnUse" color-interpolation-filters="sRGB">
<feFlood flood-opacity="0" result="BackgroundImageFix"/>
<feBlend mode="normal" in="SourceGraphic" in2="BackgroundImageFix" result="shape"/>
<feColorMatrix in="SourceAlpha" type="matrix" values="0 0 0 0 0 0 0 0 0 0 0 0 0 0 0 0 0 0 127 0" result="hardAlpha"/>
<feOffset dx="-0.31035" dy="0.31035"/>
<feGaussianBlur stdDeviation="0.232763"/>
<feComposite in2="hardAlpha" operator="arithmetic" k2="-1" k3="1"/>
<feColorMatrix type="matrix" values="0 0 0 0 1 0 0 0 0 0.92549 0 0 0 0 0.403922 0 0 0 1 0"/>
<feBlend mode="normal" in2="shape" result="effect1_innerShadow_46_31827"/>
<feColorMatrix in="SourceAlpha" type="matrix" values="0 0 0 0 0 0 0 0 0 0 0 0 0 0 0 0 0 0 127 0" result="hardAlpha"/>
<feOffset dx="0.155175" dy="-0.387938"/>
<feGaussianBlur stdDeviation="0.387938"/>
<feComposite in2="hardAlpha" operator="arithmetic" k2="-1" k3="1"/>
<feColorMatrix type="matrix" values="0 0 0 0 0.788235 0 0 0 0 0.364706 0 0 0 0 0.12549 0 0 0 1 0"/>
<feBlend mode="normal" in2="effect1_innerShadow_46_31827" result="effect2_innerShadow_46_31827"/>
</filter>
<filter id="filter2_f_46_31827" x="7.52987" y="20.084" width="22.4435" height="10.5849" filterUnits="userSpaceOnUse" color-interpolation-filters="sRGB">
<feFlood flood-opacity="0" result="BackgroundImageFix"/>
<feBlend mode="normal" in="SourceGraphic" in2="BackgroundImageFix" result="shape"/>
<feGaussianBlur stdDeviation="0.232763" result="effect1_foregroundBlur_46_31827"/>
</filter>
<filter id="filter3_ii_46_31827" x="7.99784" y="20.549" width="21.9004" height="10.197" filterUnits="userSpaceOnUse" color-interpolation-filters="sRGB">
<feFlood flood-opacity="0" result="BackgroundImageFix"/>
<feBlend mode="normal" in="SourceGraphic" in2="BackgroundImageFix" result="shape"/>
<feColorMatrix in="SourceAlpha" type="matrix" values="0 0 0 0 0 0 0 0 0 0 0 0 0 0 0 0 0 0 127 0" result="hardAlpha"/>
<feOffset dx="0.232763" dy="-0.31035"/>
<feGaussianBlur stdDeviation="0.232763"/>
<feComposite in2="hardAlpha" operator="arithmetic" k2="-1" k3="1"/>
<feColorMatrix type="matrix" values="0 0 0 0 0.352941 0 0 0 0 0.168627 0 0 0 0 0.188235 0 0 0 1 0"/>
<feBlend mode="normal" in2="shape" result="effect1_innerShadow_46_31827"/>
<feColorMatrix in="SourceAlpha" type="matrix" values="0 0 0 0 0 0 0 0 0 0 0 0 0 0 0 0 0 0 127 0" result="hardAlpha"/>
<feOffset dx="-0.155175" dy="0.232763"/>
<feGaussianBlur stdDeviation="0.170693"/>
<feComposite in2="hardAlpha" operator="arithmetic" k2="-1" k3="1"/>
<feColorMatrix type="matrix" values="0 0 0 0 0.670588 0 0 0 0 0.458824 0 0 0 0 0.403922 0 0 0 1 0"/>
<feBlend mode="normal" in2="effect1_innerShadow_46_31827" result="effect2_innerShadow_46_31827"/>
</filter>
<filter id="filter4_i_46_31827" x="35.6848" y="20.3109" width="3.27267" height="9.81984" filterUnits="userSpaceOnUse" color-interpolation-filters="sRGB">
<feFlood flood-opacity="0" result="BackgroundImageFix"/>
<feBlend mode="normal" in="SourceGraphic" in2="BackgroundImageFix" result="shape"/>
<feColorMatrix in="SourceAlpha" type="matrix" values="0 0 0 0 0 0 0 0 0 0 0 0 0 0 0 0 0 0 127 0" result="hardAlpha"/>
<feOffset dy="-0.93105"/>
<feGaussianBlur stdDeviation="0.775875"/>
<feComposite in2="hardAlpha" operator="arithmetic" k2="-1" k3="1"/>
<feColorMatrix type="matrix" values="0 0 0 0 0.388235 0 0 0 0 0.223529 0 0 0 0 0.109804 0 0 0 1 0"/>
<feBlend mode="normal" in2="shape" result="effect1_innerShadow_46_31827"/>
</filter>
<radialGradient id="paint0_radial_46_31827" cx="0" cy="0" r="1" gradientUnits="userSpaceOnUse" gradientTransform="translate(32.8363 30.712) rotate(-169.939) scale(28.56 29.8879)">
<stop stop-color="#F6C93B"/>
<stop offset="1" stop-color="#E88340"/>
</radialGradient>
<radialGradient id="paint1_radial_46_31827" cx="0" cy="0" r="1" gradientUnits="userSpaceOnUse" gradientTransform="translate(28.3757 37.8811) rotate(-136.827) scale(10.9029 18.2656)">
<stop stop-color="#FFE065"/>
<stop offset="1" stop-color="#FFE065" stop-opacity="0"/>
</radialGradient>
<radialGradient id="paint2_radial_46_31827" cx="0" cy="0" r="1" gradientUnits="userSpaceOnUse" gradientTransform="translate(28.3757 9.97958) rotate(121.675) scale(8.3101 20.6038)">
<stop offset="0.187216" stop-color="#FFA45D"/>
<stop offset="1" stop-color="#FFA45D" stop-opacity="0"/>
</radialGradient>
<radialGradient id="paint3_radial_46_31827" cx="0" cy="0" r="1" gradientUnits="userSpaceOnUse" gradientTransform="translate(11.2123 25.7226) scale(25.3087 38.0967)">
<stop offset="0.928161" stop-color="#F3BD46" stop-opacity="0"/>
<stop offset="0.979885" stop-color="#917011"/>
</radialGradient>
<linearGradient id="paint4_linear_46_31827" x1="44.3513" y1="27.6663" x2="38.9586" y2="25.7196" gradientUnits="userSpaceOnUse">
<stop stop-color="#F3C048"/>
<stop offset="1" stop-color="#E67A41"/>
</linearGradient>
<linearGradient id="paint5_linear_46_31827" x1="28.9939" y1="25.3764" x2="9.1154" y2="25.3764" gradientUnits="userSpaceOnUse">
<stop stop-color="#A6782C"/>
<stop offset="1" stop-color="#B95940"/>
</linearGradient>
<linearGradient id="paint6_linear_46_31827" x1="16.4487" y1="31.051" x2="16.4487" y2="20.8593" gradientUnits="userSpaceOnUse">
<stop stop-color="#9D6360"/>
<stop offset="1" stop-color="#724A4D"/>
</linearGradient>
<linearGradient id="paint7_linear_46_31827" x1="40.1927" y1="22.8783" x2="47.8462" y2="22.8783" gradientUnits="userSpaceOnUse">
<stop stop-color="#834B41"/>
<stop offset="1" stop-color="#735854"/>
</linearGradient>
<radialGradient id="paint8_radial_46_31827" cx="0" cy="0" r="1" gradientUnits="userSpaceOnUse" gradientTransform="translate(46.2961 22.3692) rotate(-180) scale(2.8943 2.18179)">
<stop stop-color="#7D5A54"/>
<stop offset="1" stop-color="#7D5A54" stop-opacity="0"/>
</radialGradient>
<radialGradient id="paint9_radial_46_31827" cx="0" cy="0" r="1" gradientUnits="userSpaceOnUse" gradientTransform="translate(46.6837 22.8783) rotate(180) scale(8.57391 6.87471)">
<stop offset="0.694915" stop-color="#B3624D" stop-opacity="0"/>
<stop offset="0.960452" stop-color="#B3624D"/>
</radialGradient>
</defs>
</svg>
