<svg width="99" height="99" viewBox="0 0 99 99" fill="none" xmlns="http://www.w3.org/2000/svg">
<g opacity="0.2">
<g filter="url(#filter0_i_1686_41442)">
<path d="M33.9826 71.1249H28.5278L28.5278 87.0516C28.5278 87.4745 28.8707 87.8174 29.2936 87.8174L29.3878 87.8174C31.9254 87.8174 33.9826 85.7602 33.9826 83.2225V71.1249Z" fill="#CBC8C7"/>
</g>
<g filter="url(#filter1_i_1686_41442)">
<path d="M39.3755 71.1256H33.9824L33.9824 82.8279C33.9824 83.2509 34.3214 83.5938 34.7396 83.5938L34.8326 83.5937C37.3416 83.5937 39.3755 81.5366 39.3755 78.9989V71.1256Z" fill="#BDBFBD"/>
</g>
<g filter="url(#filter2_i_1686_41442)">
<path d="M23.1343 91.0301C23.1343 91.453 23.4772 91.7959 23.9001 91.7959H23.9942C26.5319 91.7959 28.5891 89.7387 28.5891 87.2011V74.0319C28.5891 73.3552 29.1377 72.8066 29.8144 72.8066H37.844C38.6899 72.8066 39.3756 72.1208 39.3756 71.275V64.8909C39.3756 60.4062 35.7399 56.7703 31.255 56.7703C26.7701 56.7703 23.1344 60.406 23.1344 64.8909L23.1343 91.0301Z" fill="#D6D2D1"/>
<path d="M23.1343 91.0301C23.1343 91.453 23.4772 91.7959 23.9001 91.7959H23.9942C26.5319 91.7959 28.5891 89.7387 28.5891 87.2011V74.0319C28.5891 73.3552 29.1377 72.8066 29.8144 72.8066H37.844C38.6899 72.8066 39.3756 72.1208 39.3756 71.275V64.8909C39.3756 60.4062 35.7399 56.7703 31.255 56.7703C26.7701 56.7703 23.1344 60.406 23.1344 64.8909L23.1343 91.0301Z" fill="url(#paint0_radial_1686_41442)"/>
</g>
<rect x="57.9741" y="84.4434" width="65.7682" height="43.1811" rx="6.73911" transform="rotate(-135 57.9741 84.4434)" fill="url(#paint1_linear_1686_41442)"/>
<rect x="57.9741" y="84.4434" width="65.7682" height="43.1811" rx="6.73911" transform="rotate(-135 57.9741 84.4434)" fill="url(#paint2_linear_1686_41442)"/>
<rect x="57.9741" y="84.4434" width="65.7682" height="43.1811" rx="6.73911" transform="rotate(-135 57.9741 84.4434)" fill="url(#paint3_linear_1686_41442)"/>
<rect x="57.9741" y="84.4434" width="65.7682" height="43.1811" rx="6.73911" transform="rotate(-135 57.9741 84.4434)" fill="url(#paint4_radial_1686_41442)"/>
<rect x="57.9741" y="84.4434" width="65.7682" height="43.1811" rx="6.73911" transform="rotate(-135 57.9741 84.4434)" fill="url(#paint5_radial_1686_41442)"/>
<rect x="51.9717" y="90.4434" width="65.7682" height="43.1811" rx="6.73911" transform="rotate(-135 51.9717 90.4434)" fill="url(#paint6_radial_1686_41442)"/>
<g filter="url(#filter3_iii_1686_41442)">
<path fill-rule="evenodd" clip-rule="evenodd" d="M13.7908 45.1674L50.7444 82.1209C51.4362 82.8127 52.5579 82.8127 53.2497 82.1209L74.1796 61.191C74.8715 60.4992 74.8715 59.3775 74.1796 58.6857L37.2261 21.7321C36.5343 21.0403 35.4126 21.0403 34.7207 21.7321L13.7908 42.662C13.099 43.3539 13.099 44.4755 13.7908 45.1674ZM49.4917 83.3736C50.8754 84.7572 53.1187 84.7572 54.5024 83.3736L75.4323 62.4437C76.816 61.06 76.816 58.8167 75.4323 57.433L38.4787 20.4795C37.0951 19.0958 34.8517 19.0958 33.4681 20.4795L12.5382 41.4094C11.1545 42.793 11.1545 45.0364 12.5382 46.42L49.4917 83.3736Z" fill="url(#paint7_linear_1686_41442)"/>
</g>
<ellipse cx="35.8954" cy="43.8343" rx="10.9245" ry="10.0756" transform="rotate(-135 35.8954 43.8343)" fill="#289D5B"/>
<ellipse cx="35.8954" cy="43.8343" rx="10.9245" ry="10.0756" transform="rotate(-135 35.8954 43.8343)" fill="url(#paint8_linear_1686_41442)"/>
<ellipse cx="35.8954" cy="43.8343" rx="10.9245" ry="10.0756" transform="rotate(-135 35.8954 43.8343)" fill="url(#paint9_radial_1686_41442)"/>
<g filter="url(#filter4_f_1686_41442)">
<path d="M31.1936 68.1629L24.2518 61.221L54.033 31.4398L61.2358 38.6426L31.1936 68.1629Z" fill="#127531"/>
</g>
<g filter="url(#filter5_f_1686_41442)">
<path d="M66.6387 32.6641L59.723 25.7484L54.0338 31.4375L61.2366 38.6403L66.6387 32.6641Z" fill="#0B3F2E"/>
</g>
<rect x="30.2852" y="68.7588" width="10.3339" height="51.6697" transform="rotate(-135 30.2852 68.7588)" fill="url(#paint10_linear_1686_41442)"/>
<rect x="30.2852" y="68.7588" width="10.3339" height="51.6697" transform="rotate(-135 30.2852 68.7588)" fill="url(#paint11_linear_1686_41442)"/>
<g filter="url(#filter6_dii_1686_41442)">
<path d="M49.5513 69.6111C48.9856 70.1768 48.0684 70.1768 47.5027 69.6111C46.937 69.0454 46.937 68.1282 47.5027 67.5625L48.6305 66.4347C47.3664 64.3535 47.8808 62.2322 48.8728 61.0121C49.438 60.3169 50.21 60.2342 50.8173 60.728C51.4246 61.2218 51.5166 62.1144 51.0228 62.7217C50.6996 63.1192 49.8449 64.3591 51.3846 65.8988C53.5899 68.104 56.5519 65.2464 53.9944 62.6888C52.8983 61.5928 52.3742 59.7988 52.5786 58.5459C52.7914 57.2418 53.4463 56.2298 54.4014 55.5111C56.1279 54.4252 57.9405 54.5704 59.5111 55.5541L60.597 54.4682C61.1627 53.9025 62.0799 53.9025 62.6456 54.4682C63.2113 55.034 63.2113 55.9512 62.6456 56.5169L61.5838 57.5786C62.7069 59.314 62.6991 61.3556 61.3212 63.0999C60.836 63.7141 59.9933 63.8685 59.3791 63.3833C58.765 62.8981 58.6604 62.0069 59.1456 61.3927C59.3865 61.0879 59.663 60.5915 59.7211 60.0576C59.7707 59.6012 59.6516 59.0293 58.9528 58.3306C58.082 57.4598 57.3025 57.3169 56.7215 57.4563C55.0643 57.7564 54.6446 59.7637 55.8277 60.9468C57.3472 62.5968 57.7231 63.7762 57.6669 65.0956C57.6212 66.1678 57.1699 67.251 56.3953 68.0257C55.8988 68.5221 54.949 69.1814 53.7416 69.2997C52.7691 69.395 51.6943 69.1918 50.6477 68.5148L49.5513 69.6111Z" fill="url(#paint12_linear_1686_41442)"/>
</g>
<g filter="url(#filter7_ii_1686_41442)">
<path d="M72.1128 34.1357V28.6809H88.0395C88.4624 28.6809 88.8053 29.0238 88.8053 29.4468V29.5409C88.8053 32.0786 86.7481 34.1357 84.2104 34.1357H72.1128Z" fill="#C8C2C3"/>
</g>
<g filter="url(#filter8_ii_1686_41442)">
<path d="M72.1128 39.5889V34.1341H83.8151C84.238 34.1341 84.5809 34.4769 84.5809 34.8999V34.994C84.5809 37.5317 82.5237 39.5889 79.986 39.5889H72.1128Z" fill="#C8C2C3"/>
</g>
<g filter="url(#filter9_ii_1686_41442)">
<path d="M57.7583 31.4374C57.7583 35.9393 61.394 39.5889 65.8789 39.5889H72.2629C73.1089 39.5889 73.7946 38.9005 73.7946 38.0514V29.9913C73.7946 29.312 74.3431 28.7613 75.0199 28.7613H88.189C90.7267 28.7613 92.7838 26.6963 92.7838 24.149V24.0544C92.7838 23.6299 92.4409 23.2857 92.018 23.2857L65.8789 23.2859C61.394 23.2859 57.7583 26.9354 57.7583 31.4374Z" fill="#DBD7D7"/>
</g>
</g>
<defs>
<filter id="filter0_i_1686_41442" x="26.2304" y="70.3592" width="7.75201" height="17.4582" filterUnits="userSpaceOnUse" color-interpolation-filters="sRGB">
<feFlood flood-opacity="0" result="BackgroundImageFix"/>
<feBlend mode="normal" in="SourceGraphic" in2="BackgroundImageFix" result="shape"/>
<feColorMatrix in="SourceAlpha" type="matrix" values="0 0 0 0 0 0 0 0 0 0 0 0 0 0 0 0 0 0 127 0" result="hardAlpha"/>
<feOffset dx="-2.29742" dy="-0.765808"/>
<feGaussianBlur stdDeviation="1.53162"/>
<feComposite in2="hardAlpha" operator="arithmetic" k2="-1" k3="1"/>
<feColorMatrix type="matrix" values="0 0 0 0 0.647059 0 0 0 0 0.623529 0 0 0 0 0.623529 0 0 0 1 0"/>
<feBlend mode="normal" in2="shape" result="effect1_innerShadow_1686_41442"/>
</filter>
<filter id="filter1_i_1686_41442" x="31.685" y="70.3602" width="7.69049" height="13.2336" filterUnits="userSpaceOnUse" color-interpolation-filters="sRGB">
<feFlood flood-opacity="0" result="BackgroundImageFix"/>
<feBlend mode="normal" in="SourceGraphic" in2="BackgroundImageFix" result="shape"/>
<feColorMatrix in="SourceAlpha" type="matrix" values="0 0 0 0 0 0 0 0 0 0 0 0 0 0 0 0 0 0 127 0" result="hardAlpha"/>
<feOffset dx="-2.29742" dy="-0.765808"/>
<feGaussianBlur stdDeviation="1.14871"/>
<feComposite in2="hardAlpha" operator="arithmetic" k2="-1" k3="1"/>
<feColorMatrix type="matrix" values="0 0 0 0 0.580392 0 0 0 0 0.611765 0 0 0 0 0.584314 0 0 0 1 0"/>
<feBlend mode="normal" in2="shape" result="effect1_innerShadow_1686_41442"/>
</filter>
<filter id="filter2_i_1686_41442" x="23.1343" y="56.0047" width="16.2412" height="35.7912" filterUnits="userSpaceOnUse" color-interpolation-filters="sRGB">
<feFlood flood-opacity="0" result="BackgroundImageFix"/>
<feBlend mode="normal" in="SourceGraphic" in2="BackgroundImageFix" result="shape"/>
<feColorMatrix in="SourceAlpha" type="matrix" values="0 0 0 0 0 0 0 0 0 0 0 0 0 0 0 0 0 0 127 0" result="hardAlpha"/>
<feOffset dy="-0.765808"/>
<feGaussianBlur stdDeviation="1.14871"/>
<feComposite in2="hardAlpha" operator="arithmetic" k2="-1" k3="1"/>
<feColorMatrix type="matrix" values="0 0 0 0 0.658824 0 0 0 0 0.623529 0 0 0 0 0.627451 0 0 0 1 0"/>
<feBlend mode="normal" in2="shape" result="effect1_innerShadow_1686_41442"/>
</filter>
<filter id="filter3_iii_1686_41442" x="10.8878" y="19.4414" width="66.195" height="65.5824" filterUnits="userSpaceOnUse" color-interpolation-filters="sRGB">
<feFlood flood-opacity="0" result="BackgroundImageFix"/>
<feBlend mode="normal" in="SourceGraphic" in2="BackgroundImageFix" result="shape"/>
<feColorMatrix in="SourceAlpha" type="matrix" values="0 0 0 0 0 0 0 0 0 0 0 0 0 0 0 0 0 0 127 0" result="hardAlpha"/>
<feOffset dy="0.612647"/>
<feGaussianBlur stdDeviation="0.382904"/>
<feComposite in2="hardAlpha" operator="arithmetic" k2="-1" k3="1"/>
<feColorMatrix type="matrix" values="0 0 0 0 0.0941176 0 0 0 0 0.509804 0 0 0 0 0.254902 0 0 0 1 0"/>
<feBlend mode="normal" in2="shape" result="effect1_innerShadow_1686_41442"/>
<feColorMatrix in="SourceAlpha" type="matrix" values="0 0 0 0 0 0 0 0 0 0 0 0 0 0 0 0 0 0 127 0" result="hardAlpha"/>
<feOffset dx="-0.612647"/>
<feGaussianBlur stdDeviation="0.382904"/>
<feComposite in2="hardAlpha" operator="arithmetic" k2="-1" k3="1"/>
<feColorMatrix type="matrix" values="0 0 0 0 0.0941176 0 0 0 0 0.509804 0 0 0 0 0.254902 0 0 0 1 0"/>
<feBlend mode="normal" in2="effect1_innerShadow_1686_41442" result="effect2_innerShadow_1686_41442"/>
<feColorMatrix in="SourceAlpha" type="matrix" values="0 0 0 0 0 0 0 0 0 0 0 0 0 0 0 0 0 0 127 0" result="hardAlpha"/>
<feOffset dx="0.612647"/>
<feGaussianBlur stdDeviation="0.382904"/>
<feComposite in2="hardAlpha" operator="arithmetic" k2="-1" k3="1"/>
<feColorMatrix type="matrix" values="0 0 0 0 0.172549 0 0 0 0 0.709804 0 0 0 0 0.4 0 0 0 1 0"/>
<feBlend mode="normal" in2="effect2_innerShadow_1686_41442" result="effect3_innerShadow_1686_41442"/>
</filter>
<filter id="filter4_f_1686_41442" x="23.0267" y="30.2142" width="39.4345" height="39.1742" filterUnits="userSpaceOnUse" color-interpolation-filters="sRGB">
<feFlood flood-opacity="0" result="BackgroundImageFix"/>
<feBlend mode="normal" in="SourceGraphic" in2="BackgroundImageFix" result="shape"/>
<feGaussianBlur stdDeviation="0.612647" result="effect1_foregroundBlur_1686_41442"/>
</filter>
<filter id="filter5_f_1686_41442" x="53.2679" y="24.9822" width="14.1366" height="14.4242" filterUnits="userSpaceOnUse" color-interpolation-filters="sRGB">
<feFlood flood-opacity="0" result="BackgroundImageFix"/>
<feBlend mode="normal" in="SourceGraphic" in2="BackgroundImageFix" result="shape"/>
<feGaussianBlur stdDeviation="0.382904" result="effect1_foregroundBlur_1686_41442"/>
</filter>
<filter id="filter6_dii_1686_41442" x="46.3128" y="53.7376" width="17.0633" height="17.0633" filterUnits="userSpaceOnUse" color-interpolation-filters="sRGB">
<feFlood flood-opacity="0" result="BackgroundImageFix"/>
<feColorMatrix in="SourceAlpha" type="matrix" values="0 0 0 0 0 0 0 0 0 0 0 0 0 0 0 0 0 0 127 0" result="hardAlpha"/>
<feOffset dx="-0.306323" dy="0.306323"/>
<feGaussianBlur stdDeviation="0.229742"/>
<feComposite in2="hardAlpha" operator="out"/>
<feColorMatrix type="matrix" values="0 0 0 0 0.0901961 0 0 0 0 0.521569 0 0 0 0 0.223529 0 0 0 1 0"/>
<feBlend mode="normal" in2="BackgroundImageFix" result="effect1_dropShadow_1686_41442"/>
<feBlend mode="normal" in="SourceGraphic" in2="effect1_dropShadow_1686_41442" result="shape"/>
<feColorMatrix in="SourceAlpha" type="matrix" values="0 0 0 0 0 0 0 0 0 0 0 0 0 0 0 0 0 0 127 0" result="hardAlpha"/>
<feOffset dx="0.306323" dy="-0.306323"/>
<feGaussianBlur stdDeviation="0.153162"/>
<feComposite in2="hardAlpha" operator="arithmetic" k2="-1" k3="1"/>
<feColorMatrix type="matrix" values="0 0 0 0 0.784314 0 0 0 0 0.760784 0 0 0 0 0.752941 0 0 0 1 0"/>
<feBlend mode="normal" in2="shape" result="effect2_innerShadow_1686_41442"/>
<feColorMatrix in="SourceAlpha" type="matrix" values="0 0 0 0 0 0 0 0 0 0 0 0 0 0 0 0 0 0 127 0" result="hardAlpha"/>
<feOffset dx="-0.306323" dy="0.306323"/>
<feGaussianBlur stdDeviation="0.153162"/>
<feComposite in2="hardAlpha" operator="arithmetic" k2="-1" k3="1"/>
<feColorMatrix type="matrix" values="0 0 0 0 1 0 0 0 0 0.996078 0 0 0 0 0.992157 0 0 0 1 0"/>
<feBlend mode="normal" in2="effect2_innerShadow_1686_41442" result="effect3_innerShadow_1686_41442"/>
</filter>
<filter id="filter7_ii_1686_41442" x="71.1938" y="27.7617" width="18.5303" height="6.37405" filterUnits="userSpaceOnUse" color-interpolation-filters="sRGB">
<feFlood flood-opacity="0" result="BackgroundImageFix"/>
<feBlend mode="normal" in="SourceGraphic" in2="BackgroundImageFix" result="shape"/>
<feColorMatrix in="SourceAlpha" type="matrix" values="0 0 0 0 0 0 0 0 0 0 0 0 0 0 0 0 0 0 127 0" result="hardAlpha"/>
<feOffset dx="0.91897" dy="-0.91897"/>
<feGaussianBlur stdDeviation="1.14871"/>
<feComposite in2="hardAlpha" operator="arithmetic" k2="-1" k3="1"/>
<feColorMatrix type="matrix" values="0 0 0 0 0.658824 0 0 0 0 0.631373 0 0 0 0 0.635294 0 0 0 1 0"/>
<feBlend mode="normal" in2="shape" result="effect1_innerShadow_1686_41442"/>
<feColorMatrix in="SourceAlpha" type="matrix" values="0 0 0 0 0 0 0 0 0 0 0 0 0 0 0 0 0 0 127 0" result="hardAlpha"/>
<feOffset dx="-0.91897" dy="-0.91897"/>
<feGaussianBlur stdDeviation="1.14871"/>
<feComposite in2="hardAlpha" operator="arithmetic" k2="-1" k3="1"/>
<feColorMatrix type="matrix" values="0 0 0 0 0.721569 0 0 0 0 0.682353 0 0 0 0 0.690196 0 0 0 1 0"/>
<feBlend mode="normal" in2="effect1_innerShadow_1686_41442" result="effect2_innerShadow_1686_41442"/>
</filter>
<filter id="filter8_ii_1686_41442" x="71.1938" y="33.2148" width="14.3062" height="6.37405" filterUnits="userSpaceOnUse" color-interpolation-filters="sRGB">
<feFlood flood-opacity="0" result="BackgroundImageFix"/>
<feBlend mode="normal" in="SourceGraphic" in2="BackgroundImageFix" result="shape"/>
<feColorMatrix in="SourceAlpha" type="matrix" values="0 0 0 0 0 0 0 0 0 0 0 0 0 0 0 0 0 0 127 0" result="hardAlpha"/>
<feOffset dx="0.91897" dy="-0.91897"/>
<feGaussianBlur stdDeviation="1.14871"/>
<feComposite in2="hardAlpha" operator="arithmetic" k2="-1" k3="1"/>
<feColorMatrix type="matrix" values="0 0 0 0 0.611765 0 0 0 0 0.603922 0 0 0 0 0.596078 0 0 0 1 0"/>
<feBlend mode="normal" in2="shape" result="effect1_innerShadow_1686_41442"/>
<feColorMatrix in="SourceAlpha" type="matrix" values="0 0 0 0 0 0 0 0 0 0 0 0 0 0 0 0 0 0 127 0" result="hardAlpha"/>
<feOffset dx="-0.91897" dy="-0.91897"/>
<feGaussianBlur stdDeviation="1.14871"/>
<feComposite in2="hardAlpha" operator="arithmetic" k2="-1" k3="1"/>
<feColorMatrix type="matrix" values="0 0 0 0 0.635294 0 0 0 0 0.611765 0 0 0 0 0.607843 0 0 0 1 0"/>
<feBlend mode="normal" in2="effect1_innerShadow_1686_41442" result="effect2_innerShadow_1686_41442"/>
</filter>
<filter id="filter9_ii_1686_41442" x="56.2267" y="22.8266" width="37.0165" height="16.7622" filterUnits="userSpaceOnUse" color-interpolation-filters="sRGB">
<feFlood flood-opacity="0" result="BackgroundImageFix"/>
<feBlend mode="normal" in="SourceGraphic" in2="BackgroundImageFix" result="shape"/>
<feColorMatrix in="SourceAlpha" type="matrix" values="0 0 0 0 0 0 0 0 0 0 0 0 0 0 0 0 0 0 127 0" result="hardAlpha"/>
<feOffset dx="0.459485" dy="-0.459485"/>
<feGaussianBlur stdDeviation="0.765808"/>
<feComposite in2="hardAlpha" operator="arithmetic" k2="-1" k3="1"/>
<feColorMatrix type="matrix" values="0 0 0 0 0.729412 0 0 0 0 0.678431 0 0 0 0 0.686275 0 0 0 1 0"/>
<feBlend mode="normal" in2="shape" result="effect1_innerShadow_1686_41442"/>
<feColorMatrix in="SourceAlpha" type="matrix" values="0 0 0 0 0 0 0 0 0 0 0 0 0 0 0 0 0 0 127 0" result="hardAlpha"/>
<feOffset dx="-1.53162"/>
<feGaussianBlur stdDeviation="1.14871"/>
<feComposite in2="hardAlpha" operator="arithmetic" k2="-1" k3="1"/>
<feColorMatrix type="matrix" values="0 0 0 0 0.964706 0 0 0 0 0.964706 0 0 0 0 0.956863 0 0 0 1 0"/>
<feBlend mode="normal" in2="effect1_innerShadow_1686_41442" result="effect2_innerShadow_1686_41442"/>
</filter>
<radialGradient id="paint0_radial_1686_41442" cx="0" cy="0" r="1" gradientUnits="userSpaceOnUse" gradientTransform="translate(23.7583 86.7938) rotate(-90) scale(23.8698 4.22313)">
<stop stop-color="#E3E1E1"/>
<stop offset="1" stop-color="#E3E1E1" stop-opacity="0"/>
</radialGradient>
<linearGradient id="paint1_linear_1686_41442" x1="119.461" y1="124.746" x2="60.2624" y2="124.746" gradientUnits="userSpaceOnUse">
<stop stop-color="#12724A"/>
<stop offset="1" stop-color="#116245"/>
</linearGradient>
<linearGradient id="paint2_linear_1686_41442" x1="123.742" y1="122.679" x2="117.468" y2="122.679" gradientUnits="userSpaceOnUse">
<stop stop-color="#1C8F60"/>
<stop offset="1" stop-color="#1C8F60" stop-opacity="0"/>
</linearGradient>
<linearGradient id="paint3_linear_1686_41442" x1="57.9741" y1="122.384" x2="64.4697" y2="122.384" gradientUnits="userSpaceOnUse">
<stop offset="0.556818" stop-color="#195840"/>
<stop offset="1" stop-color="#195840" stop-opacity="0"/>
</linearGradient>
<radialGradient id="paint4_radial_1686_41442" cx="0" cy="0" r="1" gradientUnits="userSpaceOnUse" gradientTransform="translate(88.5309 122.104) rotate(159.806) scale(12.5492 11.907)">
<stop offset="0.306788" stop-color="#0E593C"/>
<stop offset="1" stop-color="#0E593C" stop-opacity="0"/>
</radialGradient>
<radialGradient id="paint5_radial_1686_41442" cx="0" cy="0" r="1" gradientUnits="userSpaceOnUse" gradientTransform="translate(85.688 124.676) rotate(-176.751) scale(15.5256 3.29222)">
<stop offset="0.396008" stop-color="#0F4F35"/>
<stop offset="1" stop-color="#0F4F35" stop-opacity="0"/>
</radialGradient>
<radialGradient id="paint6_radial_1686_41442" cx="0" cy="0" r="1" gradientUnits="userSpaceOnUse" gradientTransform="translate(53.4111 92.1411) rotate(48.2593) scale(45.9008 60.1924)">
<stop stop-color="#31DE74"/>
<stop offset="1" stop-color="#20CF5E"/>
</radialGradient>
<linearGradient id="paint7_linear_1686_41442" x1="15.5133" y1="48.2468" x2="69.6909" y2="53.3619" gradientUnits="userSpaceOnUse">
<stop stop-color="#24A35B"/>
<stop offset="1" stop-color="#27A05A"/>
</linearGradient>
<linearGradient id="paint8_linear_1686_41442" x1="32.2785" y1="45.0523" x2="36.4859" y2="45.0523" gradientUnits="userSpaceOnUse">
<stop offset="0.22807" stop-color="#269553"/>
<stop offset="1" stop-color="#269553" stop-opacity="0"/>
</linearGradient>
<radialGradient id="paint9_radial_1686_41442" cx="0" cy="0" r="1" gradientUnits="userSpaceOnUse" gradientTransform="translate(35.8954 45.4213) rotate(-40.8023) scale(11.409 11.2139)">
<stop offset="0.587108" stop-color="#249755" stop-opacity="0"/>
<stop offset="0.986856" stop-color="#16793D"/>
</radialGradient>
<linearGradient id="paint10_linear_1686_41442" x1="35.4521" y1="72.6709" x2="35.4521" y2="113.564" gradientUnits="userSpaceOnUse">
<stop stop-color="#FFD425"/>
<stop offset="1" stop-color="#FFAD24"/>
</linearGradient>
<linearGradient id="paint11_linear_1686_41442" x1="37.9618" y1="120.429" x2="37.9618" y2="111.349" gradientUnits="userSpaceOnUse">
<stop offset="0.893939" stop-color="#CC8139"/>
<stop offset="1" stop-color="#CC8139" stop-opacity="0"/>
</linearGradient>
<linearGradient id="paint12_linear_1686_41442" x1="47.5156" y1="69.624" x2="62.6585" y2="54.4812" gradientUnits="userSpaceOnUse">
<stop stop-color="#EFEAEA"/>
<stop offset="1" stop-color="#EAE3E3"/>
</linearGradient>
</defs>
</svg>
