<svg width="44" height="31" viewBox="0 0 44 31" fill="none" xmlns="http://www.w3.org/2000/svg">
<path d="M22.4095 0.00195312V30.6783H3.63335C2.14054 30.6783 0.930359 29.4727 0.930359 27.9857V2.69454C0.930359 1.20748 2.14054 0.00195312 3.63335 0.00195312H22.4095Z" fill="url(#paint0_linear_6790_1667)"/>
<path d="M22.4095 0.00195312V30.6783H3.63335C2.14054 30.6783 0.930359 29.4727 0.930359 27.9857V2.69454C0.930359 1.20748 2.14054 0.00195312 3.63335 0.00195312H22.4095Z" fill="url(#paint1_linear_6790_1667)"/>
<path d="M22.4095 0.00195312V30.6783H3.63335C2.14054 30.6783 0.930359 29.4727 0.930359 27.9857V2.69454C0.930359 1.20748 2.14054 0.00195312 3.63335 0.00195312H22.4095Z" fill="url(#paint2_linear_6790_1667)"/>
<path d="M22.4095 0.00195312V30.6783H3.63335C2.14054 30.6783 0.930359 29.4727 0.930359 27.9857V2.69454C0.930359 1.20748 2.14054 0.00195312 3.63335 0.00195312H22.4095Z" fill="url(#paint3_radial_6790_1667)"/>
<path d="M22.4095 0.00195312V30.6783H3.63335C2.14054 30.6783 0.930359 29.4727 0.930359 27.9857V2.69454C0.930359 1.20748 2.14054 0.00195312 3.63335 0.00195312H22.4095Z" fill="url(#paint4_linear_6790_1667)"/>
<path d="M22.4095 0.00195312V30.6783H41.1856C42.6784 30.6783 43.8885 29.4727 43.8885 27.9857V2.69454C43.8885 1.20748 42.6784 0.00195312 41.1856 0.00195312H22.4095Z" fill="url(#paint5_linear_6790_1667)"/>
<path d="M22.4095 0.00195312V30.6783H41.1856C42.6784 30.6783 43.8885 29.4727 43.8885 27.9857V2.69454C43.8885 1.20748 42.6784 0.00195312 41.1856 0.00195312H22.4095Z" fill="url(#paint6_linear_6790_1667)"/>
<path d="M22.4095 0.00195312V30.6783H41.1856C42.6784 30.6783 43.8885 29.4727 43.8885 27.9857V2.69454C43.8885 1.20748 42.6784 0.00195312 41.1856 0.00195312H22.4095Z" fill="url(#paint7_linear_6790_1667)"/>
<path d="M22.4095 0.00195312V30.6783H41.1856C42.6784 30.6783 43.8885 29.4727 43.8885 27.9857V2.69454C43.8885 1.20748 42.6784 0.00195312 41.1856 0.00195312H22.4095Z" fill="url(#paint8_linear_6790_1667)"/>
<path d="M22.4095 0.00195312V30.6783H41.1856C42.6784 30.6783 43.8885 29.4727 43.8885 27.9857V2.69454C43.8885 1.20748 42.6784 0.00195312 41.1856 0.00195312H22.4095Z" fill="url(#paint9_linear_6790_1667)"/>
<path d="M0.930359 27.9851C0.930359 27.5814 1.1387 27.2063 1.48142 26.9929L22.0695 14.1734C22.27 14.0486 22.5247 14.0487 22.7251 14.1738L43.3816 27.071C43.6969 27.2679 43.8885 27.6134 43.8885 27.9851V27.9851C43.8885 29.4722 42.6784 30.6777 41.1856 30.6777H3.63335C2.14054 30.6777 0.930359 29.4722 0.930359 27.9851V27.9851Z" fill="url(#paint10_linear_6790_1667)"/>
<path d="M0.930359 27.9851C0.930359 27.5814 1.1387 27.2063 1.48142 26.9929L22.0695 14.1734C22.27 14.0486 22.5247 14.0487 22.7251 14.1738L43.3816 27.071C43.6969 27.2679 43.8885 27.6134 43.8885 27.9851V27.9851C43.8885 29.4722 42.6784 30.6777 41.1856 30.6777H3.63335C2.14054 30.6777 0.930359 29.4722 0.930359 27.9851V27.9851Z" fill="url(#paint11_linear_6790_1667)"/>
<path d="M0.930359 27.9851C0.930359 27.5814 1.1387 27.2063 1.48142 26.9929L22.0695 14.1734C22.27 14.0486 22.5247 14.0487 22.7251 14.1738L43.3816 27.071C43.6969 27.2679 43.8885 27.6134 43.8885 27.9851V27.9851C43.8885 29.4722 42.6784 30.6777 41.1856 30.6777H3.63335C2.14054 30.6777 0.930359 29.4722 0.930359 27.9851V27.9851Z" fill="url(#paint12_linear_6790_1667)"/>
<path d="M0.930359 2.69454C0.930359 3.09827 1.1387 3.47342 1.48142 3.68682L22.0695 16.5063C22.27 16.6311 22.5247 16.631 22.7251 16.5059L43.3816 3.60871C43.6969 3.41182 43.8885 3.06631 43.8885 2.69454V2.69454C43.8885 1.20748 42.6784 0.00195312 41.1856 0.00195312H3.63335C2.14054 0.00195312 0.930359 1.20748 0.930359 2.69454V2.69454Z" fill="url(#paint13_linear_6790_1667)"/>
<path d="M0.930359 2.69454C0.930359 3.09827 1.1387 3.47342 1.48142 3.68682L22.0695 16.5063C22.27 16.6311 22.5247 16.631 22.7251 16.5059L43.3816 3.60871C43.6969 3.41182 43.8885 3.06631 43.8885 2.69454V2.69454C43.8885 1.20748 42.6784 0.00195312 41.1856 0.00195312H3.63335C2.14054 0.00195312 0.930359 1.20748 0.930359 2.69454V2.69454Z" fill="url(#paint14_linear_6790_1667)"/>
<path d="M0.930359 2.69454C0.930359 3.09827 1.1387 3.47342 1.48142 3.68682L22.0695 16.5063C22.27 16.6311 22.5247 16.631 22.7251 16.5059L43.3816 3.60871C43.6969 3.41182 43.8885 3.06631 43.8885 2.69454V2.69454C43.8885 1.20748 42.6784 0.00195312 41.1856 0.00195312H3.63335C2.14054 0.00195312 0.930359 1.20748 0.930359 2.69454V2.69454Z" fill="url(#paint15_linear_6790_1667)"/>
<path d="M0.930359 2.69454C0.930359 3.09827 1.1387 3.47342 1.48142 3.68682L22.0695 16.5063C22.27 16.6311 22.5247 16.631 22.7251 16.5059L43.3816 3.60871C43.6969 3.41182 43.8885 3.06631 43.8885 2.69454V2.69454C43.8885 1.20748 42.6784 0.00195312 41.1856 0.00195312H3.63335C2.14054 0.00195312 0.930359 1.20748 0.930359 2.69454V2.69454Z" fill="url(#paint16_radial_6790_1667)"/>
<path d="M0.930359 2.69454C0.930359 3.09827 1.1387 3.47342 1.48142 3.68682L22.0695 16.5063C22.27 16.6311 22.5247 16.631 22.7251 16.5059L43.3816 3.60871C43.6969 3.41182 43.8885 3.06631 43.8885 2.69454V2.69454C43.8885 1.20748 42.6784 0.00195312 41.1856 0.00195312H3.63335C2.14054 0.00195312 0.930359 1.20748 0.930359 2.69454V2.69454Z" fill="url(#paint17_linear_6790_1667)"/>
<path d="M21.1448 27.0651C27.242 27.0651 32.1847 22.1414 32.1847 16.0677C32.1847 9.99401 27.242 5.07031 21.1448 5.07031C15.0477 5.07031 10.105 9.99401 10.105 16.0677C10.105 22.1414 15.0477 27.0651 21.1448 27.0651Z" fill="url(#paint18_radial_6790_1667)"/>
<path d="M22.3371 26.111C28.3083 26.111 33.149 21.289 33.149 15.3407C33.149 9.39237 28.3083 4.57031 22.3371 4.57031C16.3658 4.57031 11.5251 9.39237 11.5251 15.3407C11.5251 21.289 16.3658 26.111 22.3371 26.111Z" fill="url(#paint19_linear_6790_1667)"/>
<path d="M22.1303 8.86424C20.2614 8.83347 18.4851 9.54124 17.1568 10.8645C15.813 12.1723 15.0871 13.9263 15.0871 15.788C15.0871 19.6038 18.2071 22.7119 22.0376 22.7119C22.4392 22.7119 22.7636 22.3887 22.7636 21.9887C22.7636 21.5887 22.4392 21.2656 22.0376 21.2656C19.0103 21.2656 16.539 18.8038 16.539 15.788C16.539 14.311 17.1259 12.9262 18.1762 11.8953C19.2265 10.8645 20.6321 10.3106 22.1149 10.3106C25.0959 10.3567 27.5363 12.8493 27.5363 15.8804V17.1267C27.5363 17.6959 27.0729 18.1575 26.5014 18.1575C25.9299 18.1575 25.4666 17.6959 25.4666 17.1267V12.3877C25.4666 11.9876 25.1422 11.6645 24.7406 11.6645C24.339 11.6645 23.9838 11.9876 23.9838 12.3877V12.5262C23.3042 11.9876 22.4547 11.6492 21.5125 11.6492C19.3501 11.6492 17.5893 13.4032 17.5893 15.5573C17.5893 17.7113 19.3501 19.4654 21.5125 19.4654C22.5937 19.4654 23.5822 19.0192 24.2927 18.3114C24.7252 19.0807 25.5438 19.6038 26.486 19.6038C27.8606 19.6038 28.9882 18.4806 28.9882 17.1113V15.865C28.9882 12.0646 25.9145 8.9104 22.1303 8.86424ZM21.5279 18.0344C20.1687 18.0344 19.0566 16.9266 19.0566 15.5726C19.0566 14.2187 20.1687 13.1108 21.5279 13.1108C22.8871 13.1108 23.9992 14.2187 23.9992 15.5726C23.9992 16.9266 22.8871 18.0344 21.5279 18.0344Z" fill="#2A5EC7"/>
<path d="M22.337 8.41698C20.468 8.38621 18.6918 9.09397 17.3635 10.4172C16.0197 11.725 15.2937 13.479 15.2937 15.3408C15.2937 19.1566 18.4138 22.2646 22.2443 22.2646C22.6459 22.2646 22.9702 21.9415 22.9702 21.5414C22.9702 21.1414 22.6459 20.8183 22.2443 20.8183C19.2169 20.8183 16.7456 18.3565 16.7456 15.3408C16.7456 13.8637 17.3326 12.4789 18.3829 11.4481C19.4332 10.4172 20.8387 9.86328 22.3215 9.86328C25.3025 9.90944 27.7429 12.402 27.7429 15.4331V16.6794C27.7429 17.2487 27.2796 17.7103 26.7081 17.7103C26.1366 17.7103 25.6732 17.2487 25.6732 16.6794V11.9404C25.6732 11.5404 25.3489 11.2173 24.9473 11.2173C24.5457 11.2173 24.1904 11.5404 24.1904 11.9404V12.0789C23.5108 11.5404 22.6613 11.2019 21.7191 11.2019C19.5567 11.2019 17.7959 12.9559 17.7959 15.11C17.7959 17.2641 19.5567 19.0181 21.7191 19.0181C22.8003 19.0181 23.7889 18.5719 24.4993 17.8641C24.9318 18.6334 25.7504 19.1566 26.6926 19.1566C28.0673 19.1566 29.1948 18.0334 29.1948 16.664V15.4177C29.1948 11.6173 26.1211 8.46314 22.337 8.41698ZM21.7346 17.5872C20.3754 17.5872 19.2633 16.4794 19.2633 15.1254C19.2633 13.7714 20.3754 12.6636 21.7346 12.6636C23.0938 12.6636 24.2059 13.7714 24.2059 15.1254C24.2059 16.4794 23.0938 17.5872 21.7346 17.5872Z" fill="url(#paint20_linear_6790_1667)"/>
<defs>
<linearGradient id="paint0_linear_6790_1667" x1="2.47492" y1="17.1191" x2="43.4187" y2="17.567" gradientUnits="userSpaceOnUse">
<stop stop-color="#D5D3FF"/>
<stop offset="1" stop-color="#F4F3FF"/>
</linearGradient>
<linearGradient id="paint1_linear_6790_1667" x1="0.930359" y1="17.0249" x2="3.27671" y2="17.0249" gradientUnits="userSpaceOnUse">
<stop stop-color="#B0ADED"/>
<stop offset="1" stop-color="#D5D3FF" stop-opacity="0"/>
</linearGradient>
<linearGradient id="paint2_linear_6790_1667" x1="14.4355" y1="19.9147" x2="13.2651" y2="18.084" gradientUnits="userSpaceOnUse">
<stop offset="0.113759" stop-color="#D5D3FF"/>
<stop offset="1" stop-color="#D5D3FF" stop-opacity="0"/>
</linearGradient>
<radialGradient id="paint3_radial_6790_1667" cx="0" cy="0" r="1" gradientUnits="userSpaceOnUse" gradientTransform="translate(16.4222 11.3099) rotate(123.792) scale(4.19808 29.527)">
<stop offset="0.342267" stop-color="#D5D3FF"/>
<stop offset="1" stop-color="#D5D3FF" stop-opacity="0"/>
</radialGradient>
<linearGradient id="paint4_linear_6790_1667" x1="0.930359" y1="17.0249" x2="5.44267" y2="17.0249" gradientUnits="userSpaceOnUse">
<stop stop-color="#B6B3F8"/>
<stop offset="1" stop-color="#D5D3FF" stop-opacity="0"/>
</linearGradient>
<linearGradient id="paint5_linear_6790_1667" x1="43.8885" y1="17.1191" x2="3.76034" y2="17.558" gradientUnits="userSpaceOnUse">
<stop stop-color="#E9E8FF"/>
<stop offset="1" stop-color="#D5D3FF"/>
</linearGradient>
<linearGradient id="paint6_linear_6790_1667" x1="30.2771" y1="20.3887" x2="31.5527" y2="18.084" gradientUnits="userSpaceOnUse">
<stop offset="0.113759" stop-color="#E7E5FF"/>
<stop offset="1" stop-color="#EEEDFF" stop-opacity="0"/>
</linearGradient>
<linearGradient id="paint7_linear_6790_1667" x1="28.829" y1="12.1667" x2="30.462" y2="14.3845" gradientUnits="userSpaceOnUse">
<stop stop-color="#D5D3FF"/>
<stop offset="1" stop-color="#D5D3FF" stop-opacity="0"/>
</linearGradient>
<linearGradient id="paint8_linear_6790_1667" x1="44.1782" y1="20.8215" x2="38.4343" y2="20.8215" gradientUnits="userSpaceOnUse">
<stop stop-color="#D5D3FF"/>
<stop offset="0.0001" stop-color="#E7E6FF" stop-opacity="0.963542"/>
<stop offset="1" stop-color="#FBFAFF" stop-opacity="0"/>
</linearGradient>
<linearGradient id="paint9_linear_6790_1667" x1="44.1782" y1="20.8215" x2="42.2856" y2="20.8215" gradientUnits="userSpaceOnUse">
<stop offset="0.199295" stop-color="#E9E8FF"/>
<stop offset="1" stop-color="#D5D3FF" stop-opacity="0"/>
</linearGradient>
<linearGradient id="paint10_linear_6790_1667" x1="22.4095" y1="33.3703" x2="22.4095" y2="16.734" gradientUnits="userSpaceOnUse">
<stop stop-color="#CAC8FF"/>
<stop offset="0.134858" stop-color="#A29EFF"/>
<stop offset="0.334795" stop-color="#CAC8FF"/>
<stop offset="0.681745" stop-color="#DFDEFF"/>
</linearGradient>
<linearGradient id="paint11_linear_6790_1667" x1="9.25918" y1="21.6578" x2="9.96025" y2="22.7135" gradientUnits="userSpaceOnUse">
<stop offset="0.0734082" stop-color="#9B97E5"/>
<stop offset="1" stop-color="#D5D3FF" stop-opacity="0"/>
</linearGradient>
<linearGradient id="paint12_linear_6790_1667" x1="32.5739" y1="20.1994" x2="32.1333" y2="20.8894" gradientUnits="userSpaceOnUse">
<stop offset="0.139796" stop-color="#F8F3FD"/>
<stop offset="1" stop-color="#F1EAF9" stop-opacity="0"/>
</linearGradient>
<linearGradient id="paint13_linear_6790_1667" x1="22.4095" y1="0.00195312" x2="22.4095" y2="16.5998" gradientUnits="userSpaceOnUse">
<stop stop-color="#E6E5FF"/>
<stop offset="1" stop-color="#D5D3FF"/>
</linearGradient>
<linearGradient id="paint14_linear_6790_1667" x1="12.8481" y1="10.5364" x2="18.3984" y2="0.540192" gradientUnits="userSpaceOnUse">
<stop stop-color="#E1DFFF"/>
<stop offset="1" stop-color="#D5D3FF" stop-opacity="0"/>
</linearGradient>
<linearGradient id="paint15_linear_6790_1667" x1="0.930359" y1="2.52128" x2="5.45886" y2="2.52128" gradientUnits="userSpaceOnUse">
<stop stop-color="#B9B6ED"/>
<stop offset="1" stop-color="#D5D3FF" stop-opacity="0"/>
</linearGradient>
<radialGradient id="paint16_radial_6790_1667" cx="0" cy="0" r="1" gradientUnits="userSpaceOnUse" gradientTransform="translate(40.1064 6.28349) rotate(-138.343) scale(9.45058 41.8571)">
<stop stop-color="#FBF9FE"/>
<stop offset="1" stop-color="#F0ECF1" stop-opacity="0"/>
</radialGradient>
<linearGradient id="paint17_linear_6790_1667" x1="11.1651" y1="11.2031" x2="21.3174" y2="-5.41191" gradientUnits="userSpaceOnUse">
<stop offset="0.0364583" stop-color="#D5D3FF"/>
<stop offset="0.102908" stop-color="#D5D3FF" stop-opacity="0"/>
</linearGradient>
<radialGradient id="paint18_radial_6790_1667" cx="0" cy="0" r="1" gradientUnits="userSpaceOnUse" gradientTransform="translate(21.5455 15.8852) rotate(135.884) scale(11.3644 11.3632)">
<stop offset="0.912987" stop-color="#ABA8E9"/>
<stop offset="1" stop-color="#D5D3FF" stop-opacity="0"/>
</radialGradient>
<linearGradient id="paint19_linear_6790_1667" x1="32.3526" y1="12.6962" x2="14.2206" y2="19.3767" gradientUnits="userSpaceOnUse">
<stop stop-color="#726CED"/>
<stop offset="1" stop-color="#726CED"/>
</linearGradient>
<linearGradient id="paint20_linear_6790_1667" x1="26.9809" y1="8.41602" x2="19.3577" y2="23.735" gradientUnits="userSpaceOnUse">
<stop stop-color="#E6E0ED"/>
<stop offset="1" stop-color="#D7C4EA"/>
</linearGradient>
</defs>
</svg>
