<svg width="35" height="35" viewBox="0 0 35 35" fill="none" xmlns="http://www.w3.org/2000/svg">
<path  d="M11.3162 11.3434C11.5189 11.1413 11.7937 11.0279 12.0802 11.0279C12.3667 11.0279 12.6415 11.1413 12.8442 11.3434L17.486 15.9752L22.1278 11.3434C22.2269 11.2374 22.3462 11.1524 22.4788 11.0934C22.6115 11.0344 22.7546 11.0027 22.8998 11.0002C23.0449 10.9976 23.1891 11.0243 23.3237 11.0785C23.4584 11.1328 23.5806 11.2135 23.6833 11.316C23.786 11.4184 23.8669 11.5405 23.9213 11.6748C23.9756 11.8091 24.0024 11.953 23.9998 12.0979C23.9972 12.2427 23.9655 12.3856 23.9064 12.5179C23.8473 12.6503 23.7621 12.7694 23.6559 12.8681L19.0141 17.5L23.6559 22.1318C23.7621 22.2307 23.8473 22.3498 23.9064 22.4821C23.9655 22.6144 23.9972 22.7573 23.9998 22.9021C24.0024 23.047 23.9756 23.1908 23.9213 23.3252C23.8669 23.4595 23.786 23.5815 23.6833 23.6839C23.5806 23.7865 23.4584 23.8672 23.3237 23.9214C23.1891 23.9757 23.0449 24.0024 22.8998 23.9998C22.7546 23.9972 22.6115 23.9656 22.4788 23.9066C22.3462 23.8476 22.2269 23.7626 22.1278 23.6566L17.486 19.0248L12.8442 23.6566C12.6393 23.8472 12.3682 23.9509 12.0881 23.946C11.808 23.941 11.5408 23.8278 11.3427 23.6301C11.1446 23.4325 11.0311 23.1658 11.0262 22.8863C11.0212 22.6068 11.1252 22.3364 11.3162 22.1318L15.958 17.5L11.3162 12.8681C11.1137 12.6659 11 12.3917 11 12.1058C11 11.8199 11.1137 11.5457 11.3162 11.3434Z" fill="#E9ECFF"/>
</svg>
