<svg width="13" height="14" viewBox="0 0 13 14" fill="none" xmlns="http://www.w3.org/2000/svg">
<path d="M6.71165 5.6737L6.77378 5.7357L6.83592 5.6737L11.2331 1.28598L11.2331 1.28601L11.2352 1.28376C11.321 1.19197 11.4243 1.11835 11.5392 1.06729C11.654 1.01622 11.778 0.988764 11.9037 0.986546C12.0295 0.984329 12.1543 1.00741 12.2709 1.05441C12.3875 1.10139 12.4934 1.17132 12.5822 1.26002L12.5823 1.26007C12.6712 1.34874 12.7412 1.45437 12.7883 1.57066C12.8354 1.68699 12.8586 1.81155 12.8563 1.93687C12.8541 2.0623 12.8266 2.18596 12.7755 2.3005C12.7243 2.41506 12.6505 2.51818 12.5585 2.60369L12.5585 2.60365L12.5563 2.60585L8.15916 6.99357L8.09676 7.05584L8.15916 7.1181L12.5563 11.5058L12.5563 11.5059L12.5585 11.508C12.6505 11.5935 12.7243 11.6967 12.7755 11.8112C12.8266 11.9258 12.8541 12.0494 12.8563 12.1748C12.8586 12.3001 12.8354 12.4247 12.7883 12.541C12.7412 12.6573 12.6713 12.7629 12.5823 12.8515L12.5822 12.8516C12.4934 12.9404 12.3875 13.0103 12.2709 13.0572C12.1543 13.1042 12.0294 13.1274 11.9038 13.1251C11.778 13.1229 11.654 13.0955 11.5392 13.0444C11.4243 12.9933 11.321 12.9197 11.2352 12.8279L11.2352 12.8279L11.2331 12.8257L6.83592 8.43798L6.77378 8.37598L6.71165 8.43798L2.31562 12.8246C2.13829 12.989 1.904 13.0784 1.66189 13.0742C1.41928 13.0698 1.18786 12.9717 1.01635 12.8006C0.844846 12.6295 0.746636 12.3986 0.742356 12.1567C0.738086 11.9153 0.827691 11.6817 0.992392 11.5047L5.38841 7.1181L5.45081 7.05584L5.38841 6.99357L0.991303 2.60589C0.816003 2.43075 0.717571 2.19337 0.717571 1.94591C0.717571 1.69846 0.816002 1.46109 0.991305 1.28594L0.929142 1.22372L0.991228 1.28601C1.16675 1.11108 1.40473 1.01279 1.65289 1.01279C1.90104 1.01279 2.13901 1.11108 2.31455 1.28602L6.71165 5.6737Z" fill="#24292E" stroke="#E9ECFF" stroke-width="0.175926"/>
</svg>
