<svg width="8" height="7" viewBox="0 0 8 7" fill="none" xmlns="http://www.w3.org/2000/svg">
<path d="M5.73375 6.8184L5.73375 5.08355C5.73292 4.86882 5.74356 4.65423 5.76561 4.44095C5.78589 4.25237 5.81051 4.08068 5.83948 3.92589C5.86845 3.77055 5.89887 3.62503 5.93363 3.48932C5.96839 3.3536 5.99736 3.21625 6.02343 3.07563L5.72651 2.98734C5.64942 3.34908 5.53821 3.70044 5.39482 4.03544C5.23163 4.43441 5.05589 4.88079 4.8676 5.37459L4.48666 6.36874L3.19034 6.36874L2.80795 5.37459C2.62062 4.88079 2.44537 4.43441 2.28218 4.03544C2.13814 3.70075 2.02692 3.3493 1.95049 2.98734L1.65357 3.07563C1.67964 3.21625 1.71005 3.35524 1.74337 3.48932C1.77668 3.6234 1.80855 3.77055 1.83752 3.92589C1.86649 4.08122 1.89111 4.25292 1.91138 4.44095C1.93344 4.65423 1.94408 4.86882 1.94325 5.08355L1.94325 6.8184L0.545532 6.8184L0.545532 0.212553L2.02726 0.212553L3.35401 2.96935C3.49283 3.23965 3.59073 3.53419 3.64369 3.84086C3.67414 4.05342 3.69108 4.26817 3.69438 4.48346V4.69276H4.00579V4.48019C4.00909 4.2649 4.02603 4.05016 4.05648 3.8376C4.10944 3.53093 4.20734 3.23638 4.34617 2.96608L5.67292 0.20929L7.15464 0.20929L7.15464 6.8184H5.73375Z" fill="#726CED"/>
</svg>
