<svg width="26" height="16" viewBox="0 0 26 16" fill="none" xmlns="http://www.w3.org/2000/svg">
<path d="M2.97269 1.06667L3.08649 1.16716L10.6879 8.76762L14.6655 4.79097C15.1009 4.35552 15.7861 4.32203 16.26 4.69048L16.3738 4.79097L21.5593 9.97556L23.1211 8.41477C23.8489 7.6869 25.071 8.14835 25.1759 9.13165L25.1831 9.26891L25.181 14.1724L25.1702 14.2782L25.14 14.4218L25.1108 14.5134L25.07 14.6119L25.0068 14.7296L24.9259 14.846L24.8293 14.9548C24.7866 14.9976 24.7414 15.0364 24.6943 15.0714L24.5599 15.158L24.4237 15.2226L24.2965 15.2653L24.1545 15.2953L24.083 15.3038L23.9752 15.3086H19.1435C18.1141 15.3086 17.5762 14.1182 18.1974 13.3487L18.2893 13.2465L19.8501 11.6848L15.5196 7.35433L11.542 11.331C11.1066 11.7664 10.4214 11.7999 9.94756 11.4315L9.83376 11.331L1.37821 2.87544C0.906482 2.40371 0.906482 1.63889 1.37821 1.16716C1.81365 0.731716 2.49883 0.69822 2.97269 1.06667Z" fill="black" stroke="#D6DBF5" stroke-width="0.640206"/>
</svg>
