<svg width="17.913071" height="10.300003" viewBox="0 0 17.9131 10.3" fill="none" xmlns="http://www.w3.org/2000/svg" xmlns:xlink="http://www.w3.org/1999/xlink">
	<desc>
			Created with Pixso.
	</desc>
	<defs/>
	<path id="Vector" d="M17.51 0.39C18.04 0.91 18.04 1.76 17.51 2.29L9.9 9.9C9.38 10.43 8.53 10.43 8 9.9L0.39 2.29C-0.14 1.76 -0.14 0.91 0.39 0.39C0.91 -0.14 1.76 -0.14 2.29 0.39L8.95 7.05L15.61 0.39C16.14 -0.14 16.99 -0.14 17.51 0.39Z" fill="#000000" fill-opacity="1.000000" fill-rule="evenodd"/>
	<path id="Vector" d="M8.72 6.82L2.29 0.39C1.76 -0.14 0.91 -0.14 0.39 0.39C-0.14 0.91 -0.14 1.76 0.39 2.29L8 9.9C8.53 10.43 9.38 10.43 9.9 9.9L17.51 2.29C18.04 1.76 18.04 0.91 17.51 0.39C16.99 -0.14 16.14 -0.14 15.61 0.39L9.18 6.82L8.95 7.05L8.72 6.82ZM17.43 1.88Q17.37 1.97 17.28 2.06L9.67 9.67Q9.59 9.75 9.49 9.81Q9.42 9.86 9.33 9.89Q9.25 9.93 9.16 9.95Q9.06 9.97 8.95 9.97Q8.84 9.97 8.74 9.95Q8.65 9.93 8.57 9.89Q8.49 9.86 8.41 9.81Q8.32 9.75 8.23 9.67L0.62 2.06Q0.54 1.97 0.48 1.88Q0.43 1.8 0.4 1.72Q0.36 1.64 0.34 1.55Q0.32 1.45 0.32 1.34Q0.32 1.23 0.34 1.13Q0.36 1.04 0.4 0.96Q0.43 0.87 0.48 0.8Q0.54 0.7 0.62 0.62Q0.7 0.54 0.8 0.48Q0.87 0.43 0.96 0.4Q1.04 0.36 1.13 0.34Q1.23 0.32 1.34 0.32Q1.45 0.32 1.55 0.34Q1.64 0.36 1.72 0.4Q1.8 0.43 1.88 0.48Q1.97 0.54 2.06 0.62L8.95 7.51L15.85 0.62Q15.93 0.54 16.03 0.48Q16.1 0.43 16.18 0.4Q16.27 0.36 16.35 0.34Q16.46 0.32 16.56 0.32Q16.67 0.32 16.78 0.34Q16.86 0.36 16.95 0.4Q17.03 0.43 17.1 0.48Q17.2 0.54 17.28 0.62Q17.37 0.7 17.43 0.8Q17.47 0.87 17.51 0.96Q17.54 1.04 17.56 1.13Q17.58 1.23 17.58 1.34Q17.58 1.45 17.56 1.55Q17.54 1.64 17.51 1.72Q17.47 1.8 17.43 1.88Z" fill="#FFFFFF" fill-opacity="1.000000" fill-rule="evenodd"/>
</svg>
