<svg width="26.000000" height="26.000000" viewBox="0 0 26 26" fill="none" xmlns="http://www.w3.org/2000/svg" xmlns:xlink="http://www.w3.org/1999/xlink">
	<desc>
			Created with Pixso.
	</desc>
	<defs>
		<clipPath id="clip14_48892">
			<rect id="sign-in" rx="-0.812500" width="24.375000" height="24.375000" transform="translate(0.812500 0.812500)" fill="white" fill-opacity="0"/>
		</clipPath>
	</defs>
	<rect id="sign-in" rx="-0.812500" width="24.375000" height="24.375000" transform="translate(0.812500 0.812500)" fill="#FFFFFF" fill-opacity="0"/>
	<g clip-path="url(#clip14_48892)">
		<path id="Vector" d="M3.25 4.46C3.25 2.89 4.52 1.62 6.09 1.62L10.15 1.62C10.82 1.62 11.37 2.17 11.37 2.84C11.37 3.51 10.82 4.06 10.15 4.06L6.09 4.06C5.86 4.06 5.68 4.24 5.68 4.46L5.68 21.53C5.68 21.75 5.86 21.93 6.09 21.93L10.15 21.93C10.82 21.93 11.37 22.48 11.37 23.15C11.37 23.82 10.82 24.37 10.15 24.37L6.09 24.37C4.52 24.37 3.25 23.1 3.25 21.53L3.25 4.46ZM13.91 11.78L17.11 8.58C17.58 8.1 17.58 7.33 17.11 6.85C16.63 6.38 15.86 6.38 15.38 6.85L10.1 12.13C9.63 12.61 9.63 13.38 10.1 13.86L15.38 19.14C15.86 19.61 16.63 19.61 17.11 19.14C17.58 18.66 17.58 17.89 17.11 17.41L13.91 14.21L23.15 14.21C23.82 14.21 24.37 13.67 24.37 13C24.37 12.32 23.82 11.78 23.15 11.78L13.91 11.78Z" fill="#000000" fill-opacity="1.000000" fill-rule="evenodd"/>
		<path id="Vector" d="M3.25 4.46C3.25 2.89 4.52 1.62 6.09 1.62L10.15 1.62C10.82 1.62 11.37 2.17 11.37 2.84C11.37 3.51 10.82 4.06 10.15 4.06L6.09 4.06C5.86 4.06 5.68 4.24 5.68 4.46L5.68 21.53C5.68 21.75 5.86 21.93 6.09 21.93L10.15 21.93C10.82 21.93 11.37 22.48 11.37 23.15C11.37 23.82 10.82 24.37 10.15 24.37L6.09 24.37C4.52 24.37 3.25 23.1 3.25 21.53L3.25 4.46ZM5.5 1.88C5.69 1.84 5.89 1.82 6.09 1.82L10.15 1.82C10.23 1.82 10.31 1.83 10.38 1.85C10.44 1.86 10.49 1.88 10.55 1.9C10.6 1.92 10.66 1.95 10.71 1.99C10.77 2.02 10.82 2.07 10.87 2.12C10.92 2.17 10.97 2.22 11 2.28C11.04 2.33 11.07 2.39 11.09 2.44C11.11 2.5 11.13 2.55 11.14 2.61C11.16 2.68 11.17 2.76 11.17 2.84C11.17 2.92 11.16 2.99 11.14 3.07C11.13 3.12 11.11 3.18 11.09 3.24C11.07 3.29 11.04 3.35 11 3.4C10.97 3.45 10.92 3.51 10.87 3.56C10.82 3.61 10.77 3.65 10.71 3.69C10.66 3.73 10.6 3.75 10.55 3.78C10.49 3.8 10.44 3.82 10.38 3.83C10.31 3.85 10.23 3.86 10.15 3.86L6.09 3.86C6.01 3.86 5.93 3.87 5.86 3.9C5.78 3.93 5.72 3.98 5.66 4.04C5.6 4.09 5.56 4.16 5.53 4.23C5.5 4.3 5.48 4.38 5.48 4.46L5.48 21.53C5.48 21.61 5.5 21.69 5.53 21.76C5.56 21.83 5.6 21.9 5.66 21.96C5.72 22.01 5.78 22.06 5.86 22.09C5.93 22.12 6.01 22.13 6.09 22.13L10.15 22.13C10.23 22.13 10.31 22.14 10.38 22.16C10.44 22.17 10.49 22.19 10.55 22.21C10.6 22.24 10.66 22.26 10.71 22.3C10.77 22.34 10.82 22.38 10.87 22.43C10.92 22.48 10.97 22.54 11 22.59C11.04 22.64 11.07 22.7 11.09 22.75C11.11 22.81 11.13 22.87 11.14 22.92C11.16 23 11.17 23.07 11.17 23.15C11.17 23.23 11.16 23.31 11.14 23.38C11.13 23.44 11.11 23.49 11.09 23.55C11.07 23.6 11.04 23.66 11 23.71C10.97 23.77 10.92 23.82 10.87 23.87C10.82 23.92 10.77 23.97 10.71 24C10.66 24.04 10.6 24.07 10.55 24.09C10.49 24.11 10.44 24.13 10.38 24.14C10.31 24.16 10.23 24.17 10.15 24.17L6.09 24.17C5.89 24.17 5.69 24.15 5.5 24.11C5.35 24.07 5.2 24.02 5.06 23.96C4.91 23.9 4.77 23.83 4.64 23.74C4.49 23.64 4.35 23.53 4.22 23.4C4.09 23.27 3.97 23.13 3.88 22.97C3.79 22.84 3.72 22.7 3.65 22.56C3.59 22.41 3.54 22.26 3.51 22.11C3.47 21.92 3.44 21.73 3.44 21.53L3.44 4.46C3.44 4.26 3.47 4.07 3.51 3.88C3.54 3.73 3.59 3.58 3.65 3.43C3.72 3.29 3.79 3.15 3.88 3.02C3.97 2.86 4.09 2.72 4.22 2.59C4.35 2.46 4.49 2.35 4.64 2.25C4.77 2.16 4.91 2.09 5.06 2.03C5.2 1.97 5.35 1.92 5.5 1.88ZM14.11 11.58L17.11 8.58C17.58 8.1 17.58 7.33 17.11 6.85C16.63 6.38 15.86 6.38 15.38 6.85L10.1 12.13C9.63 12.61 9.63 13.38 10.1 13.86L15.38 19.14C15.86 19.61 16.63 19.61 17.11 19.14C17.58 18.66 17.58 17.89 17.11 17.41L14.11 14.41L13.91 14.21L23.15 14.21C23.82 14.21 24.37 13.67 24.37 13C24.37 12.32 23.82 11.78 23.15 11.78L13.91 11.78L14.11 11.58ZM17.11 8.25C17.07 8.32 17.02 8.38 16.97 8.43L13.42 11.98L23.15 11.98C23.23 11.98 23.31 11.98 23.38 12C23.44 12.01 23.49 12.03 23.55 12.06C23.6 12.08 23.66 12.11 23.71 12.14C23.77 12.18 23.82 12.22 23.87 12.27C23.92 12.33 23.97 12.38 24 12.44C24.04 12.49 24.07 12.54 24.09 12.6C24.11 12.65 24.13 12.71 24.14 12.77C24.16 12.84 24.17 12.92 24.17 13C24.17 13.07 24.16 13.15 24.14 13.22C24.13 13.28 24.11 13.34 24.09 13.39C24.07 13.45 24.04 13.5 24 13.55C23.97 13.61 23.92 13.66 23.87 13.72C23.82 13.77 23.77 13.81 23.71 13.85C23.66 13.88 23.6 13.91 23.55 13.93C23.49 13.96 23.44 13.98 23.38 13.99C23.31 14.01 23.23 14.01 23.15 14.01L13.42 14.01L16.97 17.56C17.02 17.61 17.07 17.67 17.11 17.74C17.14 17.79 17.17 17.84 17.19 17.89C17.21 17.95 17.23 18.01 17.24 18.07C17.26 18.14 17.26 18.2 17.26 18.28C17.26 18.35 17.26 18.42 17.24 18.49C17.23 18.54 17.21 18.6 17.19 18.66C17.17 18.71 17.14 18.77 17.11 18.82C17.07 18.88 17.02 18.94 16.97 19C16.91 19.05 16.85 19.1 16.79 19.14C16.74 19.17 16.68 19.2 16.63 19.22C16.57 19.24 16.51 19.26 16.45 19.27C16.39 19.29 16.32 19.29 16.25 19.29C16.17 19.29 16.1 19.29 16.04 19.27C15.98 19.26 15.92 19.24 15.86 19.22C15.81 19.2 15.75 19.17 15.7 19.14C15.64 19.1 15.58 19.05 15.52 19L10.24 13.72C10.19 13.66 10.14 13.6 10.1 13.54C10.07 13.49 10.04 13.43 10.02 13.38C10 13.32 9.98 13.26 9.97 13.2C9.95 13.14 9.94 13.07 9.94 13C9.94 12.92 9.95 12.85 9.97 12.79C9.98 12.73 10 12.67 10.02 12.61C10.04 12.56 10.07 12.5 10.1 12.45C10.14 12.39 10.19 12.33 10.24 12.27L15.52 6.99C15.58 6.94 15.64 6.89 15.7 6.85C15.75 6.82 15.81 6.79 15.86 6.77C15.92 6.75 15.98 6.73 16.04 6.72C16.1 6.7 16.17 6.69 16.25 6.69C16.32 6.69 16.39 6.7 16.45 6.72C16.51 6.73 16.57 6.75 16.63 6.77C16.68 6.79 16.74 6.82 16.79 6.85C16.85 6.89 16.91 6.94 16.97 6.99C17.02 7.05 17.07 7.11 17.11 7.17C17.14 7.22 17.17 7.28 17.19 7.33C17.21 7.39 17.23 7.44 17.24 7.5C17.26 7.57 17.26 7.64 17.26 7.71C17.26 7.79 17.26 7.86 17.24 7.92C17.23 7.98 17.21 8.04 17.19 8.1C17.17 8.15 17.14 8.2 17.11 8.25Z" fill="#D6DBF5" fill-opacity="1.000000" fill-rule="evenodd"/>
	</g>
</svg>
