<svg width="15" height="17" viewBox="0 0 15 17" fill="none" xmlns="http://www.w3.org/2000/svg">
<path d="M2.08667 1.08948H4.948C5.36697 1.08971 5.70679 1.42924 5.70679 1.84827C5.70665 2.26718 5.36689 2.60683 4.948 2.60706H2.08667C1.87424 2.60727 1.70212 2.77939 1.7019 2.99182V15.0065C1.70198 15.2191 1.87416 15.391 2.08667 15.3912H4.948C5.36697 15.3915 5.70679 15.732 5.70679 16.151C5.70653 16.5698 5.36682 16.9096 4.948 16.9098H2.08667C1.0358 16.9096 0.1844 16.0574 0.184326 15.0065V2.99182C0.184542 1.94103 1.03588 1.08969 2.08667 1.08948ZM9.84546 4.74377C10.1418 4.44748 10.6223 4.4477 10.9187 4.74377L14.6375 8.46252C14.9339 8.75892 14.9339 9.23937 14.6375 9.53577L10.9187 13.2545C10.6223 13.5507 10.1418 13.5509 9.84546 13.2545C9.54936 12.9582 9.54934 12.4776 9.84546 12.1813L12.2683 9.75842H5.51929C5.10042 9.7582 4.76069 9.41852 4.7605 8.99963C4.7605 8.5806 5.1003 8.24009 5.51929 8.23987H12.2683L9.84546 5.81702C9.54945 5.52063 9.54929 5.04007 9.84546 4.74377Z" fill="black" stroke="#E9ECFF" stroke-width="0.198329"/>
</svg>
