<svg width="26" height="21" viewBox="0 0 26 21" fill="none" xmlns="http://www.w3.org/2000/svg">
<path fill-rule="evenodd" clip-rule="evenodd" d="M0.98385 0.654459C1.35818 0.0944526 2.08069 -0.0307721 2.59763 0.374748L24.9397 17.9016C25.4566 18.307 25.5723 19.0897 25.1979 19.6497C24.8236 20.2098 24.1011 20.3351 23.5842 19.9295L20.1193 17.2115C18.246 18.8135 15.8523 20.1675 13.0909 20.1675C10.0379 20.1675 7.43476 18.5122 5.48936 16.6996C3.53335 14.8773 2.12083 12.7844 1.4262 11.6523C0.867128 10.7411 0.865387 9.56608 1.42555 8.65305C1.97111 7.7638 2.95905 6.28265 4.30481 4.80536L1.24205 2.4027C0.72512 1.99718 0.609518 1.21447 0.98385 0.654459ZM6.20135 6.29314C4.8713 7.69879 3.88395 9.16937 3.35042 10.039C3.32644 10.0781 3.3174 10.1167 3.31742 10.1519C3.31743 10.1872 3.32658 10.2264 3.35101 10.2662C3.98674 11.3023 5.26437 13.1876 6.9964 14.8013C8.73904 16.4248 10.8218 17.6637 13.0909 17.6637C14.9316 17.6637 16.6494 16.8483 18.1612 15.6753L14.7272 12.9815C14.253 13.304 13.692 13.4905 13.0908 13.4905C11.3888 13.4905 10.0091 11.9958 10.0091 10.1521C10.0091 9.87572 10.0401 9.60721 10.0985 9.35042L6.20135 6.29314ZM13.0909 2.64063C12.2952 2.64063 11.5244 2.7921 10.7815 3.05969C10.1759 3.27784 9.52169 2.92281 9.32032 2.26671C9.11895 1.61062 9.44667 0.901905 10.0523 0.683754C11.0035 0.341147 12.0205 0.136801 13.0909 0.136801C16.1438 0.136801 18.7471 1.79212 20.6924 3.60462C22.6484 5.42701 24.0609 7.5199 24.7555 8.652C25.3153 9.56413 25.3152 10.7403 24.7555 11.6523C24.5851 11.9301 24.3733 12.2627 24.1226 12.633C23.7451 13.1905 23.0218 13.3109 22.5073 12.9019C21.9927 12.493 21.8814 11.7095 22.2589 11.152C22.4867 10.8158 22.678 10.5151 22.8307 10.2663C22.8751 10.1939 22.8751 10.1103 22.8307 10.0381C22.195 9.00195 20.9175 7.11668 19.1854 5.50296C17.4427 3.87938 15.36 2.64063 13.0909 2.64063Z" fill="black"/>
</svg>
