<svg width="13" height="10" viewBox="0 0 13 10" fill="none" xmlns="http://www.w3.org/2000/svg">
<path d="M0.197266 0.310547C0.362316 0.0829269 0.680438 0.0323343 0.908203 0.197266L12.6895 8.72852C12.917 8.89355 12.9677 9.21171 12.8027 9.43945C12.6377 9.66709 12.3196 9.7177 12.0918 9.55273L10.2646 8.23047L10.2031 8.18555L10.1445 8.23242C9.16642 9.0045 7.92526 9.65039 6.5 9.65039C4.92409 9.65039 3.57371 8.86109 2.55664 7.98633C1.53498 7.10771 0.796369 6.09703 0.432617 5.5498C0.160056 5.13976 0.158607 4.611 0.431641 4.2002C0.717114 3.77069 1.23484 3.05577 1.93848 2.34277L2.02051 2.25977L1.92578 2.19141L0.310547 1.02246C0.0826959 0.857466 0.0322695 0.538399 0.197266 0.310547ZM2.79688 2.9248C2.08885 3.61554 1.56394 4.33785 1.28027 4.76465C1.25672 4.80016 1.24608 4.83832 1.24609 4.875C1.24612 4.91177 1.25745 4.95052 1.28125 4.98633C1.61911 5.49455 2.29811 6.42035 3.2207 7.21387C4.14841 8.01166 5.2696 8.63086 6.5 8.63086C7.49828 8.63086 8.42389 8.22284 9.23145 7.64453L9.34473 7.56348L9.23242 7.48242L7.42188 6.1709L7.36719 6.13184L7.30957 6.16797C7.07507 6.31513 6.79754 6.40038 6.5 6.40039C5.65778 6.40039 4.97463 5.71721 4.97461 4.875C4.97461 4.74862 4.99064 4.62601 5.01953 4.50879L5.03516 4.44336L4.98047 4.40332L2.92578 2.91602L2.85742 2.86621L2.79688 2.9248ZM6.5 0.0996094C8.0759 0.0996094 9.42634 0.888961 10.4434 1.76367C11.4651 2.64234 12.2037 3.65298 12.5674 4.2002C12.8403 4.61062 12.8402 5.1394 12.5674 5.5498C12.4783 5.68384 12.3675 5.8446 12.2363 6.02344C12.0699 6.25021 11.7511 6.29917 11.5244 6.13281C11.2976 5.9664 11.2487 5.6477 11.415 5.4209C11.536 5.2561 11.6375 5.10849 11.7188 4.98633C11.7644 4.91759 11.7645 4.83243 11.7188 4.76367C11.3809 4.25545 10.7019 3.32965 9.7793 2.53613C8.85157 1.73828 7.73039 1.11914 6.5 1.11914C6.06861 1.11914 5.65167 1.19491 5.25098 1.32812C4.98403 1.41688 4.69521 1.27183 4.60645 1.00488C4.51794 0.738043 4.66286 0.450048 4.92969 0.361328C5.42213 0.197623 5.94758 0.0996094 6.5 0.0996094Z" fill="black" stroke="#EEF0FA" stroke-width="0.2"/>
</svg>
