<svg width="16" height="13" viewBox="0 0 16 13" fill="none" xmlns="http://www.w3.org/2000/svg">
<path fill-rule="evenodd" clip-rule="evenodd" d="M0.142598 0.336013C0.385538 -0.0274307 0.854448 -0.108701 1.18994 0.154481L15.6899 11.5294C16.0254 11.7925 16.1005 12.3005 15.8575 12.6639C15.6146 13.0274 15.1457 13.1087 14.8102 12.8455L12.5615 11.0815C11.3457 12.1212 9.7922 13 8.00006 13C6.0187 13 4.32923 11.9256 3.06667 10.7493C1.79722 9.56661 0.8805 8.20831 0.42968 7.47358C0.0668461 6.88225 0.0657162 6.11965 0.429259 5.52709C0.783329 4.94997 1.4245 3.98871 2.2979 3.02994L0.310172 1.47062C-0.0253172 1.20744 -0.100343 0.699457 0.142598 0.336013ZM3.52875 3.99551C2.66555 4.90778 2.02476 5.86218 1.6785 6.42656C1.66294 6.45193 1.65707 6.47698 1.65708 6.49985C1.65709 6.52276 1.66303 6.5482 1.67888 6.57404C2.09147 7.24646 2.92065 8.47 4.04474 9.51731C5.17571 10.571 6.52743 11.375 8.00006 11.375C9.19465 11.375 10.3095 10.8458 11.2907 10.0845L9.06202 8.33622C8.75428 8.54554 8.39019 8.66658 8 8.66658C6.89543 8.66658 6 7.69655 6 6.49995C6 6.3206 6.02011 6.14634 6.05803 5.97968L3.52875 3.99551ZM8.00006 1.62504C7.48367 1.62504 6.98343 1.72334 6.50129 1.89701C6.10823 2.03859 5.68365 1.80817 5.55296 1.38236C5.42227 0.956562 5.63496 0.496605 6.02802 0.355026C6.64531 0.132674 7.30538 5.33444e-05 8.00006 5.33444e-05C9.98141 5.33444e-05 11.6709 1.07435 12.9334 2.25067C14.2029 3.4334 15.1196 4.79168 15.5704 5.52641C15.9337 6.11838 15.9336 6.8817 15.5704 7.47362C15.4598 7.65389 15.3223 7.86976 15.1596 8.11005C14.9146 8.47186 14.4452 8.55002 14.1113 8.2846C13.7773 8.01919 13.7051 7.51072 13.9501 7.1489C14.0979 6.93073 14.2221 6.73556 14.3212 6.57407C14.35 6.52708 14.35 6.47287 14.3212 6.42596C13.9086 5.75353 13.0795 4.52999 11.9554 3.48269C10.8244 2.42898 9.47268 1.62504 8.00006 1.62504Z" fill="#726CED"/>
</svg>
