<svg width="23" height="23" viewBox="0 0 23 23" fill="none" xmlns="http://www.w3.org/2000/svg">
<path fill-rule="evenodd" clip-rule="evenodd" d="M19.3199 11.6847C19.3199 11.1071 19.2681 10.5517 19.1718 10.0186H11.4999V13.1695H15.8839C15.695 14.1877 15.1211 15.0505 14.2584 15.6281V17.6719H16.891C18.4313 16.2538 19.3199 14.1655 19.3199 11.6847Z" fill="#4285F4"/>
<path fill-rule="evenodd" clip-rule="evenodd" d="M11.4998 19.6455C13.6992 19.6455 15.5431 18.9161 16.8909 17.672L14.2583 15.6281C13.5289 16.1169 12.5958 16.4057 11.4998 16.4057C9.3782 16.4057 7.58241 14.9727 6.94185 13.0474H4.2204V15.1579C5.56076 17.8201 8.31554 19.6455 11.4998 19.6455Z" fill="#34A853"/>
<path fill-rule="evenodd" clip-rule="evenodd" d="M6.942 13.0477C6.77908 12.559 6.68652 12.0369 6.68652 11.5C6.68652 10.9631 6.77908 10.4411 6.942 9.95231V7.8418H4.22055C3.66885 8.94149 3.35413 10.1856 3.35413 11.5C3.35413 12.8145 3.66885 14.0586 4.22055 15.1582L6.942 13.0477Z" fill="#FBBC05"/>
<path fill-rule="evenodd" clip-rule="evenodd" d="M11.4998 6.59383C12.6958 6.59383 13.7696 7.00482 14.6138 7.812L16.9501 5.47563C15.5394 4.16118 13.6955 3.354 11.4998 3.354C8.31554 3.354 5.56076 5.17941 4.2204 7.84162L6.94185 9.95214C7.58241 8.02676 9.3782 6.59383 11.4998 6.59383Z" fill="#EA4335"/>
</svg>
