<svg width="43" height="44" viewBox="0 0 43 44" fill="none" xmlns="http://www.w3.org/2000/svg">
<g clip-path="url(#clip0_6790_1631)">
<path d="M21.6216 43.0536C33.2759 43.0536 42.7236 33.6059 42.7236 21.9516C42.7236 10.2973 33.2759 0.849609 21.6216 0.849609C9.9673 0.849609 0.519623 10.2973 0.519623 21.9516C0.519623 33.6059 9.9673 43.0536 21.6216 43.0536Z" fill="#616161"/>
<path d="M21.6216 35.3797C14.2044 35.3797 8.19353 29.3687 8.19353 21.9516C8.19353 14.5344 14.2044 8.52352 21.6216 8.52352C25.3285 8.52352 28.6851 10.0267 31.1166 12.4565L36.5426 7.03057C32.7235 3.21147 27.4472 0.849609 21.6216 0.849609C9.96705 0.849609 0.519623 10.297 0.519623 21.9516C0.519623 33.6061 9.96705 43.0536 21.6216 43.0536C27.4489 43.0536 32.7235 40.6917 36.5443 36.8743L31.1183 31.4483C28.6851 33.8765 25.3285 35.3797 21.6216 35.3797Z" fill="#9E9E9E"/>
<path d="M35.0497 21.9512H28.3348C28.3348 18.2443 25.3285 15.2363 21.6199 15.2363C17.9113 15.2363 14.9067 18.2426 14.9067 21.9512C14.9067 23.757 15.6209 25.3945 16.7823 26.6035L16.7771 26.6086L25.0904 34.9219L25.0921 34.9236C30.8259 33.3932 35.0497 28.1662 35.0497 21.9512Z" fill="#424242"/>
<path d="M42.7219 21.9512H35.048C35.048 28.1661 30.8225 33.3932 25.0921 34.9235L31.018 40.8494C37.9557 37.3925 42.7219 30.2287 42.7219 21.9512Z" fill="#616161"/>
<path d="M21.6216 42.8113C10.0079 42.8113 0.587639 33.4285 0.521323 21.8301C0.521323 21.8709 0.519623 21.91 0.519623 21.9508C0.519623 33.6054 9.96705 43.0528 21.6216 43.0528C33.2761 43.0528 42.7236 33.6054 42.7236 21.9508C42.7236 21.91 42.7219 21.8709 42.7219 21.8301C42.6556 33.4285 33.2336 42.8113 21.6216 42.8113Z" fill="#212121" fill-opacity="0.1"/>
<path d="M25.0938 34.9235L25.2809 35.1106C30.916 33.519 35.0497 28.3396 35.0497 22.1909V21.9512C35.0497 28.1661 30.8242 33.3932 25.0938 34.9235Z" fill="white" fill-opacity="0.05"/>
<path d="M38.8867 20.0332H21.6208C20.5615 20.0332 19.7028 20.8919 19.7028 21.9513C19.7028 23.0106 20.5615 23.8693 21.6208 23.8693H38.885C39.9444 23.8693 40.8031 23.0106 40.8031 21.9513C40.8048 20.8919 39.9461 20.0332 38.8867 20.0332Z" fill="#9E9E9E"/>
<path opacity="0.5" d="M38.8867 20.0332H21.6208C20.5615 20.0332 19.7028 20.8919 19.7028 21.9513C19.7028 23.0106 20.5615 23.8693 21.6208 23.8693H38.885C39.9444 23.8693 40.8031 23.0106 40.8031 21.9513C40.8048 20.8919 39.9461 20.0332 38.8867 20.0332Z" fill="#BDBDBD"/>
<path d="M4.35571 23.3888C5.1502 23.3888 5.79425 22.7447 5.79425 21.9503C5.79425 21.1558 5.1502 20.5117 4.35571 20.5117C3.56123 20.5117 2.91718 21.1558 2.91718 21.9503C2.91718 22.7447 3.56123 23.3888 4.35571 23.3888Z" fill="#BDBDBD"/>
<path d="M21.6216 6.12317C22.4161 6.12317 23.0601 5.47912 23.0601 4.68463C23.0601 3.89015 22.4161 3.24609 21.6216 3.24609C20.8271 3.24609 20.183 3.89015 20.183 4.68463C20.183 5.47912 20.8271 6.12317 21.6216 6.12317Z" fill="#BDBDBD"/>
<path d="M21.6216 40.6525C22.4161 40.6525 23.0601 40.0084 23.0601 39.2139C23.0601 38.4194 22.4161 37.7754 21.6216 37.7754C20.8271 37.7754 20.183 38.4194 20.183 39.2139C20.183 40.0084 20.8271 40.6525 21.6216 40.6525Z" fill="#BDBDBD"/>
<path d="M9.3923 11.1798C10.1868 11.1798 10.8308 10.5358 10.8308 9.74127C10.8308 8.94679 10.1868 8.30273 9.3923 8.30273C8.59782 8.30273 7.95377 8.94679 7.95377 9.74127C7.95377 10.5358 8.59782 11.1798 9.3923 11.1798Z" fill="#BDBDBD"/>
<path d="M9.3923 35.6173C10.1868 35.6173 10.8308 34.9733 10.8308 34.1788C10.8308 33.3843 10.1868 32.7402 9.3923 32.7402C8.59782 32.7402 7.95377 33.3843 7.95377 34.1788C7.95377 34.9733 8.59782 35.6173 9.3923 35.6173Z" fill="#BDBDBD"/>
<path d="M33.8509 35.6193C34.6453 35.6193 35.2894 34.9752 35.2894 34.1807C35.2894 33.3862 34.6453 32.7422 33.8509 32.7422C33.0564 32.7422 32.4123 33.3862 32.4123 34.1807C32.4123 34.9752 33.0564 35.6193 33.8509 35.6193Z" fill="#757575"/>
<path d="M21.6216 20.2749H38.8857C39.9043 20.2749 40.7375 21.0707 40.797 22.0739C40.7987 22.0331 40.8038 21.994 40.8038 21.9532C40.8038 20.8939 39.9451 20.0352 38.8857 20.0352H21.6216C20.5622 20.0352 19.7035 20.8939 19.7035 21.9532C19.7035 21.994 19.7052 22.0331 19.7103 22.0739C19.7698 21.0707 20.6013 20.2749 21.6216 20.2749Z" fill="white" fill-opacity="0.2"/>
<path d="M40.797 22.0703C40.7341 23.0718 39.9026 23.8693 38.8857 23.8693H21.6216C20.603 23.8693 19.7698 23.0735 19.7103 22.0703C19.7052 22.1111 19.7035 22.1502 19.7035 22.1893C19.7035 23.2487 20.5622 24.1074 21.6216 24.1074H38.8857C39.9451 24.1074 40.8038 23.2487 40.8038 22.1893C40.8038 22.1502 40.8021 22.1111 40.797 22.0703Z" fill="#212121" fill-opacity="0.2"/>
<path d="M21.6216 8.76175C25.3285 8.76175 28.6851 10.2649 31.1166 12.6948L36.66 7.14807C36.6191 7.10726 36.58 7.06645 36.5409 7.02734L31.1166 12.4533C28.6851 10.0235 25.3285 8.5203 21.6216 8.5203C14.2045 8.5203 8.19354 14.5312 8.19354 21.9484C8.19354 21.9892 8.19524 22.0283 8.19524 22.0691C8.25986 14.7081 14.2453 8.76175 21.6216 8.76175Z" fill="#212121" fill-opacity="0.1"/>
<path d="M21.6216 43.0536C33.2759 43.0536 42.7236 33.6059 42.7236 21.9516C42.7236 10.2973 33.2759 0.849609 21.6216 0.849609C9.9673 0.849609 0.519623 10.2973 0.519623 21.9516C0.519623 33.6059 9.9673 43.0536 21.6216 43.0536Z" fill="url(#paint0_radial_6790_1631)"/>
</g>
<defs>
<radialGradient id="paint0_radial_6790_1631" cx="0" cy="0" r="1" gradientUnits="userSpaceOnUse" gradientTransform="translate(6.70791 6.98984) scale(42.1311)">
<stop stop-color="white" stop-opacity="0.1"/>
<stop offset="1" stop-color="white" stop-opacity="0"/>
</radialGradient>
<clipPath id="clip0_6790_1631">
<rect width="42.2022" height="42.2022" fill="white" transform="translate(0.519653 0.847656)"/>
</clipPath>
</defs>
</svg>
