<svg width="9" height="9" viewBox="0 0 9 9" fill="none" xmlns="http://www.w3.org/2000/svg">
<path d="M3.99035 1.10502C4.139 0.647495 4.78628 0.647494 4.93494 1.10502L5.57759 3.08288C5.64407 3.2875 5.83475 3.42603 6.04989 3.42603H8.12954C8.61061 3.42603 8.81063 4.04163 8.42143 4.32439L6.73896 5.54678C6.56491 5.67324 6.49208 5.89739 6.55856 6.102L7.20121 8.07987C7.34987 8.53739 6.82621 8.91785 6.43701 8.63509L4.75454 7.4127C4.58049 7.28624 4.3448 7.28624 4.17075 7.4127L2.48828 8.63509C2.09908 8.91785 1.57542 8.53739 1.72408 8.07987L2.36673 6.102C2.43321 5.89739 2.36038 5.67324 2.18633 5.54678L0.503855 4.3244C0.114659 4.04163 0.314679 3.42603 0.79575 3.42603H2.8754C3.09054 3.42603 3.28122 3.2875 3.3477 3.08288L3.99035 1.10502Z" fill="black"/>
</svg>
