<svg width="23" height="16" viewBox="0 0 23 16" fill="none" xmlns="http://www.w3.org/2000/svg">
<path d="M22.0493 3.36936H17.2147C15.8425 1.68943 13.755 0.615341 11.4151 0.615341C9.07519 0.615341 6.98776 1.68943 5.61555 3.3694H0.780945C0.346101 3.36936 -0.0067749 3.72149 -0.0067749 4.15623L-0.0067749 12.0249C-0.0067749 12.4597 0.346101 12.8118 0.780945 12.8118H5.61555C6.98776 14.4918 9.07519 15.5659 11.4151 15.5659C13.755 15.5659 15.8425 14.4918 17.2147 12.8118H22.0493C22.4841 12.8118 22.837 12.4597 22.837 12.0249V4.15623C22.837 3.72149 22.4841 3.36936 22.0493 3.36936Z" fill="#D8B551"/>
<path d="M11.4151 13.9922C9.63449 13.9922 7.96492 13.1994 6.83612 11.8169L6.36311 11.2382H1.96252C1.74513 11.2382 1.56866 11.0619 1.56866 10.8448V5.33658C1.56866 5.11942 1.74513 4.94315 1.96252 4.94315H6.36311L6.83612 4.36442C7.96492 2.9819 9.63449 2.18913 11.4151 2.18913C13.1957 2.18913 14.8653 2.9819 15.9941 4.36442L16.4671 4.94315H20.8677C21.0851 4.94315 21.2616 5.11942 21.2616 5.33658V10.8447C21.2616 11.0619 21.0851 11.2381 20.8677 11.2381H16.4671L15.9941 11.8169C14.8653 13.1994 13.1957 13.9922 11.4151 13.9922Z" fill="#BFA045"/>
<path d="M10.9428 3.71112C11.0915 3.2536 11.7388 3.2536 11.8874 3.71112L12.5301 5.68899C12.5966 5.8936 12.7872 6.03213 13.0024 6.03213H15.082C15.5631 6.03213 15.7631 6.64773 15.3739 6.9305L13.6914 8.15288C13.5174 8.27934 13.4446 8.50349 13.511 8.7081L14.1537 10.686C14.3024 11.1435 13.7787 11.524 13.3895 11.2412L11.707 10.0188C11.533 9.89234 11.2973 9.89234 11.1232 10.0188L9.44076 11.2412C9.05156 11.524 8.52791 11.1435 8.67656 10.686L9.31921 8.7081C9.38569 8.50349 9.31286 8.27934 9.13881 8.15288L7.45634 6.9305C7.06714 6.64773 7.26716 6.03213 7.74823 6.03213H9.82788C10.043 6.03213 10.2337 5.8936 10.3002 5.68899L10.9428 3.71112Z" fill="#FAFBFF"/>
</svg>
