<svg width="21" height="20" viewBox="0 0 21 20" fill="none" xmlns="http://www.w3.org/2000/svg">
<path fill-rule="evenodd" clip-rule="evenodd" d="M10.5346 0.16211H10.6279C11.4347 0.162083 12.1074 0.162066 12.6415 0.233863C13.2052 0.309656 13.7142 0.476372 14.1231 0.885346C14.5321 1.29432 14.6988 1.80326 14.7746 2.36696C14.8277 2.76169 14.8415 3.23217 14.8451 3.77652C15.4274 3.79521 15.9465 3.82926 16.4078 3.89128C17.4606 4.03281 18.3127 4.33103 18.9847 5.00299C19.6566 5.67497 19.9548 6.52705 20.0964 7.57978C20.2339 8.60271 20.2339 9.90971 20.2339 11.5599V11.6612C20.2339 13.3114 20.2339 14.6184 20.0964 15.6413C19.9548 16.694 19.6566 17.5461 18.9847 18.2181C18.3127 18.89 17.4606 19.1882 16.4078 19.3298C15.3849 19.4673 14.0779 19.4673 12.4277 19.4673H8.73477C7.08461 19.4673 5.77757 19.4673 4.75465 19.3298C3.70192 19.1882 2.84984 18.89 2.17787 18.2181C1.5059 17.5461 1.20769 16.694 1.06616 15.6413C0.928623 14.6184 0.928632 13.3114 0.92865 11.6612V11.5599C0.928632 9.90971 0.928623 8.60271 1.06616 7.57978C1.20769 6.52705 1.5059 5.67497 2.17787 5.00299C2.84984 4.33103 3.70192 4.03281 4.75465 3.89128C5.21598 3.82926 5.73509 3.79521 6.31741 3.77652C6.321 3.23217 6.33484 2.76169 6.3879 2.36696C6.4637 1.80326 6.63041 1.29432 7.03939 0.885346C7.44836 0.476372 7.9573 0.309656 8.521 0.233863C9.05506 0.162066 9.72778 0.162083 10.5346 0.16211ZM7.66464 3.75537C8.00417 3.75377 8.36065 3.75378 8.73476 3.75378H12.4277C12.8019 3.75378 13.1584 3.75377 13.4979 3.75537C13.4941 3.24327 13.4815 2.85698 13.4398 2.54643C13.384 2.13208 13.2878 1.95475 13.1708 1.83773C13.0538 1.72071 12.8764 1.62444 12.462 1.56873C12.0283 1.51042 11.4468 1.50899 10.5813 1.50899C9.71566 1.50899 9.13417 1.51042 8.70047 1.56873C8.28612 1.62444 8.10878 1.72071 7.99177 1.83773C7.87475 1.95475 7.77848 2.13208 7.72277 2.54643C7.68102 2.85698 7.66842 3.24327 7.66464 3.75537ZM4.93412 5.22614C4.03074 5.34761 3.51026 5.57538 3.13025 5.95539C2.75024 6.33539 2.52247 6.85586 2.40102 7.75925C2.27695 8.68199 2.27553 9.8984 2.27553 11.6105C2.27553 13.3227 2.27695 14.5391 2.40102 15.4619C2.52247 16.3652 2.75024 16.8857 3.13025 17.2657C3.51026 17.6457 4.03074 17.8735 4.93412 17.9949C5.85687 18.119 7.07325 18.1204 8.78542 18.1204H12.3771C14.0892 18.1204 15.3056 18.119 16.2284 17.9949C17.1317 17.8735 17.6523 17.6457 18.0323 17.2657C18.4123 16.8857 18.6401 16.3652 18.7615 15.4619C18.8855 14.5391 18.887 13.3227 18.887 11.6105C18.887 9.8984 18.8855 8.68199 18.7615 7.75925C18.6401 6.85586 18.4123 6.33539 18.0323 5.95539C17.6523 5.57538 17.1317 5.34761 16.2284 5.22614C15.3056 5.10209 14.0892 5.10065 12.3771 5.10065H8.78542C7.07325 5.10065 5.85687 5.10209 4.93412 5.22614ZM10.5813 7.34544C10.9532 7.34544 11.2547 7.64695 11.2547 8.01888V8.02804C12.2323 8.27434 13.0505 9.0452 13.0505 10.114C13.0505 10.4859 12.749 10.7874 12.3771 10.7874C12.0052 10.7874 11.7036 10.4859 11.7036 10.114C11.7036 9.76919 11.3213 9.29096 10.5813 9.29096C9.84119 9.29096 9.45886 9.76919 9.45886 10.114C9.45886 10.4589 9.84119 10.9371 10.5813 10.9371C11.8248 10.9371 13.0505 11.7989 13.0505 13.1071C13.0505 14.1759 12.2323 14.9468 11.2547 15.1931V15.2022C11.2547 15.5741 10.9532 15.8757 10.5813 15.8757C10.2093 15.8757 9.90782 15.5741 9.90782 15.2022V15.1931C8.93016 14.9468 8.11198 14.1759 8.11198 13.1071C8.11198 12.7352 8.41349 12.4337 8.78542 12.4337C9.15734 12.4337 9.45886 12.7352 9.45886 13.1071C9.45886 13.4519 9.84119 13.9301 10.5813 13.9301C11.3213 13.9301 11.7036 13.4519 11.7036 13.1071C11.7036 12.7622 11.3213 12.284 10.5813 12.284C9.33773 12.284 8.11198 11.4223 8.11198 10.114C8.11198 9.0452 8.93016 8.27434 9.90782 8.02804V8.01888C9.90782 7.64695 10.2093 7.34544 10.5813 7.34544Z" fill="black"/>
</svg>
