<svg width="8" height="18" viewBox="0 0 8 18" fill="none" xmlns="http://www.w3.org/2000/svg">
<path d="M5.50095 11C4.63428 7.76669 8.06761 6.76669 7.53428 4.73336C7.33428 3.93336 6.50095 3.43336 5.70095 3.66669C4.40095 4.03336 4.16761 4.56669 2.36761 5.06669C1.73428 5.23336 0.467614 5.90003 0.900948 7.60003C1.16761 8.53336 2.30095 10.1334 2.80095 12.0334C3.23428 13.6 3.06761 14.6334 3.43428 15.9667C3.56761 16.4334 3.73428 16.7334 3.96761 16.9C4.46761 17.4 5.20095 17.6334 5.93428 17.4334C7.03428 17.1334 7.66761 16.0334 7.36761 14.9334C6.86761 12.9334 5.96761 12.6667 5.50095 11Z" fill="#FAFBFF"/>
<path d="M6.50026 2.85377C6.9626 2.7299 7.18677 2.06728 7.00096 1.37377C6.81514 0.68026 6.28971 0.21848 5.82737 0.342355C5.36503 0.46623 5.14086 1.12885 5.32668 1.82236C5.51249 2.51587 6.03792 2.97765 6.50026 2.85377Z" fill="#FAFBFF"/>
<path d="M4.73835 3.29654C5.11178 3.19649 5.29477 2.6685 5.14708 2.11725C4.99938 1.566 4.57692 1.20023 4.2035 1.30028C3.83007 1.40034 3.64708 1.92832 3.79477 2.47957C3.94247 3.03082 4.36492 3.39659 4.73835 3.29654Z" fill="#FAFBFF"/>
<path d="M3.26806 3.83901C3.58814 3.75325 3.74333 3.29451 3.61469 2.81439C3.48606 2.33427 3.1223 2.01457 2.80221 2.10033C2.48213 2.18609 2.32694 2.64483 2.45558 3.12495C2.58422 3.60507 2.94798 3.92477 3.26806 3.83901Z" fill="#FAFBFF"/>
<path d="M2.12722 4.34133C2.37617 4.27463 2.49302 3.90342 2.3882 3.51221C2.28338 3.121 1.99659 2.85793 1.74764 2.92464C1.49869 2.99134 1.38185 3.36255 1.48666 3.75376C1.59148 4.14497 1.87827 4.40804 2.12722 4.34133Z" fill="#FAFBFF"/>
<path d="M1.22595 4.83036C1.45059 4.74782 1.52976 4.40075 1.40279 4.05515C1.27581 3.70955 0.990764 3.49629 0.766123 3.57883C0.541482 3.66136 0.462311 4.00844 0.58929 4.35404C0.716268 4.69964 1.00131 4.9129 1.22595 4.83036Z" fill="#FAFBFF"/>
</svg>
