<svg width="18.000000" height="18.000000" viewBox="0 0 18 18" fill="none" xmlns="http://www.w3.org/2000/svg" xmlns:xlink="http://www.w3.org/1999/xlink">
	<desc>
			Created with Pixso.
	</desc>
	<defs/>
	<circle id="Ellipse 277" r="9.000000" transform="matrix(1 -4.44089e-16 4.44089e-16 1 9 9)" fill="#FAFBFF" fill-opacity="1.000000"/>
	<path id="Vector" d="M11.11 12.7L11.11 10.76C11.11 10.51 11.12 10.27 11.14 10.03C11.17 9.82 11.19 9.63 11.23 9.46C11.26 9.28 11.29 9.12 11.33 8.97C11.37 8.82 11.4 8.66 11.43 8.5L11.1 8.4C11.01 8.81 10.89 9.2 10.73 9.58C10.54 10.03 10.35 10.53 10.14 11.08L9.71 12.2L8.26 12.2L7.83 11.08C7.62 10.53 7.42 10.03 7.24 9.58C7.07 9.2 6.95 8.81 6.86 8.4L6.53 8.5C6.56 8.66 6.59 8.82 6.63 8.97C6.67 9.12 6.71 9.28 6.74 9.46C6.77 9.63 6.8 9.82 6.82 10.03C6.85 10.27 6.86 10.51 6.86 10.76L6.86 12.7L5.29 12.7L5.29 5.29L6.95 5.29L8.44 8.38C8.59 8.69 8.7 9.02 8.76 9.36C8.8 9.6 8.82 9.84 8.82 10.08L8.82 10.32L9.17 10.32L9.17 10.08C9.17 9.84 9.19 9.6 9.23 9.36C9.29 9.01 9.4 8.68 9.55 8.38L11.04 5.29L12.7 5.29L12.7 12.7L11.11 12.7Z" fill="#726CED" fill-opacity="1.000000" fill-rule="nonzero"/>
	<path id="Vector" d="" fill="#F8F9FF" fill-opacity="0" fill-rule="evenodd"/>
</svg>
