<svg width="20" height="19" viewBox="0 0 20 19" fill="none" xmlns="http://www.w3.org/2000/svg">
<path d="M15.8887 1.45703C17.9438 3.20306 19.25 5.81367 19.25 8.73438C19.2498 13.9947 15.0165 18.25 9.80566 18.25C7.37618 18.25 5.16184 17.3265 3.4873 15.8066C3.51266 15.7756 3.55865 15.7461 3.61914 15.7461C10.4678 15.746 16.0107 10.1565 16.0107 3.27246C16.0107 2.67296 15.9691 2.08254 15.8877 1.50488C15.8851 1.48648 15.8855 1.47072 15.8887 1.45703ZM8.24805 5.76758C8.33698 5.94746 8.48251 6.09402 8.66309 6.18457L8.83105 6.26855L8.66309 6.35352C8.52764 6.42141 8.41207 6.52115 8.3252 6.64258L8.24805 6.77148L8.1709 6.92676L8.09375 6.77148L8.0166 6.64258C7.92974 6.52114 7.81416 6.42142 7.67871 6.35352L7.50977 6.26855L7.67871 6.18457C7.85926 6.09401 8.00483 5.94745 8.09375 5.76758L8.1709 5.61133L8.24805 5.76758ZM2.94141 1.99512C3.04239 2.22776 3.22823 2.41476 3.46191 2.51758L3.97363 2.74316L3.46191 2.96875C3.22822 3.07157 3.04238 3.25856 2.94141 3.49121L2.72363 3.99121L2.50684 3.49121L2.46484 3.40625C2.35858 3.21312 2.19085 3.05873 1.98633 2.96875L1.47363 2.74316L1.98633 2.51758C2.22005 2.41475 2.40587 2.2278 2.50684 1.99512L2.72363 1.49414L2.94141 1.99512Z" stroke="black" stroke-width="1.5"/>
</svg>
