<svg width="18" height="19" viewBox="0 0 18 19" fill="none" xmlns="http://www.w3.org/2000/svg">
<path fill-rule="evenodd" clip-rule="evenodd" d="M1.46327 11.0934V10.9154C1.49218 10.3888 1.67906 9.87856 2.00464 9.4373C2.54658 8.90723 2.91756 8.25766 3.07867 7.55675C3.07867 7.01503 3.07867 6.46557 3.13106 5.92385C3.40175 3.31585 6.25707 1.5127 9.07748 1.5127H9.14733C11.9677 1.5127 14.8231 3.31585 15.1025 5.92385C15.1549 6.46557 15.1025 7.01503 15.1461 7.55675C15.3094 8.25929 15.68 8.91087 16.2202 9.44504C16.5482 9.88239 16.7354 10.3908 16.7615 10.9154V11.0857C16.781 11.7932 16.5112 12.4831 16.0019 13.0281C15.3288 13.6654 14.4154 14.0619 13.4347 14.1425C10.5588 14.4211 7.65725 14.4211 4.78139 14.1425C3.80175 14.0585 2.88971 13.6625 2.21421 13.0281C1.71272 12.4827 1.44654 11.7969 1.46327 11.0934Z" stroke="var(--stroke-color)" stroke-width="1.43438" stroke-linecap="round" stroke-linejoin="round"/>
<path d="M6.91199 16.8354C7.36133 17.3448 8.0212 17.6745 8.74555 17.7514C9.4699 17.8284 10.199 17.6464 10.7715 17.2456C10.9476 17.1271 11.106 16.9893 11.243 16.8354" stroke="var(--stroke-color)" stroke-width="1.43438" stroke-linecap="round" stroke-linejoin="round"/>
</svg>
