<svg width="17" height="14" viewBox="0 0 17 14" fill="none" xmlns="http://www.w3.org/2000/svg">
<path fill-rule="evenodd" clip-rule="evenodd" d="M1.8677 7.07088C2.29098 6.39457 3.14164 5.16398 4.29488 4.11064C5.45517 3.05084 6.84191 2.24227 8.35272 2.24227C9.86352 2.24227 11.2503 3.05084 12.4105 4.11064C13.5638 5.16398 14.4145 6.39457 14.8378 7.07088C14.8673 7.11811 14.8673 7.17259 14.8378 7.21982C14.4145 7.89613 13.5638 9.12672 12.4105 10.18C11.2503 11.2399 9.86352 12.0484 8.35272 12.0484C6.84191 12.0484 5.45517 11.2399 4.29488 10.18C3.14164 9.12672 2.29098 7.89613 1.8677 7.21982C1.83813 7.17259 1.83813 7.11811 1.8677 7.07088ZM8.35272 0.60791C6.32 0.60791 4.58675 1.68841 3.29145 2.87151C1.9891 4.06105 1.04861 5.42717 0.58611 6.16614C0.213483 6.7615 0.213485 7.5292 0.58611 8.12456C1.04862 8.86353 1.9891 10.2296 3.29145 11.4192C4.58675 12.6023 6.32 13.6828 8.35272 13.6828C10.3854 13.6828 12.1187 12.6023 13.414 11.4192C14.7163 10.2296 15.6569 8.86353 16.1193 8.12456C16.492 7.5292 16.492 6.7615 16.1193 6.16614C15.6569 5.42717 14.7163 4.06105 13.414 2.87151C12.1187 1.68841 10.3854 0.60791 8.35272 0.60791ZM8.35271 9.3245C9.48591 9.3245 10.4045 8.34886 10.4045 7.14535C10.4045 5.94184 9.48591 4.9662 8.35271 4.9662C7.21951 4.9662 6.30087 5.94184 6.30087 7.14535C6.30087 8.34886 7.21951 9.3245 8.35271 9.3245Z" fill="#726CED"/>
</svg>
