<svg width="36" height="34" viewBox="0 0 36 34" fill="none" xmlns="http://www.w3.org/2000/svg">
<path d="M0.82019 5.05176C0.820193 2.78699 1.94265 0.720883 2.83663 0.015625L13.942 10.9024C13.4652 11.5381 12.4222 12.2136 11.1805 12.7897C10.4951 13.2069 9.79981 14.0115 10.3263 15.3624C13.346 20.5774 18.4516 24.1732 19.7628 24.4513C20.7076 24.6517 21.521 24.2725 22.0673 22.9216C22.6732 21.7097 23.3785 20.8555 23.7957 20.478L35.0202 31.6132C34.358 32.4873 32.5568 34.0567 29.2192 33.868C22.6037 33.7289 14.5777 31.4642 8.1211 24.4513C1.28705 16.7431 0.820187 7.91252 0.82019 5.05176Z" fill="url(#paint0_linear_6790_1660)"/>
<path d="M0.82019 5.05176C0.820193 2.78699 1.94265 0.720883 2.83663 0.015625L13.942 10.9024C13.4652 11.5381 12.4222 12.2136 11.1805 12.7897C10.4951 13.2069 9.79981 14.0115 10.3263 15.3624C13.346 20.5774 18.4516 24.1732 19.7628 24.4513C20.7076 24.6517 21.521 24.2725 22.0673 22.9216C22.6732 21.7097 23.3785 20.8555 23.7957 20.478L35.0202 31.6132C34.358 32.4873 32.5568 34.0567 29.2192 33.868C22.6037 33.7289 14.5777 31.4642 8.1211 24.4513C1.28705 16.7431 0.820187 7.91252 0.82019 5.05176Z" fill="url(#paint1_radial_6790_1660)" fill-opacity="0.65"/>
<path d="M0.82019 5.05176C0.820193 2.78699 1.94265 0.720883 2.83663 0.015625L13.942 10.9024C13.4652 11.5381 12.4222 12.2136 11.1805 12.7897C10.4951 13.2069 9.79981 14.0115 10.3263 15.3624C13.346 20.5774 18.4516 24.1732 19.7628 24.4513C20.7076 24.6517 21.521 24.2725 22.0673 22.9216C22.6732 21.7097 23.3785 20.8555 23.7957 20.478L35.0202 31.6132C34.358 32.4873 32.5568 34.0567 29.2192 33.868C22.6037 33.7289 14.5777 31.4642 8.1211 24.4513C1.28705 16.7431 0.820187 7.91252 0.82019 5.05176Z" fill="url(#paint2_radial_6790_1660)"/>
<path d="M0.82019 5.05176C0.820193 2.78699 1.94265 0.720883 2.83663 0.015625L13.942 10.9024C13.4652 11.5381 12.4222 12.2136 11.1805 12.7897C10.4951 13.2069 9.79981 14.0115 10.3263 15.3624C13.346 20.5774 18.4516 24.1732 19.7628 24.4513C20.7076 24.6517 21.521 24.2725 22.0673 22.9216C22.6732 21.7097 23.3785 20.8555 23.7957 20.478L35.0202 31.6132C34.358 32.4873 32.5568 34.0567 29.2192 33.868C22.6037 33.7289 14.5777 31.4642 8.1211 24.4513C1.28705 16.7431 0.820187 7.91252 0.82019 5.05176Z" fill="url(#paint3_radial_6790_1660)" fill-opacity="0.8"/>
<path d="M0.82019 5.05176C0.820193 2.78699 1.94265 0.720883 2.83663 0.015625L13.942 10.9024C13.4652 11.5381 12.4222 12.2136 11.1805 12.7897C10.4951 13.2069 9.79981 14.0115 10.3263 15.3624C13.346 20.5774 18.4516 24.1732 19.7628 24.4513C20.7076 24.6517 21.521 24.2725 22.0673 22.9216C22.6732 21.7097 23.3785 20.8555 23.7957 20.478L35.0202 31.6132C34.358 32.4873 32.5568 34.0567 29.2192 33.868C22.6037 33.7289 14.5777 31.4642 8.1211 24.4513C1.28705 16.7431 0.820187 7.91252 0.82019 5.05176Z" fill="url(#paint4_radial_6790_1660)"/>
<path d="M0.82019 5.05176C0.820193 2.78699 1.94265 0.720883 2.83663 0.015625L13.942 10.9024C13.4652 11.5381 12.4222 12.2136 11.1805 12.7897C10.4951 13.2069 9.79981 14.0115 10.3263 15.3624C13.346 20.5774 18.4516 24.1732 19.7628 24.4513C20.7076 24.6517 21.521 24.2725 22.0673 22.9216C22.6732 21.7097 23.3785 20.8555 23.7957 20.478L35.0202 31.6132C34.358 32.4873 32.5568 34.0567 29.2192 33.868C22.6037 33.7289 14.5777 31.4642 8.1211 24.4513C1.28705 16.7431 0.820187 7.91252 0.82019 5.05176Z" fill="url(#paint5_radial_6790_1660)" fill-opacity="0.7"/>
<path d="M0.82019 5.05176C0.820193 2.78699 1.94265 0.720883 2.83663 0.015625L13.942 10.9024C13.4652 11.5381 12.4222 12.2136 11.1805 12.7897C10.4951 13.2069 9.79981 14.0115 10.3263 15.3624C13.346 20.5774 18.4516 24.1732 19.7628 24.4513C20.7076 24.6517 21.521 24.2725 22.0673 22.9216C22.6732 21.7097 23.3785 20.8555 23.7957 20.478L35.0202 31.6132C34.358 32.4873 32.5568 34.0567 29.2192 33.868C22.6037 33.7289 14.5777 31.4642 8.1211 24.4513C1.28705 16.7431 0.820187 7.91252 0.82019 5.05176Z" fill="url(#paint6_radial_6790_1660)" fill-opacity="0.6"/>
<defs>
<linearGradient id="paint0_linear_6790_1660" x1="-3.24249" y1="4.78356" x2="26.6366" y2="32.9144" gradientUnits="userSpaceOnUse">
<stop stop-color="#E12D3E"/>
<stop offset="1" stop-color="#E821A1"/>
</linearGradient>
<radialGradient id="paint1_radial_6790_1660" cx="0" cy="0" r="1" gradientUnits="userSpaceOnUse" gradientTransform="translate(15.6024 18.9334) rotate(135.437) scale(11.3014 26.5519)">
<stop offset="0.114896" stop-color="#E53373" stop-opacity="0"/>
<stop offset="0.38831" stop-color="#FF6794" stop-opacity="0.85"/>
<stop offset="0.47185" stop-color="#FF6794" stop-opacity="0.78"/>
<stop offset="0.707477" stop-color="#E52656" stop-opacity="0"/>
</radialGradient>
<radialGradient id="paint2_radial_6790_1660" cx="0" cy="0" r="1" gradientUnits="userSpaceOnUse" gradientTransform="translate(25.5241 8.91578) rotate(92.8535) scale(25.5401 46.2506)">
<stop offset="0.792433" stop-color="#D43EB0" stop-opacity="0"/>
<stop offset="1" stop-color="#D43EB0"/>
</radialGradient>
<radialGradient id="paint3_radial_6790_1660" cx="0" cy="0" r="1" gradientUnits="userSpaceOnUse" gradientTransform="translate(31.3218 27.3281) rotate(98.5163) scale(7.83813 13.551)">
<stop offset="0.48377" stop-color="#F427A6"/>
<stop offset="0.706475" stop-color="#DB2FA9" stop-opacity="0.86"/>
<stop offset="1" stop-color="#D831A9" stop-opacity="0"/>
</radialGradient>
<radialGradient id="paint4_radial_6790_1660" cx="0" cy="0" r="1" gradientUnits="userSpaceOnUse" gradientTransform="translate(8.52057 4.9249) rotate(128.999) scale(7.96309 12.0996)">
<stop stop-color="#E31C49" stop-opacity="0.35"/>
<stop offset="0.685864" stop-color="#E31C49"/>
<stop offset="1" stop-color="#E52656" stop-opacity="0"/>
</radialGradient>
<radialGradient id="paint5_radial_6790_1660" cx="0" cy="0" r="1" gradientUnits="userSpaceOnUse" gradientTransform="translate(19.2137 17.7063) rotate(130.438) scale(12.1499 24.1667)">
<stop offset="0.429595" stop-color="#D54B4E" stop-opacity="0"/>
<stop offset="0.85326" stop-color="#D54B4E" stop-opacity="0.41"/>
<stop offset="0.939829" stop-color="#D54B4E"/>
</radialGradient>
<radialGradient id="paint6_radial_6790_1660" cx="0" cy="0" r="1" gradientUnits="userSpaceOnUse" gradientTransform="translate(22.4261 20.7397) rotate(63.2394) scale(4.83433 7.93785)">
<stop offset="0.33485" stop-color="#D7495B"/>
<stop offset="0.64576" stop-color="#D7495B" stop-opacity="0.82"/>
<stop offset="1" stop-color="#E52656" stop-opacity="0"/>
</radialGradient>
</defs>
</svg>
