<svg width="25" height="24" viewBox="0 0 25 24" fill="none" xmlns="http://www.w3.org/2000/svg">
<path d="M11.0298 10.8781H11.2584V10.6495V2.05113C11.2584 1.314 11.856 0.716431 12.5931 0.716431C13.3302 0.716431 13.9278 1.314 13.9278 2.05113V10.6495V10.8781H14.1565H22.7548C23.492 10.8781 24.0895 11.4757 24.0895 12.2128C24.0895 12.95 23.492 13.5475 22.7548 13.5475H14.1565H13.9278V13.7762V22.3745C13.9278 23.1117 13.3302 23.7092 12.5931 23.7092C11.856 23.7092 11.2584 23.1117 11.2584 22.3745V13.7762V13.5475H11.0298H2.43141C1.69428 13.5475 1.09671 12.95 1.09671 12.2128C1.09671 11.4757 1.69428 10.8781 2.43141 10.8781H11.0298Z" fill="black" stroke="#E9ECFF" stroke-width="0.457277"/>
</svg>
