<svg width="11" height="10" viewBox="0 0 11 10" fill="none" xmlns="http://www.w3.org/2000/svg">
<circle cx="5.43083" cy="5.10612" r="4.86979" fill="white"/>
<path d="M6.574 7.111V6.05829C6.5735 5.928 6.57995 5.79778 6.59333 5.66837C6.60564 5.55393 6.62058 5.44975 6.63816 5.35582C6.65573 5.26157 6.67419 5.17326 6.69529 5.09091C6.71638 5.00856 6.73396 4.92521 6.74978 4.83989L6.5696 4.78631C6.52283 5.00581 6.45535 5.21902 6.36833 5.4223C6.26931 5.66439 6.16268 5.93526 6.04842 6.2349L5.81726 6.83815H5.03065L4.79862 6.2349C4.68495 5.93526 4.5786 5.66439 4.47958 5.4223C4.39218 5.21921 4.32469 5.00595 4.27831 4.78631L4.09814 4.83989C4.11396 4.92521 4.13242 5.00955 4.15263 5.09091C4.17284 5.17227 4.19218 5.26157 4.20976 5.35582C4.22734 5.45008 4.24228 5.55426 4.25458 5.66837C4.26796 5.79778 4.27442 5.928 4.27392 6.05829V7.111H3.42578V3.10257H4.3249L5.12997 4.7754C5.2142 4.93941 5.27361 5.11814 5.30575 5.30423C5.32423 5.43321 5.3345 5.56352 5.33651 5.69416V5.82116H5.52547V5.69218C5.52748 5.56154 5.53775 5.43123 5.55623 5.30225C5.58837 5.11616 5.64777 4.93743 5.73201 4.77341L6.53709 3.10059H7.4362V7.111H6.574Z" fill="black"/>
</svg>
