<svg width="16" height="16" viewBox="0 0 16 16" fill="none" xmlns="http://www.w3.org/2000/svg">
<circle cx="7.97233" cy="7.80339" r="7.52604" fill="black"/>
<path d="M9.73896 10.903V9.27608C9.73818 9.07471 9.74816 8.87348 9.76884 8.67346C9.78786 8.49661 9.81095 8.33561 9.83811 8.19045C9.86528 8.04478 9.89381 7.90831 9.92641 7.78104C9.95901 7.65377 9.98617 7.52496 10.0106 7.39309L9.73217 7.31029C9.65988 7.64952 9.55559 7.97903 9.42112 8.29318C9.26808 8.66732 9.10328 9.08594 8.9267 9.54902L8.56946 10.4813H7.35379L6.9952 9.54902C6.81952 9.08594 6.65517 8.66732 6.50213 8.29318C6.36706 7.97931 6.26276 7.64973 6.19109 7.31029L5.91263 7.39309C5.93708 7.52496 5.96561 7.6553 5.99685 7.78104C6.02809 7.90677 6.05797 8.04478 6.08514 8.19045C6.11231 8.33612 6.13539 8.49713 6.15441 8.67346C6.17509 8.87348 6.18507 9.07471 6.18429 9.27608V10.903H4.87354V4.70814H6.26308L7.50728 7.29342C7.63746 7.5469 7.72928 7.82312 7.77894 8.11071C7.80749 8.31004 7.82338 8.51143 7.82647 8.71332V8.9096H8.11851V8.71026C8.12161 8.50837 8.13749 8.30698 8.16605 8.10765C8.21571 7.82006 8.30752 7.54383 8.43771 7.29035L9.68192 4.70508H11.0715V10.903H9.73896Z" fill="#D6DBF5"/>
</svg>
