<svg width="8" height="18" viewBox="0 0 8 18" fill="none" xmlns="http://www.w3.org/2000/svg">
<path d="M5.63342 5.3666C3.83342 4.89994 3.63342 4.33327 2.30009 3.9666C1.50009 3.7666 0.666758 4.23327 0.466758 5.03327C-0.0665756 7.0666 3.36676 8.0666 2.50009 11.2999C2.06676 12.9666 1.13342 13.2333 0.633424 15.1999C0.333424 16.2999 1.00009 17.3999 2.06676 17.6999C2.80009 17.8999 3.53342 17.6666 4.03342 17.1666C4.26676 16.9999 4.43342 16.6999 4.56676 16.2333C4.93342 14.8999 4.76676 13.8666 5.20009 12.2999C5.70009 10.3666 6.86676 8.79994 7.10009 7.8666C7.56676 6.1666 6.26676 5.49994 5.63342 5.3666Z" fill="#FAFBFF"/>
<path d="M2.19317 0.655887C1.73083 0.532012 1.2054 0.993793 1.01959 1.6873C0.833774 2.38081 1.05794 3.04343 1.52028 3.16731C1.98262 3.29118 2.50805 2.8294 2.69386 2.13589C2.87968 1.44238 2.65551 0.779762 2.19317 0.655887Z" fill="#FAFBFF"/>
<path d="M3.81183 1.58723C3.4384 1.48718 3.01595 1.85295 2.86825 2.4042C2.72055 2.95545 2.90355 3.48343 3.27697 3.58349C3.6504 3.68354 4.07286 3.31777 4.22055 2.76652C4.36825 2.21527 4.18526 1.68728 3.81183 1.58723Z" fill="#FAFBFF"/>
<path d="M5.1773 2.39755C4.85722 2.31179 4.49346 2.63148 4.36482 3.1116C4.23618 3.59173 4.39138 4.05046 4.71146 4.13622C5.03154 4.22198 5.3953 3.90229 5.52394 3.42217C5.65258 2.94205 5.49738 2.48331 5.1773 2.39755Z" fill="#FAFBFF"/>
<path d="M6.25693 3.2157C6.00798 3.149 5.7212 3.41207 5.61638 3.80328C5.51156 4.19449 5.62841 4.5657 5.87736 4.6324C6.12631 4.6991 6.4131 4.43604 6.51791 4.04483C6.62273 3.65362 6.50589 3.2824 6.25693 3.2157Z" fill="#FAFBFF"/>
<path d="M7.20933 3.87759C6.98469 3.79505 6.69965 4.00831 6.57267 4.35391C6.44569 4.69951 6.52486 5.04658 6.7495 5.12912C6.97414 5.21166 7.25919 4.9984 7.38616 4.6528C7.51314 4.3072 7.43397 3.96012 7.20933 3.87759Z" fill="#FAFBFF"/>
</svg>
