<svg width="9" height="9" viewBox="0 0 9 9" fill="none" xmlns="http://www.w3.org/2000/svg">
<path d="M6.92939 5.24312L7.08577 5.07501H6.85617H0.627908C0.343044 5.07501 0.1 4.82451 0.1 4.50001C0.1 4.17551 0.343044 3.92501 0.627908 3.92501H6.85617H7.08577L6.92939 3.7569L4.44319 1.08419C4.23368 0.858973 4.23368 0.491027 4.44319 0.265812C4.64884 0.0447294 4.97909 0.0447295 5.18474 0.265812L8.74287 4.09082L8.81346 4.02515L8.74287 4.09082C8.95238 4.31604 8.95238 4.68398 8.74287 4.9092L8.81609 4.97731L8.74287 4.9092L5.18474 8.73418C4.97909 8.95527 4.64884 8.95527 4.44319 8.73418C4.23368 8.50896 4.23368 8.14108 4.44319 7.91586L6.92939 5.24312Z" fill="black" stroke="#BDBAF1" stroke-width="0.2"/>
</svg>
