<svg width="19" height="20" viewBox="0 0 19 20" fill="none" xmlns="http://www.w3.org/2000/svg">
<path fill-rule="evenodd" clip-rule="evenodd" d="M17.503 5.75571L16.9081 4.74429C16.4048 3.88846 15.2895 3.59323 14.4148 4.08429V4.08429C13.9985 4.3246 13.5016 4.39278 13.0339 4.27379C12.5662 4.1548 12.166 3.85842 11.9215 3.45C11.7643 3.1904 11.6798 2.89472 11.6766 2.59286V2.59286C11.6908 2.10889 11.5044 1.63991 11.16 1.29275C10.8155 0.945583 10.3423 0.749801 9.84817 0.75H8.64965C8.16552 0.749995 7.70135 0.939007 7.35985 1.27521C7.01835 1.61142 6.82766 2.0671 6.82999 2.54143V2.54143C6.81564 3.52075 6.00122 4.30724 5.00158 4.30714C4.69349 4.30401 4.3917 4.22122 4.12674 4.06714V4.06714C3.25206 3.57608 2.13674 3.87132 1.63346 4.72714L0.994832 5.75571C0.492164 6.61047 0.789395 7.70254 1.65971 8.19857V8.19857C2.22542 8.51858 2.57392 9.10998 2.57392 9.75C2.57392 10.39 2.22542 10.9814 1.65971 11.3014V11.3014C0.7905 11.7941 0.492945 12.8835 0.994832 13.7357V13.7357L1.59847 14.7557C1.83427 15.1726 2.22992 15.4802 2.69785 15.6105C3.16578 15.7408 3.66741 15.6831 4.09175 15.45V15.45C4.5089 15.2115 5.006 15.1462 5.47255 15.2685C5.93911 15.3908 6.33646 15.6907 6.57628 16.1014C6.73354 16.361 6.81804 16.6567 6.82124 16.9586V16.9586C6.82124 17.948 7.63984 18.75 8.64965 18.75H9.84817C10.8546 18.75 11.6718 17.9532 11.6766 16.9671V16.9671C11.6742 16.4913 11.8661 16.0343 12.2095 15.6979C12.5529 15.3614 13.0193 15.1734 13.505 15.1757C13.8123 15.1838 14.1129 15.2662 14.3798 15.4157V15.4157C15.2522 15.9082 16.3668 15.617 16.8731 14.7643V14.7643L17.503 13.7357C17.7468 13.3257 17.8137 12.8374 17.6889 12.3788C17.5641 11.9203 17.2579 11.5295 16.8381 11.2929V11.2929C16.4183 11.0562 16.1121 10.6654 15.9873 10.2069C15.8625 9.74836 15.9294 9.26002 16.1732 8.85C16.3318 8.57879 16.5613 8.35391 16.8381 8.19857V8.19857C17.7032 7.70281 17.9997 6.61712 17.503 5.76429V5.76429V5.75571Z" stroke="black" stroke-width="1.5" stroke-linecap="round" stroke-linejoin="round"/>
<ellipse cx="9.25341" cy="9.74994" rx="2.51953" ry="2.46857" stroke="black" stroke-width="1.5" stroke-linecap="round" stroke-linejoin="round"/>
</svg>
