<svg width="20.530273" height="12.530090" viewBox="0 0 20.5303 12.5301" fill="none" xmlns="http://www.w3.org/2000/svg" xmlns:xlink="http://www.w3.org/1999/xlink">
	<desc>
			Created with Pixso.
	</desc>
	<defs/>
	<path id="Icon" d="M1.87 12.05L1.97 11.97L8.26 5.67L11.55 8.97C11.91 9.33 12.48 9.36 12.87 9.05L12.97 8.97L17.26 4.67L18.55 5.97C19.16 6.57 20.17 6.19 20.25 5.37L20.26 5.26L20.26 1.2L20.25 1.11L20.22 0.99L20.2 0.92L20.17 0.84L20.11 0.74L20.05 0.64L19.97 0.55C19.93 0.52 19.89 0.49 19.86 0.46L19.74 0.38L19.63 0.33L19.53 0.3L19.41 0.27L19.35 0.26L19.26 0.26L15.26 0.26C14.41 0.26 13.96 1.25 14.48 1.88L14.55 1.97L15.85 3.26L12.26 6.85L8.97 3.55C8.61 3.19 8.04 3.16 7.65 3.47L7.55 3.55L0.55 10.55C0.16 10.94 0.16 11.58 0.55 11.97C0.91 12.33 1.48 12.36 1.87 12.05Z" fill="#000000" fill-opacity="1.000000" fill-rule="nonzero"/>
	<path id="Icon" d="M1.97 11.97L8.26 5.67L11.55 8.97C11.91 9.33 12.48 9.36 12.87 9.05L12.97 8.97L17.26 4.67L18.55 5.97C19.16 6.57 20.17 6.19 20.25 5.37L20.26 5.26L20.26 1.2L20.25 1.11L20.22 0.99L20.2 0.92L20.17 0.84L20.11 0.74L20.05 0.64L19.97 0.55C19.93 0.52 19.89 0.49 19.86 0.46L19.74 0.38L19.63 0.33L19.53 0.3L19.41 0.27L19.35 0.26L19.26 0.26L15.26 0.26C14.41 0.26 13.96 1.25 14.48 1.88L14.55 1.97L15.85 3.26L12.26 6.85L8.97 3.55C8.61 3.19 8.04 3.16 7.65 3.47L7.55 3.55L0.55 10.55C0.16 10.94 0.16 11.58 0.55 11.97C0.91 12.33 1.48 12.36 1.87 12.05L1.97 11.97Z" stroke="#E9ECFF" stroke-opacity="1.000000" stroke-width="0.530000"/>
</svg>
