<svg width="30" height="30" viewBox="0 0 31 31" fill="none" xmlns="http://www.w3.org/2000/svg">
<rect x="0.244141" y="0.541992" width="29.9769" height="29.9769" rx="4.28241" fill="#E9ECFF"/>
<mask id="path-2-inside-1_4165_30927" fill="white">
<path fill-rule="evenodd" clip-rule="evenodd" d="M22.2468 10.2425C22.4174 10.4215 22.5133 10.6641 22.5133 10.9171C22.5133 11.17 22.4174 11.4126 22.2468 11.5916L13.4358 20.8185C13.2649 20.9972 13.0332 21.0976 12.7916 21.0976C12.5501 21.0976 12.3184 20.9972 12.1475 20.8185L8.19776 16.6823C8.03676 16.5014 7.94911 16.262 7.95327 16.0148C7.95743 15.7675 8.05309 15.5315 8.2201 15.3566C8.3871 15.1818 8.6124 15.0816 8.84854 15.0772C9.08467 15.0729 9.3132 15.1647 9.486 15.3333L12.7916 18.795L20.9586 10.2425C21.1294 10.0638 21.3611 9.96338 21.6027 9.96338C21.8442 9.96338 22.0759 10.0638 22.2468 10.2425Z"/>
</mask>
<path fill-rule="evenodd" clip-rule="evenodd" d="M22.2468 10.2425C22.4174 10.4215 22.5133 10.6641 22.5133 10.9171C22.5133 11.17 22.4174 11.4126 22.2468 11.5916L13.4358 20.8185C13.2649 20.9972 13.0332 21.0976 12.7916 21.0976C12.5501 21.0976 12.3184 20.9972 12.1475 20.8185L8.19776 16.6823C8.03676 16.5014 7.94911 16.262 7.95327 16.0148C7.95743 15.7675 8.05309 15.5315 8.2201 15.3566C8.3871 15.1818 8.6124 15.0816 8.84854 15.0772C9.08467 15.0729 9.3132 15.1647 9.486 15.3333L12.7916 18.795L20.9586 10.2425C21.1294 10.0638 21.3611 9.96338 21.6027 9.96338C21.8442 9.96338 22.0759 10.0638 22.2468 10.2425Z" fill="black" stroke="#E9ECFF" stroke-width="0.32356" mask="url(#path-2-inside-1_4165_30927)"/>
</svg>
