<svg width="22" height="22" viewBox="0 0 22 22" fill="none" xmlns="http://www.w3.org/2000/svg">
<path d="M21.7407 0.5H0.277756V21.963H21.7407V0.5Z" fill="#E40523"/>
<path d="M6.80699 2.14844L5.22957 5.42442L3.65216 2.14844H1.93088V7.10027H3.13729V3.55676L4.67937 6.55007H5.77978L7.32186 3.55676V7.10027H8.5308V2.14844H6.80699Z" fill="white"/>
<path d="M14.578 2.14844V3.13527H16.7334L16.7283 7.10027H17.9347L17.9398 3.13527H20.0977V2.14844H14.578Z" fill="white"/>
<path d="M18.8888 18.6572C18.8585 18.8541 18.7802 19.0156 18.6515 19.1393C18.5304 19.2554 18.3688 19.3361 18.1669 19.3841C17.9675 19.4295 17.6773 19.4573 17.3669 19.4573C17.0564 19.4573 16.7637 19.4169 16.5239 19.3336C16.2917 19.2554 16.1075 19.1166 15.9787 18.9222C15.8475 18.7279 15.7819 18.4452 15.7819 18.0868V17.5795C15.7819 17.2186 15.8475 16.9385 15.9787 16.7441C16.1075 16.5498 16.2917 16.4135 16.5239 16.3327C16.7637 16.252 17.0463 16.2091 17.3669 16.2091C17.6874 16.2091 17.9675 16.2343 18.1669 16.2823C18.3688 16.3277 18.5304 16.411 18.6515 16.5271C18.7777 16.6507 18.8585 16.8123 18.8888 17.0091H20.0977C20.0649 16.6003 19.9261 16.252 19.6838 15.9744C19.4617 15.7194 19.1563 15.5327 18.7752 15.4191C18.4042 15.308 17.9196 15.25 17.3694 15.25C16.7914 15.25 16.2892 15.3333 15.8753 15.4973C15.4563 15.6639 15.1332 15.9415 14.9111 16.3226C14.6966 16.6886 14.5856 17.1757 14.578 17.7739V17.8294L14.6436 17.8319L14.578 17.8344V17.89C14.5856 18.4881 14.6966 18.9752 14.9111 19.3412C15.1332 19.7223 15.4588 19.9999 15.8753 20.1665C16.2866 20.3305 16.7889 20.4138 17.3694 20.4138C17.9499 20.4138 18.4067 20.3558 18.7752 20.2447C19.1563 20.1312 19.4617 19.9444 19.6838 19.6895C19.9261 19.4119 20.0649 19.0636 20.0977 18.6547L18.8888 18.6572Z" fill="white"/>
</svg>
