<svg width="23" height="23" viewBox="0 0 23 23" fill="none" xmlns="http://www.w3.org/2000/svg">
<path d="M0 11.04C0 5.83568 0 3.23354 1.61677 1.61677C3.23354 0 5.83568 0 11.04 0H11.96C17.1643 0 19.7664 0 21.3832 1.61677C23 3.23354 23 5.83568 23 11.04V11.96C23 17.1643 23 19.7664 21.3832 21.3832C19.7664 23 17.1643 23 11.96 23H11.04C5.83568 23 3.23354 23 1.61677 21.3832C0 19.7664 0 17.1643 0 11.96V11.04Z" fill="#0077FF"/>
<path d="M12.2379 16.5698C6.99582 16.5698 4.00587 12.9761 3.88129 6.99609H6.50712C6.59337 11.3853 8.52916 13.2444 10.0625 13.6278V6.99609H12.5351V10.7815C14.0493 10.6186 15.6399 8.89359 16.1766 6.99609H18.6491C18.237 9.33443 16.512 11.0594 15.2854 11.7686C16.512 12.3436 18.4767 13.8482 19.2242 16.5698H16.5024C15.9179 14.749 14.4613 13.3403 12.5351 13.1486V16.5698H12.2379Z" fill="white"/>
</svg>
