<svg width="23" height="23" viewBox="0 0 23 23" fill="none" xmlns="http://www.w3.org/2000/svg">
<path d="M11.5 23C17.8513 23 23 17.8513 23 11.5C23 5.14873 17.8513 0 11.5 0C5.14873 0 0 5.14873 0 11.5C0 17.8513 5.14873 23 11.5 23Z" fill="#FC3F1D"/>
<path d="M15.6612 18.7194H13.1367V6.23353H12.0121C9.95067 6.23353 8.87087 7.26424 8.87087 8.80284C8.87087 10.5484 9.61563 11.3572 11.1564 12.3879L12.4261 13.2436L8.77698 18.7173H6.06256L9.34675 13.8305C7.45818 12.4818 6.39546 11.1652 6.39546 8.94368C6.39546 6.16738 8.33098 4.27881 11.995 4.27881H15.6441V18.7152H15.6612V18.7194Z" fill="white"/>
</svg>
