<svg width="27" height="46" viewBox="0 0 27 46" fill="none" xmlns="http://www.w3.org/2000/svg">
<g filter="url(#filter0_i_59_15688)">
<ellipse cx="12.084" cy="41.4061" rx="3.98049" ry="3.98091" fill="url(#paint0_linear_59_15688)"/>
<ellipse cx="12.084" cy="41.4061" rx="3.98049" ry="3.98091" fill="url(#paint1_radial_59_15688)"/>
<ellipse cx="12.084" cy="41.4061" rx="3.98049" ry="3.98091" fill="url(#paint2_radial_59_15688)"/>
</g>
<g filter="url(#filter1_i_59_15688)">
<path fill-rule="evenodd" clip-rule="evenodd" d="M11.6446 9.04829C10.1386 9.40716 9.3368 10.0913 8.88053 10.7204C8.3718 11.4219 8.1524 12.2568 8.15239 12.961C8.15238 15.1596 6.37024 16.9419 4.17188 16.9419C1.97351 16.9418 0.191393 15.1595 0.191406 12.9609C0.191433 8.51347 2.92253 2.86577 9.95686 1.26662C10.0088 1.25481 10.061 1.24404 10.1134 1.23432C14.711 0.381707 18.7276 1.64099 21.5465 4.39303C24.2565 7.03864 25.5423 10.7457 25.5423 14.3545C25.5423 17.9411 24.5115 20.8707 22.171 23.3566C20.5598 25.0678 18.4223 26.4499 16.0388 27.7545V30.9251C16.0388 33.1236 14.2567 34.906 12.0584 34.906C9.85999 34.906 8.07786 33.1236 8.07786 30.9251V25.3518C8.07786 23.8569 8.91525 22.488 10.2461 21.8074C13.5704 20.1073 15.3521 18.9849 16.375 17.8985C17.1443 17.0815 17.5813 16.192 17.5813 14.3545C17.5813 12.5394 16.9266 11.009 15.9856 10.0904C15.1636 9.28794 13.8408 8.6616 11.6446 9.04829Z" fill="url(#paint3_linear_59_15688)"/>
</g>
<g filter="url(#filter2_f_59_15688)">
<path d="M5.06641 12.6118C5.06642 9.70083 6.80797 5.91912 11.7337 4.79934C18.5753 3.53057 22.4563 8.58136 22.4563 14.0053C22.4563 19.4293 19.5207 21.6437 12.9529 25.0026V29.3076" stroke="url(#paint4_linear_59_15688)" stroke-width="2.87774" stroke-linecap="round" stroke-linejoin="round"/>
<path d="M5.06641 12.6118C5.06642 9.70083 6.80797 5.91912 11.7337 4.79934C18.5753 3.53057 22.4563 8.58136 22.4563 14.0053C22.4563 19.4293 19.5207 21.6437 12.9529 25.0026V29.3076" stroke="url(#paint5_linear_59_15688)" stroke-width="2.87774" stroke-linecap="round" stroke-linejoin="round"/>
</g>
<defs>
<filter id="filter0_i_59_15688" x="8.10352" y="37.4252" width="9.04009" height="9.04095" filterUnits="userSpaceOnUse" color-interpolation-filters="sRGB">
<feFlood flood-opacity="0" result="BackgroundImageFix"/>
<feBlend mode="normal" in="SourceGraphic" in2="BackgroundImageFix" result="shape"/>
<feColorMatrix in="SourceAlpha" type="matrix" values="0 0 0 0 0 0 0 0 0 0 0 0 0 0 0 0 0 0 127 0" result="hardAlpha"/>
<feOffset dx="1.07915" dy="1.07915"/>
<feGaussianBlur stdDeviation="1.07915"/>
<feComposite in2="hardAlpha" operator="arithmetic" k2="-1" k3="1"/>
<feColorMatrix type="matrix" values="0 0 0 0 0.713726 0 0 0 0 0.698039 0 0 0 0 1 0 0 0 1 0"/>
<feBlend mode="normal" in2="shape" result="effect1_innerShadow_59_15688"/>
</filter>
<filter id="filter1_i_59_15688" x="0.191406" y="0.970825" width="26.4307" height="35.0143" filterUnits="userSpaceOnUse" color-interpolation-filters="sRGB">
<feFlood flood-opacity="0" result="BackgroundImageFix"/>
<feBlend mode="normal" in="SourceGraphic" in2="BackgroundImageFix" result="shape"/>
<feColorMatrix in="SourceAlpha" type="matrix" values="0 0 0 0 0 0 0 0 0 0 0 0 0 0 0 0 0 0 127 0" result="hardAlpha"/>
<feOffset dx="1.07915" dy="1.07915"/>
<feGaussianBlur stdDeviation="1.07915"/>
<feComposite in2="hardAlpha" operator="arithmetic" k2="-1" k3="1"/>
<feColorMatrix type="matrix" values="0 0 0 0 0.713726 0 0 0 0 0.698039 0 0 0 0 1 0 0 0 1 0"/>
<feBlend mode="normal" in2="shape" result="effect1_innerShadow_59_15688"/>
</filter>
<filter id="filter2_f_59_15688" x="1.46865" y="1.0049" width="24.5842" height="31.8999" filterUnits="userSpaceOnUse" color-interpolation-filters="sRGB">
<feFlood flood-opacity="0" result="BackgroundImageFix"/>
<feBlend mode="normal" in="SourceGraphic" in2="BackgroundImageFix" result="shape"/>
<feGaussianBlur stdDeviation="1.07915" result="effect1_foregroundBlur_59_15688"/>
</filter>
<linearGradient id="paint0_linear_59_15688" x1="12.084" y1="39.3596" x2="12.084" y2="45.387" gradientUnits="userSpaceOnUse">
<stop stop-color="#726CED"/>
<stop offset="0.552083" stop-color="#9D80F4"/>
<stop offset="1" stop-color="#70DCF1"/>
</linearGradient>
<radialGradient id="paint1_radial_59_15688" cx="0" cy="0" r="1" gradientUnits="userSpaceOnUse" gradientTransform="translate(13.6265 40.8525) rotate(-48.817) scale(3.70263 3.2553)">
<stop offset="0.239583" stop-color="#726CED"/>
<stop offset="1" stop-color="#726CED" stop-opacity="0"/>
</radialGradient>
<radialGradient id="paint2_radial_59_15688" cx="0" cy="0" r="1" gradientUnits="userSpaceOnUse" gradientTransform="translate(8.10352 38.3644) rotate(25.9916) scale(4.42839 11.9912)">
<stop stop-color="#726CED"/>
<stop offset="1" stop-color="#726CED" stop-opacity="0"/>
</radialGradient>
<linearGradient id="paint3_linear_59_15688" x1="12.8668" y1="1.73999" x2="12.8668" y2="34.906" gradientUnits="userSpaceOnUse">
<stop stop-color="#726CED"/>
<stop offset="1" stop-color="#70DCF1"/>
</linearGradient>
<linearGradient id="paint4_linear_59_15688" x1="23.0036" y1="9.20405" x2="15.5395" y2="15.3737" gradientUnits="userSpaceOnUse">
<stop offset="0.103073" stop-color="#70DCF1"/>
<stop offset="1" stop-color="#70DCF1" stop-opacity="0"/>
</linearGradient>
<linearGradient id="paint5_linear_59_15688" x1="17.1324" y1="31.8952" x2="22.4572" y2="19.5548" gradientUnits="userSpaceOnUse">
<stop stop-color="#70DCF1"/>
<stop offset="1" stop-color="#70DCF1" stop-opacity="0"/>
</linearGradient>
</defs>
</svg>
