<svg width="49" height="48" viewBox="0 0 49 48" fill="none" xmlns="http://www.w3.org/2000/svg">
<g filter="url(#filter0_i_59_13085)">
<path d="M17.1516 34.3779H14.4805L14.4805 42.1769C14.4805 42.384 14.6484 42.5519 14.8555 42.5519L14.9016 42.5519C16.1442 42.5519 17.1516 41.5445 17.1516 40.3019V34.3779Z" fill="#CBC8C7"/>
</g>
<g filter="url(#filter1_i_59_13085)">
<path d="M19.7913 34.378H17.1504L17.1504 40.1083C17.1504 40.3154 17.3164 40.4833 17.5211 40.4833L17.5667 40.4833C18.7953 40.4833 19.7913 39.476 19.7913 38.2333V34.378Z" fill="#BDBFBD"/>
</g>
<g filter="url(#filter2_i_59_13085)">
<path d="M11.8379 44.1251C11.8379 44.3322 12.0058 44.5001 12.2129 44.5001H12.259C13.5016 44.5001 14.509 43.4928 14.509 42.2501V35.8015C14.509 35.4701 14.7776 35.2015 15.109 35.2015H19.0409C19.4552 35.2015 19.7909 34.8657 19.7909 34.4515V31.3253C19.7909 29.1292 18.0106 27.3488 15.8144 27.3488C13.6183 27.3488 11.8379 29.1292 11.8379 31.3253L11.8379 44.1251Z" fill="#D6D2D1"/>
<path d="M11.8379 44.1251C11.8379 44.3322 12.0058 44.5001 12.2129 44.5001H12.259C13.5016 44.5001 14.509 43.4928 14.509 42.2501V35.8015C14.509 35.4701 14.7776 35.2015 15.109 35.2015H19.0409C19.4552 35.2015 19.7909 34.8657 19.7909 34.4515V31.3253C19.7909 29.1292 18.0106 27.3488 15.8144 27.3488C13.6183 27.3488 11.8379 29.1292 11.8379 31.3253L11.8379 44.1251Z" fill="url(#paint0_radial_59_13085)"/>
</g>
<rect x="28.8984" y="40.8995" width="32.2053" height="21.1449" rx="3.3" transform="rotate(-135 28.8984 40.8995)" fill="url(#paint1_linear_59_13085)"/>
<rect x="28.8984" y="40.8995" width="32.2053" height="21.1449" rx="3.3" transform="rotate(-135 28.8984 40.8995)" fill="url(#paint2_linear_59_13085)"/>
<rect x="28.8984" y="40.8995" width="32.2053" height="21.1449" rx="3.3" transform="rotate(-135 28.8984 40.8995)" fill="url(#paint3_linear_59_13085)"/>
<rect x="28.8984" y="40.8995" width="32.2053" height="21.1449" rx="3.3" transform="rotate(-135 28.8984 40.8995)" fill="url(#paint4_radial_59_13085)"/>
<rect x="28.8984" y="40.8995" width="32.2053" height="21.1449" rx="3.3" transform="rotate(-135 28.8984 40.8995)" fill="url(#paint5_radial_59_13085)"/>
<rect x="25.959" y="43.8387" width="32.2053" height="21.1449" rx="3.3" transform="rotate(-135 25.959 43.8387)" fill="url(#paint6_radial_59_13085)"/>
<g filter="url(#filter3_iii_59_13085)">
<path fill-rule="evenodd" clip-rule="evenodd" d="M7.26388 21.6667L25.3593 39.7621C25.698 40.1009 26.2473 40.1009 26.5861 39.7621L36.835 29.5132C37.1738 29.1744 37.1738 28.6251 36.835 28.2864L18.7396 10.191C18.4008 9.85221 17.8516 9.85221 17.5128 10.191L7.26388 20.4399C6.92511 20.7787 6.92511 21.3279 7.26388 21.6667ZM24.7459 40.3755C25.4234 41.053 26.5219 41.053 27.1995 40.3755L37.4484 30.1266C38.1259 29.449 38.1259 28.3505 37.4484 27.673L19.353 9.57758C18.6755 8.90003 17.577 8.90003 16.8994 9.57758L6.65048 19.8265C5.97293 20.5041 5.97293 21.6026 6.65048 22.2801L24.7459 40.3755Z" fill="url(#paint7_linear_59_13085)"/>
</g>
<ellipse cx="18.0869" cy="21.0151" rx="5.34947" ry="4.9338" transform="rotate(-135 18.0869 21.0151)" fill="#289D5B"/>
<ellipse cx="18.0869" cy="21.0151" rx="5.34947" ry="4.9338" transform="rotate(-135 18.0869 21.0151)" fill="url(#paint8_linear_59_13085)"/>
<ellipse cx="18.0869" cy="21.0151" rx="5.34947" ry="4.9338" transform="rotate(-135 18.0869 21.0151)" fill="url(#paint9_radial_59_13085)"/>
<g filter="url(#filter4_f_59_13085)">
<path d="M15.7843 32.9275L12.385 29.5282L26.9683 14.945L30.4953 18.4721L15.7843 32.9275Z" fill="#127531"/>
</g>
<g filter="url(#filter5_f_59_13085)">
<path d="M33.1407 15.5455L29.7542 12.159L26.9683 14.9449L30.4954 18.472L33.1407 15.5455Z" fill="#0B3F2E"/>
</g>
<rect x="15.3398" y="33.2192" width="5.06031" height="25.3016" transform="rotate(-135 15.3398 33.2192)" fill="url(#paint10_linear_59_13085)"/>
<rect x="15.3398" y="33.2192" width="5.06031" height="25.3016" transform="rotate(-135 15.3398 33.2192)" fill="url(#paint11_linear_59_13085)"/>
<g filter="url(#filter6_dii_59_13085)">
<path d="M24.7747 33.6377C24.4977 33.9147 24.0486 33.9147 23.7716 33.6377C23.4946 33.3606 23.4946 32.9115 23.7716 32.6345L24.3238 32.0822C23.7048 31.0631 23.9567 30.0244 24.4425 29.4269C24.7193 29.0865 25.0973 29.046 25.3946 29.2878C25.692 29.5296 25.7371 29.9667 25.4953 30.2641C25.337 30.4587 24.9185 31.0658 25.6725 31.8198C26.7523 32.8997 28.2028 31.5003 26.9504 30.248C26.4137 29.7112 26.157 28.8328 26.2571 28.2193C26.3613 27.5807 26.682 27.0851 27.1497 26.7332C27.9951 26.2014 28.8827 26.2725 29.6518 26.7542L30.1835 26.2225C30.4606 25.9455 30.9097 25.9455 31.1867 26.2225C31.4637 26.4995 31.4637 26.9487 31.1867 27.2257L30.6668 27.7456C31.2167 28.5954 31.2129 29.5951 30.5382 30.4492C30.3006 30.75 29.888 30.8256 29.5872 30.588C29.2865 30.3505 29.2353 29.914 29.4728 29.6133C29.5908 29.464 29.7262 29.221 29.7546 28.9595C29.7789 28.736 29.7206 28.456 29.3784 28.1138C28.952 27.6874 28.5703 27.6175 28.2858 27.6857C27.4743 27.8327 27.2688 28.8156 27.8481 29.3949C28.5922 30.2029 28.7763 30.7804 28.7487 31.4265C28.7264 31.9515 28.5054 32.482 28.1261 32.8613C27.883 33.1044 27.4178 33.4272 26.8266 33.4852C26.3504 33.5318 25.8241 33.4323 25.3116 33.1008L24.7747 33.6377Z" fill="url(#paint12_linear_59_13085)"/>
</g>
<g filter="url(#filter7_ii_59_13085)">
<path d="M35.8223 16.2654V13.5943H43.6212C43.8283 13.5943 43.9962 13.7622 43.9962 13.9693V14.0154C43.9962 15.2581 42.9889 16.2654 41.7462 16.2654H35.8223Z" fill="#C8C2C3"/>
</g>
<g filter="url(#filter8_ii_59_13085)">
<path d="M35.8223 18.9366V16.2655H41.5526C41.7597 16.2655 41.9276 16.4334 41.9276 16.6405V16.6866C41.9276 17.9292 40.9203 18.9366 39.6776 18.9366H35.8223Z" fill="#C8C2C3"/>
</g>
<g filter="url(#filter9_ii_59_13085)">
<path d="M28.793 14.945C28.793 17.1495 30.5733 18.9366 32.7695 18.9366H35.8956C36.3098 18.9366 36.6456 18.5995 36.6456 18.1837V14.2368C36.6456 13.9042 36.9142 13.6346 37.2456 13.6346H43.6942C44.9369 13.6346 45.9442 12.6234 45.9442 11.376V11.3297C45.9442 11.1218 45.7763 10.9533 45.5692 10.9533L32.7695 10.9534C30.5733 10.9534 28.793 12.7405 28.793 14.945Z" fill="#DBD7D7"/>
</g>
<defs>
<filter id="filter0_i_59_13085" x="13.3555" y="34.0029" width="3.79688" height="8.54895" filterUnits="userSpaceOnUse" color-interpolation-filters="sRGB">
<feFlood flood-opacity="0" result="BackgroundImageFix"/>
<feBlend mode="normal" in="SourceGraphic" in2="BackgroundImageFix" result="shape"/>
<feColorMatrix in="SourceAlpha" type="matrix" values="0 0 0 0 0 0 0 0 0 0 0 0 0 0 0 0 0 0 127 0" result="hardAlpha"/>
<feOffset dx="-1.125" dy="-0.375"/>
<feGaussianBlur stdDeviation="0.75"/>
<feComposite in2="hardAlpha" operator="arithmetic" k2="-1" k3="1"/>
<feColorMatrix type="matrix" values="0 0 0 0 0.647059 0 0 0 0 0.623529 0 0 0 0 0.623529 0 0 0 1 0"/>
<feBlend mode="normal" in2="shape" result="effect1_innerShadow_59_13085"/>
</filter>
<filter id="filter1_i_59_13085" x="16.0254" y="34.003" width="3.76562" height="6.48035" filterUnits="userSpaceOnUse" color-interpolation-filters="sRGB">
<feFlood flood-opacity="0" result="BackgroundImageFix"/>
<feBlend mode="normal" in="SourceGraphic" in2="BackgroundImageFix" result="shape"/>
<feColorMatrix in="SourceAlpha" type="matrix" values="0 0 0 0 0 0 0 0 0 0 0 0 0 0 0 0 0 0 127 0" result="hardAlpha"/>
<feOffset dx="-1.125" dy="-0.375"/>
<feGaussianBlur stdDeviation="0.5625"/>
<feComposite in2="hardAlpha" operator="arithmetic" k2="-1" k3="1"/>
<feColorMatrix type="matrix" values="0 0 0 0 0.580392 0 0 0 0 0.611765 0 0 0 0 0.584314 0 0 0 1 0"/>
<feBlend mode="normal" in2="shape" result="effect1_innerShadow_59_13085"/>
</filter>
<filter id="filter2_i_59_13085" x="11.8379" y="26.9738" width="7.95312" height="17.5263" filterUnits="userSpaceOnUse" color-interpolation-filters="sRGB">
<feFlood flood-opacity="0" result="BackgroundImageFix"/>
<feBlend mode="normal" in="SourceGraphic" in2="BackgroundImageFix" result="shape"/>
<feColorMatrix in="SourceAlpha" type="matrix" values="0 0 0 0 0 0 0 0 0 0 0 0 0 0 0 0 0 0 127 0" result="hardAlpha"/>
<feOffset dy="-0.375"/>
<feGaussianBlur stdDeviation="0.5625"/>
<feComposite in2="hardAlpha" operator="arithmetic" k2="-1" k3="1"/>
<feColorMatrix type="matrix" values="0 0 0 0 0.658824 0 0 0 0 0.623529 0 0 0 0 0.627451 0 0 0 1 0"/>
<feBlend mode="normal" in2="shape" result="effect1_innerShadow_59_13085"/>
</filter>
<filter id="filter3_iii_59_13085" x="5.84258" y="9.0694" width="32.4145" height="32.1143" filterUnits="userSpaceOnUse" color-interpolation-filters="sRGB">
<feFlood flood-opacity="0" result="BackgroundImageFix"/>
<feBlend mode="normal" in="SourceGraphic" in2="BackgroundImageFix" result="shape"/>
<feColorMatrix in="SourceAlpha" type="matrix" values="0 0 0 0 0 0 0 0 0 0 0 0 0 0 0 0 0 0 127 0" result="hardAlpha"/>
<feOffset dy="0.3"/>
<feGaussianBlur stdDeviation="0.1875"/>
<feComposite in2="hardAlpha" operator="arithmetic" k2="-1" k3="1"/>
<feColorMatrix type="matrix" values="0 0 0 0 0.0941176 0 0 0 0 0.509804 0 0 0 0 0.254902 0 0 0 1 0"/>
<feBlend mode="normal" in2="shape" result="effect1_innerShadow_59_13085"/>
<feColorMatrix in="SourceAlpha" type="matrix" values="0 0 0 0 0 0 0 0 0 0 0 0 0 0 0 0 0 0 127 0" result="hardAlpha"/>
<feOffset dx="-0.3"/>
<feGaussianBlur stdDeviation="0.1875"/>
<feComposite in2="hardAlpha" operator="arithmetic" k2="-1" k3="1"/>
<feColorMatrix type="matrix" values="0 0 0 0 0.0941176 0 0 0 0 0.509804 0 0 0 0 0.254902 0 0 0 1 0"/>
<feBlend mode="normal" in2="effect1_innerShadow_59_13085" result="effect2_innerShadow_59_13085"/>
<feColorMatrix in="SourceAlpha" type="matrix" values="0 0 0 0 0 0 0 0 0 0 0 0 0 0 0 0 0 0 127 0" result="hardAlpha"/>
<feOffset dx="0.3"/>
<feGaussianBlur stdDeviation="0.1875"/>
<feComposite in2="hardAlpha" operator="arithmetic" k2="-1" k3="1"/>
<feColorMatrix type="matrix" values="0 0 0 0 0.172549 0 0 0 0 0.709804 0 0 0 0 0.4 0 0 0 1 0"/>
<feBlend mode="normal" in2="effect2_innerShadow_59_13085" result="effect3_innerShadow_59_13085"/>
</filter>
<filter id="filter4_f_59_13085" x="11.7848" y="14.345" width="19.3113" height="19.1825" filterUnits="userSpaceOnUse" color-interpolation-filters="sRGB">
<feFlood flood-opacity="0" result="BackgroundImageFix"/>
<feBlend mode="normal" in="SourceGraphic" in2="BackgroundImageFix" result="shape"/>
<feGaussianBlur stdDeviation="0.3" result="effect1_foregroundBlur_59_13085"/>
</filter>
<filter id="filter5_f_59_13085" x="26.5938" y="11.7841" width="6.92188" height="7.06293" filterUnits="userSpaceOnUse" color-interpolation-filters="sRGB">
<feFlood flood-opacity="0" result="BackgroundImageFix"/>
<feBlend mode="normal" in="SourceGraphic" in2="BackgroundImageFix" result="shape"/>
<feGaussianBlur stdDeviation="0.1875" result="effect1_foregroundBlur_59_13085"/>
</filter>
<filter id="filter6_dii_59_13085" x="23.1895" y="25.8648" width="8.35508" height="8.35563" filterUnits="userSpaceOnUse" color-interpolation-filters="sRGB">
<feFlood flood-opacity="0" result="BackgroundImageFix"/>
<feColorMatrix in="SourceAlpha" type="matrix" values="0 0 0 0 0 0 0 0 0 0 0 0 0 0 0 0 0 0 127 0" result="hardAlpha"/>
<feOffset dx="-0.15" dy="0.15"/>
<feGaussianBlur stdDeviation="0.1125"/>
<feComposite in2="hardAlpha" operator="out"/>
<feColorMatrix type="matrix" values="0 0 0 0 0.0901961 0 0 0 0 0.521569 0 0 0 0 0.223529 0 0 0 1 0"/>
<feBlend mode="normal" in2="BackgroundImageFix" result="effect1_dropShadow_59_13085"/>
<feBlend mode="normal" in="SourceGraphic" in2="effect1_dropShadow_59_13085" result="shape"/>
<feColorMatrix in="SourceAlpha" type="matrix" values="0 0 0 0 0 0 0 0 0 0 0 0 0 0 0 0 0 0 127 0" result="hardAlpha"/>
<feOffset dx="0.15" dy="-0.15"/>
<feGaussianBlur stdDeviation="0.075"/>
<feComposite in2="hardAlpha" operator="arithmetic" k2="-1" k3="1"/>
<feColorMatrix type="matrix" values="0 0 0 0 0.784314 0 0 0 0 0.760784 0 0 0 0 0.752941 0 0 0 1 0"/>
<feBlend mode="normal" in2="shape" result="effect2_innerShadow_59_13085"/>
<feColorMatrix in="SourceAlpha" type="matrix" values="0 0 0 0 0 0 0 0 0 0 0 0 0 0 0 0 0 0 127 0" result="hardAlpha"/>
<feOffset dx="-0.15" dy="0.15"/>
<feGaussianBlur stdDeviation="0.075"/>
<feComposite in2="hardAlpha" operator="arithmetic" k2="-1" k3="1"/>
<feColorMatrix type="matrix" values="0 0 0 0 1 0 0 0 0 0.996078 0 0 0 0 0.992157 0 0 0 1 0"/>
<feBlend mode="normal" in2="effect2_innerShadow_59_13085" result="effect3_innerShadow_59_13085"/>
</filter>
<filter id="filter7_ii_59_13085" x="35.3723" y="13.1444" width="9.07383" height="3.12108" filterUnits="userSpaceOnUse" color-interpolation-filters="sRGB">
<feFlood flood-opacity="0" result="BackgroundImageFix"/>
<feBlend mode="normal" in="SourceGraphic" in2="BackgroundImageFix" result="shape"/>
<feColorMatrix in="SourceAlpha" type="matrix" values="0 0 0 0 0 0 0 0 0 0 0 0 0 0 0 0 0 0 127 0" result="hardAlpha"/>
<feOffset dx="0.45" dy="-0.45"/>
<feGaussianBlur stdDeviation="0.5625"/>
<feComposite in2="hardAlpha" operator="arithmetic" k2="-1" k3="1"/>
<feColorMatrix type="matrix" values="0 0 0 0 0.658824 0 0 0 0 0.631373 0 0 0 0 0.635294 0 0 0 1 0"/>
<feBlend mode="normal" in2="shape" result="effect1_innerShadow_59_13085"/>
<feColorMatrix in="SourceAlpha" type="matrix" values="0 0 0 0 0 0 0 0 0 0 0 0 0 0 0 0 0 0 127 0" result="hardAlpha"/>
<feOffset dx="-0.45" dy="-0.45"/>
<feGaussianBlur stdDeviation="0.5625"/>
<feComposite in2="hardAlpha" operator="arithmetic" k2="-1" k3="1"/>
<feColorMatrix type="matrix" values="0 0 0 0 0.721569 0 0 0 0 0.682353 0 0 0 0 0.690196 0 0 0 1 0"/>
<feBlend mode="normal" in2="effect1_innerShadow_59_13085" result="effect2_innerShadow_59_13085"/>
</filter>
<filter id="filter8_ii_59_13085" x="35.3723" y="15.8155" width="7.00547" height="3.12108" filterUnits="userSpaceOnUse" color-interpolation-filters="sRGB">
<feFlood flood-opacity="0" result="BackgroundImageFix"/>
<feBlend mode="normal" in="SourceGraphic" in2="BackgroundImageFix" result="shape"/>
<feColorMatrix in="SourceAlpha" type="matrix" values="0 0 0 0 0 0 0 0 0 0 0 0 0 0 0 0 0 0 127 0" result="hardAlpha"/>
<feOffset dx="0.45" dy="-0.45"/>
<feGaussianBlur stdDeviation="0.5625"/>
<feComposite in2="hardAlpha" operator="arithmetic" k2="-1" k3="1"/>
<feColorMatrix type="matrix" values="0 0 0 0 0.611765 0 0 0 0 0.603922 0 0 0 0 0.596078 0 0 0 1 0"/>
<feBlend mode="normal" in2="shape" result="effect1_innerShadow_59_13085"/>
<feColorMatrix in="SourceAlpha" type="matrix" values="0 0 0 0 0 0 0 0 0 0 0 0 0 0 0 0 0 0 127 0" result="hardAlpha"/>
<feOffset dx="-0.45" dy="-0.45"/>
<feGaussianBlur stdDeviation="0.5625"/>
<feComposite in2="hardAlpha" operator="arithmetic" k2="-1" k3="1"/>
<feColorMatrix type="matrix" values="0 0 0 0 0.635294 0 0 0 0 0.611765 0 0 0 0 0.607843 0 0 0 1 0"/>
<feBlend mode="normal" in2="effect1_innerShadow_59_13085" result="effect2_innerShadow_59_13085"/>
</filter>
<filter id="filter9_ii_59_13085" x="28.043" y="10.7282" width="18.1254" height="8.20834" filterUnits="userSpaceOnUse" color-interpolation-filters="sRGB">
<feFlood flood-opacity="0" result="BackgroundImageFix"/>
<feBlend mode="normal" in="SourceGraphic" in2="BackgroundImageFix" result="shape"/>
<feColorMatrix in="SourceAlpha" type="matrix" values="0 0 0 0 0 0 0 0 0 0 0 0 0 0 0 0 0 0 127 0" result="hardAlpha"/>
<feOffset dx="0.225" dy="-0.225"/>
<feGaussianBlur stdDeviation="0.375"/>
<feComposite in2="hardAlpha" operator="arithmetic" k2="-1" k3="1"/>
<feColorMatrix type="matrix" values="0 0 0 0 0.729412 0 0 0 0 0.678431 0 0 0 0 0.686275 0 0 0 1 0"/>
<feBlend mode="normal" in2="shape" result="effect1_innerShadow_59_13085"/>
<feColorMatrix in="SourceAlpha" type="matrix" values="0 0 0 0 0 0 0 0 0 0 0 0 0 0 0 0 0 0 127 0" result="hardAlpha"/>
<feOffset dx="-0.75"/>
<feGaussianBlur stdDeviation="0.5625"/>
<feComposite in2="hardAlpha" operator="arithmetic" k2="-1" k3="1"/>
<feColorMatrix type="matrix" values="0 0 0 0 0.964706 0 0 0 0 0.964706 0 0 0 0 0.956863 0 0 0 1 0"/>
<feBlend mode="normal" in2="effect1_innerShadow_59_13085" result="effect2_innerShadow_59_13085"/>
</filter>
<radialGradient id="paint0_radial_59_13085" cx="0" cy="0" r="1" gradientUnits="userSpaceOnUse" gradientTransform="translate(12.1435 42.0507) rotate(-90) scale(11.6886 2.06798)">
<stop stop-color="#E3E1E1"/>
<stop offset="1" stop-color="#E3E1E1" stop-opacity="0"/>
</radialGradient>
<linearGradient id="paint1_linear_59_13085" x1="59.0073" y1="60.6348" x2="30.0189" y2="60.6348" gradientUnits="userSpaceOnUse">
<stop stop-color="#12724A"/>
<stop offset="1" stop-color="#116245"/>
</linearGradient>
<linearGradient id="paint2_linear_59_13085" x1="61.1037" y1="59.6227" x2="58.0314" y2="59.6227" gradientUnits="userSpaceOnUse">
<stop stop-color="#1C8F60"/>
<stop offset="1" stop-color="#1C8F60" stop-opacity="0"/>
</linearGradient>
<linearGradient id="paint3_linear_59_13085" x1="28.8984" y1="59.4781" x2="32.0792" y2="59.4781" gradientUnits="userSpaceOnUse">
<stop offset="0.556818" stop-color="#195840"/>
<stop offset="1" stop-color="#195840" stop-opacity="0"/>
</linearGradient>
<radialGradient id="paint4_radial_59_13085" cx="0" cy="0" r="1" gradientUnits="userSpaceOnUse" gradientTransform="translate(43.8615 59.341) rotate(159.806) scale(6.1451 5.83059)">
<stop offset="0.306788" stop-color="#0E593C"/>
<stop offset="1" stop-color="#0E593C" stop-opacity="0"/>
</radialGradient>
<radialGradient id="paint5_radial_59_13085" cx="0" cy="0" r="1" gradientUnits="userSpaceOnUse" gradientTransform="translate(42.4693 60.6005) rotate(-176.751) scale(7.60257 1.61213)">
<stop offset="0.396008" stop-color="#0F4F35"/>
<stop offset="1" stop-color="#0F4F35" stop-opacity="0"/>
</radialGradient>
<radialGradient id="paint6_radial_59_13085" cx="0" cy="0" r="1" gradientUnits="userSpaceOnUse" gradientTransform="translate(26.6638 44.6701) rotate(48.2593) scale(22.4767 29.475)">
<stop stop-color="#31DE74"/>
<stop offset="1" stop-color="#20CF5E"/>
</radialGradient>
<linearGradient id="paint7_linear_59_13085" x1="8.10731" y1="23.1747" x2="34.637" y2="25.6794" gradientUnits="userSpaceOnUse">
<stop stop-color="#24A35B"/>
<stop offset="1" stop-color="#27A05A"/>
</linearGradient>
<linearGradient id="paint8_linear_59_13085" x1="16.3158" y1="21.6115" x2="18.3761" y2="21.6115" gradientUnits="userSpaceOnUse">
<stop offset="0.22807" stop-color="#269553"/>
<stop offset="1" stop-color="#269553" stop-opacity="0"/>
</linearGradient>
<radialGradient id="paint9_radial_59_13085" cx="0" cy="0" r="1" gradientUnits="userSpaceOnUse" gradientTransform="translate(18.0869 21.7922) rotate(-40.8023) scale(5.58673 5.49123)">
<stop offset="0.587108" stop-color="#249755" stop-opacity="0"/>
<stop offset="0.986856" stop-color="#16793D"/>
</radialGradient>
<linearGradient id="paint10_linear_59_13085" x1="17.87" y1="35.1349" x2="17.87" y2="55.1592" gradientUnits="userSpaceOnUse">
<stop stop-color="#FFD425"/>
<stop offset="1" stop-color="#FFAD24"/>
</linearGradient>
<linearGradient id="paint11_linear_59_13085" x1="19.0989" y1="58.5207" x2="19.0989" y2="54.0749" gradientUnits="userSpaceOnUse">
<stop offset="0.893939" stop-color="#CC8139"/>
<stop offset="1" stop-color="#CC8139" stop-opacity="0"/>
</linearGradient>
<linearGradient id="paint12_linear_59_13085" x1="23.7779" y1="33.644" x2="31.193" y2="26.2288" gradientUnits="userSpaceOnUse">
<stop stop-color="#EFEAEA"/>
<stop offset="1" stop-color="#EAE3E3"/>
</linearGradient>
</defs>
</svg>
